STARTFONT 2.1
COMMENT
COMMENT Converted from OpenType font "BeVietnam-Regular.ttf" by "otf2bdf 3.0".
COMMENT
FONT -FreeType-Be Vietnam-Medium-R-Normal--77-560-100-100-P-360-ISO10646-1
SIZE 56 100 100
FONTBOUNDINGBOX 119 105 -29 -20
STARTPROPERTIES 19
FOUNDRY "FreeType"
FAMILY_NAME "Be Vietnam"
WEIGHT_NAME "Medium"
SLANT "R"
SETWIDTH_NAME "Normal"
ADD_STYLE_NAME ""
PIXEL_SIZE 77
POINT_SIZE 560
RESOLUTION_X 100
RESOLUTION_Y 100
SPACING "P"
AVERAGE_WIDTH 360
CHARSET_REGISTRY "ISO10646"
CHARSET_ENCODING "1"
FONT_ASCENT 93
FONT_DESCENT 20
COPYRIGHT "Copyright 2019 The Bevietnam Project Authors (https://github.com/bettergui/beVietnam)"
_OTF_FONTFILE "BeVietnam-Regular.ttf"
_OTF_PSNAME "BeVietnam-Regular"
ENDPROPERTIES
CHARS 445
STARTCHAR 000D
ENCODING 13
SWIDTH 591 0
DWIDTH 46 0
BBX 0 0 0 0
BITMAP
ENDCHAR
STARTCHAR 0020
ENCODING 32
SWIDTH 218 0
DWIDTH 17 0
BBX 0 0 0 0
BITMAP
ENDCHAR
STARTCHAR 0021
ENCODING 33
SWIDTH 231 0
DWIDTH 18 0
BBX 9 60 5 -1
BITMAP
7F00
7F00
7F00
7F00
7F00
7F00
7F00
7F00
7F00
7F00
7F00
7F00
7F00
7F00
7F00
7F00
7F00
7F00
7F00
7F00
7F00
7F00
7F00
7F00
7F00
7F00
3F00
3E00
3E00
3E00
3E00
3E00
3E00
3E00
3E00
3E00
3E00
3E00
3E00
3E00
3E00
3E00
3E00
3E00
3E00
0000
0000
0000
0000
0000
0000
1C00
7F00
7F00
FF80
FF80
FF80
7F00
3F00
1C00
ENDCHAR
STARTCHAR 0022
ENCODING 34
SWIDTH 501 0
DWIDTH 39 0
BBX 28 20 6 39
BITMAP
018000C0
078003C0
0F8007C0
1E000F00
3C001E00
38001C00
78003C00
70003C00
70003C00
F0003C00
F8003C00
FF003F80
FFC03FE0
FFC03FF0
FFE03FF0
7FE03FF0
7FC03FF0
7FC01FE0
3F800FC0
04000000
ENDCHAR
STARTCHAR 0023
ENCODING 35
SWIDTH 874 0
DWIDTH 68 0
BBX 56 54 6 0
BITMAP
000007E0007E00
000007E0007E00
000007C0007E00
00000FC0007C00
00000FC000FC00
00000FC000FC00
00000FC000FC00
00001F8000FC00
00001F8000F800
00001F8001F800
00001F8001F800
00001F8001F800
00003F0001F000
00003F0003F000
00003F0003F000
0FFFFFFFFFFFFF
0FFFFFFFFFFFFF
0FFFFFFFFFFFFE
0FFFFFFFFFFFFE
0FFFFFFFFFFFFE
00007E0007E000
00007C0007E000
0000FC000FC000
0000FC000FC000
0000FC000FC000
0000FC000FC000
0001F8000F8000
0001F8001F8000
0001F8001F8000
0001F8001F8000
0001F0001F8000
0003F0003F0000
0003F0003F0000
0003F0003F0000
7FFFFFFFFFFFF8
7FFFFFFFFFFFF0
7FFFFFFFFFFFF0
7FFFFFFFFFFFF0
FFFFFFFFFFFFF0
0007E0007E0000
000FC0007C0000
000FC000FC0000
000FC000FC0000
000FC000FC0000
000F8000FC0000
001F8001F80000
001F8001F80000
001F8001F80000
001F8001F80000
003F0001F80000
003F0003F00000
003F0003F00000
003F0003F00000
003F0003F00000
ENDCHAR
STARTCHAR 0024
ENCODING 36
SWIDTH 565 0
DWIDTH 44 0
BBX 38 65 3 -6
BITMAP
0000380000
0000380000
0000380000
0000380000
0000380000
0003FF0000
001FFFF000
007FFFFC00
01FFFFFE00
03FFFFFF00
07FFFFFF80
0FFC38FFC0
0FF0383FC0
1FE0381FE0
1FC0380FF0
3FC03807F0
3F803807F0
3F803803F8
3F803803F8
3F003803F8
3F003801F8
3F803801F8
3F80380000
3F80380000
3FC0380000
1FE0380000
1FF0380000
0FFC380000
07FFF80000
03FFFE0000
01FFFFE000
00FFFFFC00
003FFFFF00
0007FFFF80
00007FFFC0
000039FFE0
0000383FF0
0000380FF8
00003807F8
00003803FC
00003801FC
00003801FC
FE003800FC
7F003800FC
7F003800FC
7F003800FC
7F803801FC
3F803801FC
3FC03801FC
1FC03803F8
1FE03807F8
0FF8380FF0
0FFC383FF0
07FFF9FFE0
03FFFFFFC0
00FFFFFF80
007FFFFF00
001FFFFC00
0007FFE000
00003C0000
0000380000
0000380000
0000380000
0000380000
0000380000
ENDCHAR
STARTCHAR 0025
ENCODING 37
SWIDTH 822 0
DWIDTH 64 0
BBX 60 56 2 -1
BITMAP
01FE000000000000
07FF8000007E0000
0FFFC00000FC0000
1FFFE00000FC0000
3F03F00001F80000
3E01F00001F80000
7C00F80003F00000
7C00F80003F00000
7C00F80007E00000
7C00F80007E00000
FC00F8000FC00000
FC00F8000FC00000
7C00F8001F800000
7C00F8001F000000
7C00F8003F000000
7E00F8003E000000
3E01F0007E000000
3F03F0007C000000
1FFFE000FC000000
0FFFC001F8000000
07FF8001F8000000
01FE0003F0000000
00000003F0000000
00000007E0000000
00000007E0000000
0000000FC0000000
0000000FC0000000
0000001F80000000
0000001F80000000
0000003F00000000
0000003F00000000
0000007E00000000
0000007E00000000
000000FC0001F000
000000FC000FFE00
000001F8001FFF00
000001F8003FFF80
000003F0007F1FC0
000003F000FC07C0
000007E000F803E0
000007E000F803E0
00000FC001F001E0
00000FC001F001F0
00001F8001F001F0
00001F8001F001F0
00003F0001F001F0
00003E0001F001F0
00007E0001F001E0
00007C0000F803E0
0000FC0000F803E0
0001F80000FC07C0
0001F800007F0FC0
0003F000003FFF80
0003F000001FFF00
0007E000000FFE00
000000000001F000
ENDCHAR
STARTCHAR 0026
ENCODING 38
SWIDTH 630 0
DWIDTH 49 0
BBX 47 56 4 -1
BITMAP
00007FF00000
0003FFFE0000
0007FFFF0000
000FFFFF8000
001FFFFFC000
003FFDFFE000
007FC01FF000
007F800FF000
00FF0007F800
00FE0003F800
00FE0003F800
00FC0001FC00
00FC0001FC00
00FC0001FC00
00FC0001FC00
00FE0001FC00
00FE00000000
00FE00000000
007F00000000
007F00000000
003F80000000
003FC0000000
001FE0000000
000FF0000000
0007F8000000
0003F8000000
0007FC000000
003FFE001FC0
00FFFF001F80
01FFFF803F80
07FF3FC07F00
0FF81FE07F00
1FE00FF0FE00
1FC007F8FC00
3F8003F9FC00
7F0003FDF800
7F0001FFF800
7E0000FFF000
7E00007FE000
FE00003FE000
FE00001FE000
FE00001FE000
FE00001FF000
FE00003FF800
7E00007FFC00
7F00007FFE00
7F8000FEFF00
7FC001FC7F80
3FE007F83FC0
1FFC3FF01FC0
1FFFFFE00FE0
0FFFFFC00FF0
07FFFF8007F8
01FFFE0003FC
007FF80001FE
000500000000
ENDCHAR
STARTCHAR 0027
ENCODING 39
SWIDTH 295 0
DWIDTH 23 0
BBX 10 20 6 42
BITMAP
1E00
7F80
7FC0
FFC0
FFC0
FFC0
7FC0
3FC0
07C0
01C0
01C0
01C0
01C0
03C0
0380
0780
0F00
3E00
3C00
3000
ENDCHAR
STARTCHAR 0028
ENCODING 40
SWIDTH 450 0
DWIDTH 35 0
BBX 21 78 9 -17
BITMAP
000020
000070
0000F8
0003F0
0007E0
000FC0
001F80
003F00
003F00
007E00
00FC00
01FC00
01F800
03F800
03F000
07F000
07E000
0FE000
0FC000
1FC000
1FC000
1F8000
3F8000
3F8000
3F0000
7F0000
7F0000
7F0000
7F0000
FE0000
FE0000
FE0000
FE0000
FE0000
FE0000
FE0000
FE0000
FE0000
FE0000
FE0000
FE0000
FE0000
FE0000
FE0000
FE0000
FE0000
FE0000
FE0000
FE0000
FE0000
7F0000
7F0000
7F0000
7F0000
3F0000
3F8000
3F8000
1F8000
1FC000
1FC000
0FC000
0FE000
07E000
07F000
03F000
03F800
01F800
00FC00
00FC00
007E00
003F00
001F00
000F80
000FC0
0007E0
0001F0
0000F8
000070
ENDCHAR
STARTCHAR 0029
ENCODING 41
SWIDTH 488 0
DWIDTH 38 0
BBX 21 79 8 -17
BITMAP
200000
700000
F80000
7E0000
3F0000
1F8000
0FC000
07E000
07E000
03F000
01F800
01FC00
00FC00
00FE00
007E00
007F00
003F00
003F80
001F80
001FC0
001FC0
000FE0
000FE0
000FE0
0007F0
0007F0
0007F0
0007F0
0003F0
0003F8
0003F8
0003F8
0003F8
0003F8
0003F8
0003F8
0003F8
0001F8
0001F8
0001F8
0001F8
0001F8
0003F8
0003F8
0003F8
0003F8
0003F8
0003F8
0003F8
0003F8
0003F0
0007F0
0007F0
0007F0
0007F0
000FE0
000FE0
000FC0
001FC0
001FC0
001F80
003F80
003F00
007F00
007E00
00FE00
00FC00
01FC00
01F800
03F000
07E000
07C000
0FC000
1F8000
3F0000
7C0000
F80000
700000
200000
ENDCHAR
STARTCHAR 002A
ENCODING 42
SWIDTH 501 0
DWIDTH 39 0
BBX 27 28 6 32
BITMAP
001F0000
001F0000
001F0000
001F0000
000F0000
000F0080
380F0180
3C0F07C0
7F0F0FC0
FF8E3FE0
3FEE7F80
0FFFFE00
03FFF800
00FFE000
003FC000
00FFF000
03FFFC00
1FFEFF00
7FCE7FC0
7F8F1FE0
7E0F0FC0
3C0F03C0
300F0180
000F0000
001F0000
001F0000
001F0000
001F0000
ENDCHAR
STARTCHAR 002B
ENCODING 43
SWIDTH 578 0
DWIDTH 45 0
BBX 31 31 7 9
BITMAP
0007C000
0007C000
0007C000
0007C000
0007C000
0007C000
0007C000
0007C000
0007C000
0007C000
0007C000
0007C000
0007C000
FFFFFFFE
FFFFFFFE
FFFFFFFE
FFFFFFFE
FFFFFFFE
FFFFFFFE
0007C000
0007C000
0007C000
0007C000
0007C000
0007C000
0007C000
0007C000
0007C000
0007C000
0007C000
0007C000
ENDCHAR
STARTCHAR 002C
ENCODING 44
SWIDTH 282 0
DWIDTH 22 0
BBX 10 20 6 -13
BITMAP
3E00
7F80
FF80
FFC0
FFC0
FFC0
FFC0
7FC0
0FC0
03C0
03C0
03C0
03C0
03C0
0380
0780
0F00
3E00
3C00
3000
ENDCHAR
STARTCHAR 002D
ENCODING 45
SWIDTH 591 0
DWIDTH 46 0
BBX 29 5 9 22
BITMAP
FFFFFFF8
FFFFFFF8
FFFFFFF8
FFFFFFF8
FFFFFFF8
ENDCHAR
STARTCHAR 002E
ENCODING 46
SWIDTH 270 0
DWIDTH 21 0
BBX 9 9 6 -1
BITMAP
3F00
7F00
FF80
FF80
FF80
FF80
7F00
3E00
0800
ENDCHAR
STARTCHAR 002F
ENCODING 47
SWIDTH 501 0
DWIDTH 39 0
BBX 33 74 4 -12
BITMAP
0000001F80
0000003F80
0000003F80
0000003F00
0000007F00
0000007F00
0000007E00
000000FE00
000000FC00
000000FC00
000001FC00
000001F800
000003F800
000003F800
000003F000
000007F000
000007F000
000007E000
00000FE000
00000FC000
00000FC000
00001FC000
00001F8000
00003F8000
00003F8000
00003F0000
00007F0000
00007F0000
00007E0000
0000FE0000
0000FC0000
0000FC0000
0001FC0000
0001F80000
0003F80000
0003F80000
0003F00000
0007F00000
0007F00000
0007E00000
000FE00000
000FE00000
000FC00000
001FC00000
001F800000
001F800000
003F800000
003F000000
007F000000
007F000000
007E000000
00FE000000
00FE000000
00FC000000
01FC000000
01F8000000
01F8000000
03F8000000
03F0000000
07F0000000
07F0000000
07E0000000
0FE0000000
0FE0000000
0FC0000000
1FC0000000
1FC0000000
1F80000000
3F80000000
3F00000000
3F00000000
7F00000000
7E00000000
FE00000000
ENDCHAR
STARTCHAR 0030
ENCODING 48
SWIDTH 604 0
DWIDTH 47 0
BBX 39 57 4 -1
BITMAP
0000380000
0007FFC000
003FFFF800
007FFFFC00
01FFFFFF00
03FFFFFF80
07FFC7FFC0
07FC007FC0
0FF8003FE0
1FF0001FF0
1FE0000FF0
3FC00007F8
3F800007F8
3F800003F8
7F800003FC
7F000001FC
7F000001FC
7F000001FC
FF000001FC
FF000001FE
FE000001FE
FE000000FE
FE000000FE
FE000000FE
FE000000FE
FE000000FE
FE000000FE
FE000000FE
FE000000FE
FE000000FE
FE000000FE
FE000000FE
FE000000FE
FE000000FE
FE000000FE
FE000000FE
FE000001FE
FE000001FE
FF000001FE
7F000001FC
7F000001FC
7F000001FC
7F800003FC
3F800003F8
3F800003F8
3FC00007F8
1FE0000FF0
1FE0000FF0
0FF0003FE0
0FFC007FC0
07FF01FFC0
03FFFFFF80
01FFFFFF00
00FFFFFE00
003FFFF800
000FFFE000
0001FE0000
ENDCHAR
STARTCHAR 0031
ENCODING 49
SWIDTH 488 0
DWIDTH 38 0
BBX 28 54 7 0
BITMAP
003FC000
007FC000
00FFC000
01FFC000
03FFC000
07FFC000
0FFFC000
1FFFC000
3FCFC000
7F8FC000
FF0FC000
FE0FC000
FC0FC000
F80FC000
F00FC000
E00FC000
C00FC000
800FC000
000FC000
000FC000
000FC000
000FC000
000FC000
000FC000
000FC000
000FC000
000FC000
000FC000
000FC000
000FC000
000FC000
000FC000
000FC000
000FC000
000FC000
000FC000
000FC000
000FC000
000FC000
000FC000
000FC000
000FC000
000FC000
000FC000
000FC000
000FC000
000FC000
000FC000
FFFFFFF0
FFFFFFF0
FFFFFFF0
FFFFFFF0
FFFFFFF0
FFFFFFF0
ENDCHAR
STARTCHAR 0032
ENCODING 50
SWIDTH 578 0
DWIDTH 45 0
BBX 35 56 6 0
BITMAP
0001F00000
001FFF8000
00FFFFE000
01FFFFF800
07FFFFFC00
0FFFFFFE00
0FFE0FFF00
1FF001FF00
3FC0007F80
3F80003F80
7F00001FC0
7F00001FC0
7F00000FC0
FE00000FE0
FE00000FE0
FE00000FE0
FE00000FE0
FE00000FE0
0000000FE0
0000000FE0
0000000FE0
0000000FC0
0000001FC0
0000001FC0
0000003F80
0000003F80
0000007F00
000000FF00
000001FE00
000003FC00
000007F800
00000FF800
00001FF000
00003FE000
00007FC000
0000FF8000
0001FF0000
0003FC0000
000FF80000
001FF00000
003FE00000
007FC00000
00FF800000
01FF000000
03FE000000
07F8000000
0FF0000000
3FE0000000
7FC0000000
FF80000000
FFFFFFFFE0
FFFFFFFFE0
FFFFFFFFE0
FFFFFFFFE0
FFFFFFFFE0
FFFFFFFFE0
ENDCHAR
STARTCHAR 0033
ENCODING 51
SWIDTH 578 0
DWIDTH 45 0
BBX 37 57 5 -1
BITMAP
0001FC0000
001FFFC000
00FFFFF000
01FFFFFC00
03FFFFFE00
07FFFFFF00
0FFE03FF80
1FF0007FC0
1FE0003FC0
3FC0001FE0
3F80000FE0
3F00000FE0
7F000007F0
7F000007F0
00000007F0
00000007F0
00000007F0
00000007F0
00000007F0
00000007E0
0000000FE0
0000000FE0
0000001FC0
0000007F80
000001FF00
0007FFFE00
0007FFFC00
0007FFF000
0007FFF000
0007FFFE00
00003FFF00
000000FF80
0000003FC0
0000001FE0
0000000FE0
00000007F0
00000007F0
00000003F0
00000003F0
00000003F8
00000003F8
00000003F8
00000003F8
FE000003F0
FE000007F0
7F000007F0
7F80000FF0
7FC0001FE0
3FE0003FE0
1FF800FFC0
1FFF9FFFC0
0FFFFFFF80
07FFFFFF00
01FFFFFC00
00FFFFF800
001FFFC000
0000780000
ENDCHAR
STARTCHAR 0034
ENCODING 52
SWIDTH 591 0
DWIDTH 46 0
BBX 39 54 4 0
BITMAP
000003FE00
000007FE00
000007FE00
00000FFE00
00001FFE00
00001FFE00
00003FFE00
00007FFE00
00007F7E00
0000FE7E00
0001FE7E00
0001FC7E00
0003F87E00
0007F87E00
0007F07E00
000FE07E00
001FE07E00
001FC07E00
003F807E00
007F807E00
007F007E00
00FE007E00
01FE007E00
01FC007E00
03F8007E00
07F0007E00
07F0007E00
0FE0007E00
1FC0007E00
1FC0007E00
3F80007E00
3F00007E00
7F00007E00
FE00007E00
FC00007E00
FFFFFFFFFE
FFFFFFFFFE
FFFFFFFFFE
FFFFFFFFFE
FFFFFFFFFE
0FBFFFFFFE
0000007E00
0000007E00
0000007E00
0000007E00
0000007E00
0000007E00
0000007E00
0000007E00
0000007E00
0000007E00
0000007E00
0000007E00
0000007E00
ENDCHAR
STARTCHAR 0035
ENCODING 53
SWIDTH 591 0
DWIDTH 46 0
BBX 37 54 6 0
BITMAP
3FFFFFFF80
3FFFFFFF80
3FFFFFFF80
3FFFFFFF80
3FFFFFFF80
3FFFFFFF80
3F00000000
3F00000000
3F00000000
3F00000000
3E00000000
7E00000000
7E00000000
7E00000000
7E00000000
7E00000000
7E00000000
7E00FE0000
7E07FFE000
7E1FFFF800
7E7FFFFC00
7EFFFFFE00
7EFF9FFF00
7FF001FF80
7FE0007FC0
7FC0001FE0
7F80001FE0
7F00000FE0
7F000007F0
00000007F0
00000007F0
00000003F8
00000003F8
00000003F8
00000003F8
00000003F8
00000003F8
00000003F8
00000003F8
00000003F0
FE000007F0
FE000007F0
FF00000FF0
7F00000FE0
7F80001FE0
3FC0003FC0
3FE0007FC0
1FFC01FF80
0FFFFFFF00
07FFFFFE00
03FFFFFC00
00FFFFF800
003FFFE000
000FFF0000
ENDCHAR
STARTCHAR 0036
ENCODING 54
SWIDTH 578 0
DWIDTH 45 0
BBX 37 55 4 -1
BITMAP
00003F8000
00007F0000
0000FE0000
0000FC0000
0001FC0000
0003F80000
0007F00000
0007F00000
000FE00000
001FC00000
001FC00000
003F800000
007F000000
007F000000
00FE000000
01FC000000
01FC000000
03F8000000
03F0000000
07F07F0000
0FE3FFF000
0FCFFFFC00
1FDFFFFE00
1FBFFFFF00
1F7F8FFF80
3FF800FFC0
3FF0003FE0
7FE0001FE0
7FC0000FF0
7F800007F0
7F000007F8
7F000003F8
7E000003F8
FE000001F8
FE000001F8
FE000001F8
FE000001F8
FE000001F8
7E000001F8
7E000001F8
7E000001F8
7F000003F8
7F000003F8
3F800007F0
3F800007F0
1FC0000FE0
1FE0001FE0
0FF8007FC0
07FE01FFC0
03FFFFFF80
01FFFFFE00
00FFFFFC00
003FFFF000
000FFFC000
0000380000
ENDCHAR
STARTCHAR 0037
ENCODING 55
SWIDTH 501 0
DWIDTH 39 0
BBX 35 54 2 0
BITMAP
FFFFFFFFE0
FFFFFFFFE0
FFFFFFFFE0
FFFFFFFFE0
FFFFFFFFE0
FFFFFFFFE0
0000000FE0
0000001FC0
0000001FC0
0000003F80
0000003F80
0000003F00
0000007F00
0000007E00
000000FE00
000000FE00
000001FC00
000001FC00
000003F800
000003F800
000003F000
000007F000
000007F000
00000FE000
00000FE000
00001FC000
00001FC000
00003F8000
00003F8000
00003F8000
00007F0000
00007F0000
0000FE0000
0000FE0000
0001FC0000
0001FC0000
0003FC0000
0003F80000
0003F80000
0007F00000
0007F00000
000FE00000
000FE00000
001FC00000
001FC00000
003FC00000
003F800000
003F800000
007F000000
007F000000
00FE000000
00FE000000
01FE000000
01FC000000
ENDCHAR
STARTCHAR 0038
ENCODING 56
SWIDTH 604 0
DWIDTH 47 0
BBX 38 57 5 -1
BITMAP
0000300000
000FFFC000
003FFFF000
00FFFFFC00
01FFFFFE00
03FFFFFF00
07FF03FF80
0FF8007FC0
1FE0001FE0
1FC0000FE0
3F80000FE0
3F800007F0
3F800007F0
3F000003F0
3F000003F0
3F000003F0
3F000003F0
3F000003F0
3F000003F0
3F800007F0
3F800007E0
1FC0000FE0
0FE0001FC0
0FF0003FC0
07FC00FF80
03FFFFFF00
01FFFFFC00
007FFFF800
01FFFFFE00
07FFFFFF00
0FF8007FC0
1FE0001FE0
3FC0000FE0
3F800007F0
7F000003F8
7E000001F8
FE000001FC
FE000001FC
FC000000FC
FC000000FC
FC000000FC
FC000000FC
FC000001FC
FE000001FC
FE000001FC
FE000003FC
FF000003F8
7F800007F8
7FC0000FF8
3FF0003FF0
1FFC00FFE0
0FFFFFFFC0
07FFFFFF80
03FFFFFF00
00FFFFFC00
003FFFF000
0003FF0000
ENDCHAR
STARTCHAR 0039
ENCODING 57
SWIDTH 578 0
DWIDTH 45 0
BBX 37 56 4 0
BITMAP
0000200000
000FFF8000
003FFFF000
00FFFFFC00
01FFFFFE00
07FFFFFF00
0FFE03FF80
0FF8007FC0
1FE0003FE0
3FC0000FE0
3F80000FF0
3F800007F0
7F000003F0
7F000003F8
7E000003F8
7E000001F8
FE000001F8
FE000001F8
FE000001F8
FE000001F8
7E000001F8
7E000001F8
7E000003F8
7F000003F8
7F000003F8
3F800007F8
3FC0000FF8
3FC0000FF0
1FF0003FF0
0FF8007FF0
0FFF01FFE0
07FFFFFFE0
03FFFFFFE0
00FFFFCFC0
003FFF9FC0
000FFC3F80
0000003F00
0000007F00
000000FE00
000000FE00
000001FC00
000003F800
000003F800
000007F000
00000FE000
00000FE000
00001FC000
00003F8000
00007F8000
00007F0000
0000FE0000
0001FE0000
0001FC0000
0003F80000
0007F80000
0007F00000
ENDCHAR
STARTCHAR 003A
ENCODING 58
SWIDTH 282 0
DWIDTH 22 0
BBX 9 41 6 -1
BITMAP
0800
7E00
FF00
FF00
FF80
FF80
FF00
FF00
7E00
0000
0000
0000
0000
0000
0000
0000
0000
0000
0000
0000
0000
0000
0000
0000
0000
0000
0000
0000
0000
0000
0000
0000
0000
7E00
FF00
FF00
FF80
FF80
FF00
FF00
7E00
ENDCHAR
STARTCHAR 003B
ENCODING 59
SWIDTH 308 0
DWIDTH 24 0
BBX 10 53 7 -12
BITMAP
0C00
7F00
7F00
FF80
FF80
FF80
FF80
7F00
3E00
0000
0000
0000
0000
0000
0000
0000
0000
0000
0000
0000
0000
0000
0000
0000
0000
0000
0000
0000
0000
0000
0000
0000
0000
3E00
7F80
FF80
FFC0
FFC0
FFC0
FFC0
7FC0
07C0
03C0
03C0
03C0
03C0
0380
0780
0700
1F00
3E00
3C00
3000
ENDCHAR
STARTCHAR 003C
ENCODING 60
SWIDTH 565 0
DWIDTH 44 0
BBX 28 35 8 8
BITMAP
00000010
00000070
000001F0
000003F0
00000FF0
00003FF0
0000FFF0
0003FFC0
000FFF00
003FFC00
007FF000
01FFC000
07FF0000
1FFC0000
7FF00000
FFC00000
FF000000
FE000000
FF000000
FFC00000
7FF00000
1FFC0000
07FF0000
01FFC000
007FF000
003FFC00
000FFF00
0003FFC0
0000FFF0
00003FF0
00000FF0
000007F0
000001F0
00000070
00000010
ENDCHAR
STARTCHAR 003D
ENCODING 61
SWIDTH 707 0
DWIDTH 55 0
BBX 37 23 9 13
BITMAP
FFFFFFFFF8
FFFFFFFFF8
FFFFFFFFF8
FFFFFFFFF8
FFFFFFFFF8
FFFFFFFFF8
0000000000
0000000000
0000000000
0000000000
0000000000
0000000000
0000000000
0000000000
0000000000
0000000000
0000000000
FFFFFFFFF8
FFFFFFFFF8
FFFFFFFFF8
FFFFFFFFF8
FFFFFFFFF8
FFFFFFFFF8
ENDCHAR
STARTCHAR 003E
ENCODING 62
SWIDTH 565 0
DWIDTH 44 0
BBX 28 35 8 8
BITMAP
80000000
E0000000
F8000000
FE000000
FF000000
FFC00000
FFF00000
3FFC0000
0FFF0000
03FFC000
00FFF000
003FF800
000FFE00
0003FF80
0000FFE0
00003FF0
00000FF0
000007F0
00000FF0
00003FF0
0000FFE0
0003FF80
000FFE00
003FF800
00FFF000
03FFC000
0FFF0000
3FFC0000
FFF00000
FFC00000
FF800000
FE000000
F8000000
E0000000
80000000
ENDCHAR
STARTCHAR 003F
ENCODING 63
SWIDTH 565 0
DWIDTH 44 0
BBX 36 57 5 -1
BITMAP
0001F80000
001FFF8000
00FFFFF000
01FFFFF800
07FFFFFE00
0FFFFFFF00
1FFFFFFF00
1FF801FF80
3FE0007FC0
7FC0003FC0
7F80001FE0
7F00000FE0
FF00000FE0
FE000007E0
FE000007F0
FE000007F0
FE000007F0
FC000007F0
00000007E0
0000000FE0
0000000FE0
0000001FC0
0000001FC0
0000003F80
0000007F80
000000FF00
000001FE00
000003FC00
000007F800
00000FF000
00001FE000
00003FC000
00007F8000
0000FF0000
0000FE0000
0001FC0000
0001FC0000
0003F80000
0003F80000
0003F00000
0003F00000
0003F00000
0000000000
0000000000
0000000000
0000000000
0000000000
0000000000
0001E00000
0003F00000
0007F80000
0007F80000
0007F80000
0007F80000
0007F80000
0003F00000
0000C00000
ENDCHAR
STARTCHAR 0040
ENCODING 64
SWIDTH 1002 0
DWIDTH 78 0
BBX 68 68 5 -13
BITMAP
0000003FFFE0000000
000001FFFFFE000000
00000FFFFFFF800000
00003FFFFFFFE00000
0000FFFFFFFFF80000
0003FFF0007FFE0000
0007FF000007FF0000
000FF8000000FF8000
003FE00000003FE000
007FC00000001FF000
007F0000000007F800
00FE0000000003F800
01FC0000000001FC00
03F80000000000FE00
03F000000000007F00
07E000000000003F00
0FE000000000001F80
0FC000020000001F80
1F80007FF0FC000FC0
1F8000FFF8FC000FC0
1F0001FFFEFC0007C0
3F0003FFFEFC0007E0
3F0007F81FFC0003E0
3E000FE007FC0003E0
7E000FC003FC0003F0
7E001F8001FC0003F0
7E001F8001FC0001F0
7C003F0000FC0001F0
7C003F0000FC0001F0
7C003F0000FC0001F0
7C003F0000FC0001F0
FC003E00007C0001F0
FC003E00007C0001F0
FC003E00007C0001F0
FC003E00007C0001F0
FC003E00007C0001F0
7C003F0000FC0001F0
7C003F0000FC0003E0
7C003F0000FC0003E0
7C003F0000FE0003E0
7E001F8001FE0007C0
7E001F8001FE0007C0
7E000FC003BF000F80
3E000FE0079F801F80
3F0007F81F9FC07F00
3F0007FFFF0FFFFE00
3F0003FFFE07FFFC00
1F8000FFFC03FFF000
1F80007FF800FFC000
0FC0000FC0000C0000
0FC000000000000000
07E000000000000000
07F000000000000000
03F800000000000000
01FC00000000000000
01FE00000000000000
00FF00000000000000
007F80000000000000
003FE0000000000000
001FF8000000000000
000FFE000000000000
0003FFC00000000000
0001FFFF8000000000
00007FFFFFFFFF0000
00001FFFFFFFFF0000
000007FFFFFFFF0000
000000FFFFFFFF0000
00000003FFFFFF0000
ENDCHAR
STARTCHAR 0041
ENCODING 65
SWIDTH 668 0
DWIDTH 52 0
BBX 47 54 3 0
BITMAP
00000FE00000
00000FE00000
00001FF00000
00001FF00000
00003FF80000
00003FF80000
00003FF80000
00007FFC0000
00007EFC0000
0000FEFC0000
0000FCFE0000
0000FC7E0000
0001FC7F0000
0001F83F0000
0001F83F0000
0003F83F8000
0003F01F8000
0007F01F8000
0007E01FC000
0007E00FC000
000FE00FE000
000FC00FE000
000FC007E000
001FC007F000
001F8003F000
003F8003F000
003F8003F800
003F0001F800
007F0001FC00
007F0001FC00
007E0000FC00
00FE0000FE00
00FC00007E00
01FFFFFFFE00
01FFFFFFFF00
01FFFFFFFF00
03FFFFFFFF80
03FFFFFFFF80
03F000001F80
07F000001FC0
07F000001FC0
0FE000000FE0
0FE000000FE0
0FC0000007E0
1FC0000007F0
1FC0000007F0
1F80000003F0
3F80000003F8
3F80000003F8
7F00000001FC
7F00000001FC
7F00000001FC
FE00000000FE
FE00000000FE
ENDCHAR
STARTCHAR 0042
ENCODING 66
SWIDTH 617 0
DWIDTH 48 0
BBX 39 54 6 0
BITMAP
FFFFFFF000
FFFFFFFC00
FFFFFFFF00
FFFFFFFF80
FFFFFFFFC0
FC0001FFE0
FC00003FE0
FC00000FF0
FC000007F0
FC000007F0
FC000003F8
FC000003F8
FC000003F8
FC000003F8
FC000003F8
FC000003F8
FC000003F8
FC000003F0
FC000003F0
FC000007E0
FC00000FE0
FC00001FC0
FC00007F80
FFFFFFFF00
FFFFFFFC00
FFFFFFF000
FFFFFFFE00
FFFFFFFF80
FFFFFFFFE0
FC00003FF0
FC000007F8
FC000003FC
FC000001FC
FC000000FE
FC000000FE
FC0000007E
FC0000007E
FC0000007E
FC0000007E
FC0000007E
FC0000007E
FC0000007E
FC000000FE
FC000000FE
FC000001FC
FC000003FC
FC000007F8
FC00001FF8
FFFFFFFFF0
FFFFFFFFE0
FFFFFFFFC0
FFFFFFFF00
FFFFFFFE00
FFFFFFF000
ENDCHAR
STARTCHAR 0043
ENCODING 67
SWIDTH 707 0
DWIDTH 55 0
BBX 48 57 4 -1
BITMAP
000003C00000
00007FFF8000
0003FFFFE000
000FFFFFF800
001FFFFFFE00
003FFFFFFF00
00FFFF7FFF80
01FFE001FFC0
01FF00007FE0
03FE00001FF0
07FC00000FF0
0FF8000007F8
0FF0000003F8
1FE0000001FC
1FC0000001FC
1FC0000000FE
3FC0000000FE
3F800000007E
3F800000007F
7F000000007F
7F0000000000
7F0000000000
7F0000000000
7F0000000000
FF0000000000
FE0000000000
FE0000000000
FE0000000000
FE0000000000
FE0000000000
FE0000000000
FE0000000000
FF0000000000
7F0000000000
7F0000000000
7F0000000000
7F0000000000
7F0000000000
3F8000000000
3F800000007E
3FC0000000FE
1FC0000000FE
1FE0000001FC
1FE0000001FC
0FF0000003F8
0FF8000007F8
07FC00000FF0
03FE00001FE0
01FF80007FE0
00FFE001FFC0
00FFFFFFFF80
003FFFFFFF00
001FFFFFFC00
0007FFFFF800
0003FFFFE000
00007FFF0000
000000A00000
ENDCHAR
STARTCHAR 0044
ENCODING 68
SWIDTH 681 0
DWIDTH 53 0
BBX 44 54 6 0
BITMAP
FFFFFFE00000
FFFFFFFC0000
FFFFFFFF0000
FFFFFFFFC000
FFFFFFFFE000
FFFFFFFFF000
FC00007FF800
FC00001FFC00
FC000007FE00
FC000003FE00
FC000001FF00
FC000000FF80
FC0000007F80
FC0000003FC0
FC0000003FC0
FC0000001FC0
FC0000001FE0
FC0000000FE0
FC0000000FE0
FC0000000FE0
FC0000000FF0
FC00000007F0
FC00000007F0
FC00000007F0
FC00000007F0
FC00000007F0
FC00000007F0
FC00000007F0
FC00000007F0
FC00000007F0
FC00000007F0
FC00000007F0
FC0000000FF0
FC0000000FE0
FC0000000FE0
FC0000000FE0
FC0000001FE0
FC0000001FC0
FC0000001FC0
FC0000003FC0
FC0000007F80
FC0000007F80
FC000000FF00
FC000001FF00
FC000003FE00
FC00000FFC00
FC00003FFC00
FC0003FFF800
FFFFFFFFF000
FFFFFFFFC000
FFFFFFFF8000
FFFFFFFE0000
FFFFFFF80000
FFFFFF800000
ENDCHAR
STARTCHAR 0045
ENCODING 69
SWIDTH 565 0
DWIDTH 44 0
BBX 33 54 6 0
BITMAP
FFFFFFFF80
FFFFFFFF80
FFFFFFFF80
FFFFFFFF80
FFFFFFFF80
FFFFFFFF80
FE00000000
FE00000000
FE00000000
FE00000000
FE00000000
FE00000000
FE00000000
FE00000000
FE00000000
FE00000000
FE00000000
FE00000000
FE00000000
FE00000000
FE00000000
FE00000000
FE00000000
FE00000000
FFFFFFFC00
FFFFFFFC00
FFFFFFFC00
FFFFFFFC00
FFFFFFFC00
FE00000000
FE00000000
FE00000000
FE00000000
FE00000000
FE00000000
FE00000000
FE00000000
FE00000000
FE00000000
FE00000000
FE00000000
FE00000000
FE00000000
FE00000000
FE00000000
FE00000000
FE00000000
FE00000000
FFFFFFFF80
FFFFFFFF80
FFFFFFFF80
FFFFFFFF80
FFFFFFFF80
FFFFFFFF80
ENDCHAR
STARTCHAR 0046
ENCODING 70
SWIDTH 514 0
DWIDTH 40 0
BBX 32 54 6 0
BITMAP
FFFFFFFF
FFFFFFFF
FFFFFFFF
FFFFFFFF
FFFFFFFF
FFFFFFFF
FE000000
FE000000
FE000000
FE000000
FE000000
FE000000
FE000000
FE000000
FE000000
FE000000
FE000000
FE000000
FE000000
FE000000
FE000000
FE000000
FE000000
FE000FF8
FFFFFFF8
FFFFFFF8
FFFFFFF8
FFFFFFF8
FFFFFFF8
FE000000
FE000000
FE000000
FE000000
FE000000
FE000000
FE000000
FE000000
FE000000
FE000000
FE000000
FE000000
FE000000
FE000000
FE000000
FE000000
FE000000
FE000000
FE000000
FE000000
FE000000
FE000000
FE000000
FE000000
FE000000
ENDCHAR
STARTCHAR 0047
ENCODING 71
SWIDTH 707 0
DWIDTH 55 0
BBX 47 57 4 -1
BITMAP
000001C00000
00007FFF0000
0003FFFFE000
000FFFFFF800
001FFFFFFC00
007FFFFFFE00
00FFFFFFFF00
01FFC001FF80
03FF00007FC0
03FE00003FE0
07F800001FF0
0FF000000FF0
0FF0000007F8
1FE0000003F8
1FC0000003FC
3FC0000001FC
3F80000001FC
3F80000000FE
7F0000000000
7F0000000000
7F0000000000
7F0000000000
7E0000000000
FE0000000000
FE0000000000
FE0000000000
FE0000000000
FE0000000000
FE00007FFFFE
FE00007FFFFE
FE00007FFFFE
FE00007FFFFE
FE00007FFFFE
FE000000007E
7E00000000FE
7F00000000FE
7F00000000FE
7F00000000FE
7F00000000FE
3F80000000FE
3F80000000FE
3FC0000001FE
1FC0000001FE
1FE0000003FE
0FE0000003FE
0FF0000007FE
07F800000FFE
03FC00001FFE
03FF00003F7E
01FFC000FE7E
00FFF80FFE7E
007FFFFFFC7E
003FFFFFF07E
000FFFFFE07E
0003FFFF807E
0000FFFE007E
000001C00000
ENDCHAR
STARTCHAR 0048
ENCODING 72
SWIDTH 668 0
DWIDTH 52 0
BBX 41 54 6 0
BITMAP
FE0000003F80
FE0000003F80
FE0000003F80
FE0000003F80
FE0000003F80
FE0000003F80
FE0000003F80
FE0000003F80
FE0000003F80
FE0000003F80
FE0000003F80
FE0000003F80
FE0000003F80
FE0000003F80
FE0000003F80
FE0000003F80
FE0000003F80
FE0000003F80
FE0000003F80
FE0000003F80
FE0000003F80
FE0000003F80
FE0000003F80
FE0000003F80
FFFFFFFFFF80
FFFFFFFFFF80
FFFFFFFFFF80
FFFFFFFFFF80
FFFFFFFFFF80
FE0000003F80
FE0000003F80
FE0000003F80
FE0000003F80
FE0000003F80
FE0000003F80
FE0000003F80
FE0000003F80
FE0000003F80
FE0000003F80
FE0000003F80
FE0000003F80
FE0000003F80
FE0000003F80
FE0000003F80
FE0000003F80
FE0000003F80
FE0000003F80
FE0000003F80
FE0000003F80
FE0000003F80
FE0000003F80
FE0000003F80
FE0000003F80
FE0000003F80
ENDCHAR
STARTCHAR 0049
ENCODING 73
SWIDTH 231 0
DWIDTH 18 0
BBX 7 54 6 0
BITMAP
FE
FE
FE
FE
FE
FE
FE
FE
FE
FE
FE
FE
FE
FE
FE
FE
FE
FE
FE
FE
FE
FE
FE
FE
FE
FE
FE
FE
FE
FE
FE
FE
FE
FE
FE
FE
FE
FE
FE
FE
FE
FE
FE
FE
FE
FE
FE
FE
FE
FE
FE
FE
FE
FE
ENDCHAR
STARTCHAR 004A
ENCODING 74
SWIDTH 334 0
DWIDTH 26 0
BBX 16 54 4 0
BITMAP
003F
003F
003F
003F
003F
003F
003F
003F
003F
003F
003F
003F
003F
003F
003F
003F
003F
003F
003F
003F
003F
003F
003F
003F
003F
003F
003F
003F
003F
003F
003F
003F
003F
003F
003F
003F
003F
003F
003F
003F
003F
003F
003F
003F
007F
007F
007F
00FF
01FE
FFFE
FFFC
FFFC
FFF8
FFC0
ENDCHAR
STARTCHAR 004B
ENCODING 75
SWIDTH 617 0
DWIDTH 48 0
BBX 38 54 6 0
BITMAP
FC00000FF0
FC00001FE0
FC00003FC0
FC00007F80
FC0000FF00
FC0001FE00
FC0003FC00
FC0007F800
FC000FF000
FC001FE000
FC001FE000
FC003FC000
FC007F8000
FC00FF0000
FC01FE0000
FC03FC0000
FC07F80000
FC0FF00000
FC1FE00000
FC3FC00000
FC3F800000
FC7F000000
FCFF000000
FDFE000000
FFFF000000
FFFF800000
FFFFC00000
FFFFC00000
FFDFE00000
FF8FF00000
FF87F80000
FF03F80000
FE03FC0000
FC01FE0000
FC00FF0000
FC007F0000
FC007F8000
FC003FC000
FC001FE000
FC000FE000
FC000FF000
FC0007F800
FC0003FC00
FC0001FC00
FC0001FE00
FC0000FF00
FC00007F80
FC00003F80
FC00003FC0
FC00001FE0
FC00000FF0
FC00000FF0
FC000007F8
FC000003FC
ENDCHAR
STARTCHAR 004C
ENCODING 76
SWIDTH 527 0
DWIDTH 41 0
BBX 32 54 6 0
BITMAP
FE000000
FE000000
FE000000
FE000000
FE000000
FE000000
FE000000
FE000000
FE000000
FE000000
FE000000
FE000000
FE000000
FE000000
FE000000
FE000000
FE000000
FE000000
FE000000
FE000000
FE000000
FE000000
FE000000
FE000000
FE000000
FE000000
FE000000
FE000000
FE000000
FE000000
FE000000
FE000000
FE000000
FE000000
FE000000
FE000000
FE000000
FE000000
FE000000
FE000000
FE000000
FE000000
FE000000
FE000000
FE000000
FE000000
FE000000
FE000000
FFFFFFFF
FFFFFFFF
FFFFFFFF
FFFFFFFF
FFFFFFFF
FFFFFFFF
ENDCHAR
STARTCHAR 004D
ENCODING 77
SWIDTH 822 0
DWIDTH 64 0
BBX 52 54 6 0
BITMAP
FFC00000003FF0
FFC00000003FF0
FFE00000007FF0
FFE00000007FF0
FFF0000000FFF0
FFF0000000FFF0
FFF0000000FFF0
FFF8000001FFF0
FFF8000001FFF0
FFFC000003FFF0
FDFC000003FBF0
FDFC000003FBF0
FCFE000007F3F0
FCFE000007F3F0
FCFF00000FF3F0
FC7F00000FE3F0
FC7F00000FE3F0
FC3F80001FC3F0
FC3F80001FC3F0
FC3F80001FC3F0
FC1FC0003F83F0
FC1FC0003F83F0
FC0FE0007F03F0
FC0FE0007F03F0
FC0FE0007F03F0
FC07F000FE03F0
FC07F000FE03F0
FC07F801FE03F0
FC03F801FC03F0
FC03F801FC03F0
FC01FC03F803F0
FC01FC03F803F0
FC01FE03F803F0
FC00FE07F003F0
FC00FE07F003F0
FC007F0FE003F0
FC007F0FE003F0
FC007F0FE003F0
FC003F9FC003F0
FC003F9FC003F0
FC003FFFC003F0
FC001FFF8003F0
FC001FFF8003F0
FC000FFF0003F0
FC000FFF0003F0
FC000FFF0003F0
FC0007FE0003F0
FC0007FE0003F0
FC0007FC0003F0
FC0003FC0003F0
FC0003FC0003F0
FC0001F80003F0
FC0001F80003F0
FC0001F80003F0
ENDCHAR
STARTCHAR 004E
ENCODING 78
SWIDTH 707 0
DWIDTH 55 0
BBX 43 54 6 0
BITMAP
FF00000007E0
FF80000007E0
FF80000007E0
FFC0000007E0
FFE0000007E0
FFE0000007E0
FFF0000007E0
FFF8000007E0
FFF8000007E0
FFFC000007E0
FFFE000007E0
FDFE000007E0
FCFF000007E0
FCFF800007E0
FC7F800007E0
FC3FC00007E0
FC1FE00007E0
FC1FE00007E0
FC0FF00007E0
FC07F80007E0
FC07F80007E0
FC03FC0007E0
FC01FE0007E0
FC01FE0007E0
FC00FF0007E0
FC007F8007E0
FC007F8007E0
FC003FC007E0
FC001FE007E0
FC001FE007E0
FC000FF007E0
FC0007F807E0
FC0007F807E0
FC0003FC07E0
FC0001FE07E0
FC0001FE07E0
FC0000FF07E0
FC00007F87E0
FC00007F87E0
FC00003FC7E0
FC00001FE7E0
FC00001FE7E0
FC00000FF7E0
FC000007FFE0
FC000007FFE0
FC000003FFE0
FC000001FFE0
FC000001FFE0
FC000000FFE0
FC0000007FE0
FC0000007FE0
FC0000003FE0
FC0000001FE0
FC0000001FE0
ENDCHAR
STARTCHAR 004F
ENCODING 79
SWIDTH 732 0
DWIDTH 57 0
BBX 49 57 4 -1
BITMAP
000001C0000000
00007FFF000000
0003FFFFE00000
000FFFFFF80000
001FFFFFFC0000
007FFFFFFF0000
00FFFFFFFF8000
01FFE003FFC000
03FF80007FE000
03FE00003FF000
07FC00001FF000
0FF800000FF800
0FF0000007F800
1FE0000003FC00
1FC0000001FC00
3FC0000001FE00
3F80000000FE00
3F80000000FE00
7F80000000FF00
7F000000007F00
7F000000007F00
7F000000007F00
FF000000003F80
FE000000003F80
FE000000003F80
FE000000003F80
FE000000003F80
FE000000003F80
FE000000003F80
FE000000003F80
FE000000003F80
FE000000003F80
FE000000003F80
FE000000003F80
FF000000003F80
7F000000007F00
7F000000007F00
7F000000007F00
7F80000000FF00
3F80000000FF00
3F80000000FE00
3FC0000001FE00
1FE0000001FC00
1FE0000003FC00
0FF0000007F800
0FF800000FF800
07FC00001FF000
07FE00003FF000
03FF8000FFE000
01FFE003FFC000
00FFFFFFFF8000
007FFFFFFF0000
001FFFFFFE0000
000FFFFFF80000
0003FFFFE00000
00007FFF000000
000002A0000000
ENDCHAR
STARTCHAR 0050
ENCODING 80
SWIDTH 578 0
DWIDTH 45 0
BBX 37 54 6 0
BITMAP
FFFFFF8000
FFFFFFF000
FFFFFFFC00
FFFFFFFE00
FFFFFFFF00
FFFFFFFF80
FC0001FFC0
FC00003FE0
FC00001FE0
FC00000FF0
FC000007F0
FC000007F0
FC000003F8
FC000003F8
FC000003F8
FC000001F8
FC000001F8
FC000001F8
FC000001F8
FC000001F8
FC000003F8
FC000003F8
FC000003F8
FC000007F0
FC000007F0
FC00000FF0
FC00001FE0
FC00003FE0
FC0001FFC0
FFFFFFFF80
FFFFFFFF00
FFFFFFFE00
FFFFFFF800
FFFFFFE000
FFFFFF8000
FC00000000
FC00000000
FC00000000
FC00000000
FC00000000
FC00000000
FC00000000
FC00000000
FC00000000
FC00000000
FC00000000
FC00000000
FC00000000
FC00000000
FC00000000
FC00000000
FC00000000
FC00000000
FC00000000
ENDCHAR
STARTCHAR 0051
ENCODING 81
SWIDTH 720 0
DWIDTH 56 0
BBX 49 60 4 -4
BITMAP
000001C0000000
00007FFF000000
0003FFFFE00000
000FFFFFF80000
001FFFFFFC0000
007FFFFFFF0000
00FFFFFFFF8000
01FFE003FFC000
03FF80007FE000
03FE00003FF000
07FC00001FF000
0FF800000FF800
0FF0000007F800
1FE0000003FC00
1FC0000001FC00
3FC0000001FE00
3F80000000FE00
3F80000000FE00
7F80000000FF00
7F000000007F00
7F000000007F00
7F000000007F00
FF000000003F80
FE000000003F80
FE000000003F80
FE000000003F80
FE000000003F80
FE000000003F80
FE000000003F80
FE000000003F80
FE000000003F80
FE000000003F80
FE000000003F80
FE000000003F80
FF000000007F80
7F0003F0007F00
7F0003F8007F00
7F0001FC007F00
7F8000FC00FF00
3F80007E00FE00
3F80007F00FE00
3FC0003F81FE00
1FE0001FC1FC00
1FE0000FC3FC00
0FF00007E7F800
0FF80007FFF800
07FC0003FFF000
07FE0001FFF000
03FF8000FFE000
01FFE003FFC000
00FFFFFFFF8000
007FFFFFFF8000
001FFFFFFF8000
000FFFFFFFC000
0003FFFFE7E000
00007FFF07F000
000002A003F800
0000000001F800
0000000000FC00
00000000007E00
ENDCHAR
STARTCHAR 0052
ENCODING 82
SWIDTH 604 0
DWIDTH 47 0
BBX 37 54 6 0
BITMAP
FFFFFFC000
FFFFFFF000
FFFFFFFC00
FFFFFFFE00
FFFFFFFF80
FFFFFFFFC0
FE0001FFC0
FE00003FE0
FE00000FE0
FE000007F0
FE000007F0
FE000003F8
FE000003F8
FE000003F8
FE000001F8
FE000001F8
FE000001F8
FE000001F8
FE000003F8
FE000003F8
FE000003F8
FE000007F0
FE000007F0
FE00000FE0
FE00003FE0
FE0000FFC0
FE003FFFC0
FFFFFFFF80
FFFFFFFE00
FFFFFFFC00
FFFFFFF000
FFFFFF8000
FE00FF0000
FE007F0000
FE003F8000
FE003FC000
FE001FC000
FE000FE000
FE000FF000
FE0007F000
FE0003F800
FE0003FC00
FE0001FC00
FE0001FE00
FE0000FE00
FE00007F00
FE00007F80
FE00003F80
FE00001FC0
FE00001FE0
FE00000FE0
FE000007F0
FE000007F8
FE000003F8
ENDCHAR
STARTCHAR 0053
ENCODING 83
SWIDTH 591 0
DWIDTH 46 0
BBX 39 57 4 -1
BITMAP
0000380000
000FFFE000
003FFFF800
00FFFFFE00
03FFFFFF00
07FFFFFF80
07FF07FFC0
0FF8007FE0
1FF0003FF0
1FE0000FF0
3FC00007F8
3F800007F8
3F800003F8
3F800003FC
7F000003FC
7F000001FC
7F000001FC
7F00000000
3F80000000
3F80000000
3FC0000000
3FE0000000
1FF0000000
0FFC000000
0FFFC00000
07FFFE0000
03FFFFE000
00FFFFFC00
003FFFFF00
000FFFFF80
0000FFFFE0
000003FFF0
0000003FF0
0000000FF8
00000007FC
00000003FC
00000001FC
00000001FE
FE000000FE
FE000000FE
FF000000FE
FF000000FE
FF000000FE
7F000001FE
7F800001FC
7FC00001FC
3FC00003FC
3FE00007F8
1FF8000FF8
0FFC003FF0
07FFFFFFE0
03FFFFFFC0
01FFFFFF80
00FFFFFF00
003FFFFC00
000FFFE000
00007E0000
ENDCHAR
STARTCHAR 0054
ENCODING 84
SWIDTH 578 0
DWIDTH 45 0
BBX 39 54 3 0
BITMAP
FFFFFFFFFE
FFFFFFFFFE
FFFFFFFFFE
FFFFFFFFFE
FFFFFFFFFE
FFFFFFFFFE
00007E0000
00007E0000
00007E0000
00007E0000
00007E0000
00007E0000
00007E0000
00007E0000
00007E0000
00007E0000
00007E0000
00007E0000
00007E0000
00007E0000
00007E0000
00007E0000
00007E0000
00007E0000
00007E0000
00007E0000
00007E0000
00007E0000
00007E0000
00007E0000
00007E0000
00007E0000
00007E0000
00007E0000
00007E0000
00007E0000
00007E0000
00007E0000
00007E0000
00007E0000
00007E0000
00007E0000
00007E0000
00007E0000
00007E0000
00007E0000
00007E0000
00007E0000
00007E0000
00007E0000
00007E0000
00007E0000
00007E0000
00007E0000
ENDCHAR
STARTCHAR 0055
ENCODING 85
SWIDTH 681 0
DWIDTH 53 0
BBX 43 55 5 -1
BITMAP
FE0000000FE0
FE0000000FE0
FE0000000FE0
FE0000000FE0
FE0000000FE0
FE0000000FE0
FE0000000FE0
FE0000000FE0
FE0000000FE0
FE0000000FE0
FE0000000FE0
FE0000000FE0
FE0000000FE0
FE0000000FE0
FE0000000FE0
FE0000000FE0
FE0000000FE0
FE0000000FE0
FE0000000FE0
FE0000000FE0
FE0000000FE0
FE0000000FE0
FE0000000FE0
FE0000000FE0
FE0000000FE0
FE0000000FE0
FE0000000FE0
FE0000000FE0
FE0000000FE0
FE0000000FE0
FE0000000FE0
FE0000000FE0
FE0000000FE0
FE0000000FE0
FE0000000FE0
FE0000000FE0
7E0000000FE0
7F0000001FC0
7F0000001FC0
7F0000001FC0
7F8000003FC0
3F8000003F80
3FC000007F80
1FC000007F80
1FE00000FF00
0FF00001FE00
0FFC0003FE00
07FF001FFC00
03FFFFFFF800
01FFFFFFF000
00FFFFFFE000
007FFFFFC000
001FFFFF0000
0007FFFC0000
00001F000000
ENDCHAR
STARTCHAR 0056
ENCODING 86
SWIDTH 630 0
DWIDTH 49 0
BBX 47 54 1 0
BITMAP
FE00000000FE
7F00000000FC
7F00000001FC
7F00000001FC
3F80000001F8
3F80000003F8
3F80000003F8
1FC0000003F0
1FC0000007F0
0FC0000007F0
0FE0000007E0
0FE000000FE0
07E000000FE0
07F000000FC0
07F000001FC0
03F000001FC0
03F800003F80
03F800003F80
01F800003F80
01FC00007F00
01FC00007F00
00FE00007F00
00FE0000FE00
00FE0000FE00
007F0000FE00
007F0001FC00
007F0001FC00
003F8001FC00
003F8003F800
003F8003F800
001FC003F000
001FC007F000
000FC007F000
000FE007E000
000FE00FE000
0007E00FE000
0007F00FC000
0007F01FC000
0003F01FC000
0003F81F8000
0003F83F8000
0001F83F8000
0001FC3F0000
0001FC7F0000
0000FC7F0000
0000FEFE0000
0000FEFE0000
00007FFE0000
00007FFC0000
00007FFC0000
00003FFC0000
00003FF80000
00003FF80000
00001FF80000
ENDCHAR
STARTCHAR 0057
ENCODING 87
SWIDTH 990 0
DWIDTH 77 0
BBX 75 54 1 0
BITMAP
FE0000003F8000000FE0
7E0000003F8000000FE0
7F0000003FC000000FC0
7F0000007FC000001FC0
7F0000007FC000001FC0
3F0000007FE000001F80
3F800000FFE000001F80
3F800000FFE000003F80
1F800000FFF000003F80
1F800001FFF000003F00
1FC00001FFF000007F00
1FC00001FBF800007F00
0FC00003FBF800007F00
0FE00003F9F800007E00
0FE00003F1FC0000FE00
0FE00007F1FC0000FE00
07E00007F1FC0000FE00
07F00007E0FC0000FC00
07F0000FE0FE0001FC00
07F0000FE0FE0001FC00
03F0000FC07E0001F800
03F8001FC07F0001F800
03F8001FC07F0003F800
01F8001F803F0003F800
01F8003F803F8003F000
01FC003F803F8003F000
01FC003F001F8007F000
00FC007F001FC007F000
00FC007F001FC007E000
00FE007E000FC00FE000
00FE00FE000FE00FE000
007E00FE000FE00FE000
007E00FE0007E00FC000
007F01FC0007F01FC000
003F01FC0007F01FC000
003F01FC0003F01F8000
003F81F80003F81F8000
003F83F80003F83F8000
001F83F80001F83F8000
001F83F00001FC3F0000
001FC7F00001FC3F0000
001FC7F00000FC7F0000
000FC7E00000FE7F0000
000FCFE00000FE7E0000
000FEFE000007E7E0000
000FEFC000007FFE0000
0007FFC000007FFC0000
0007FFC000007FFC0000
0007FF8000003FFC0000
0003FF8000003FFC0000
0003FF8000003FF80000
0003FF0000001FF80000
0003FF0000001FF80000
0001FF0000001FF80000
ENDCHAR
STARTCHAR 0058
ENCODING 88
SWIDTH 655 0
DWIDTH 51 0
BBX 45 54 3 0
BITMAP
7F00000007F8
7F8000000FF0
3FC000000FE0
1FC000001FE0
1FE000003FC0
0FF000003F80
07F000007F80
07F80000FF00
03FC0000FE00
01FC0001FE00
01FE0003FC00
00FF0003F800
007F0007F800
007F8007F000
003FC00FE000
001FC01FE000
001FE01FC000
000FF03F8000
0007F07F8000
0007F87F0000
0003F8FE0000
0001FDFE0000
0001FFFC0000
0000FFF80000
00007FF80000
00007FF00000
00003FE00000
00003FF00000
00007FF00000
0000FFF80000
0000FFFC0000
0001FFFC0000
0003FCFE0000
0003F8FF0000
0007F87F0000
000FF03F8000
000FE03FC000
001FE01FC000
003FC00FE000
003F800FF000
007F8007F000
00FF0007F800
00FE0003FC00
01FE0001FC00
03FC0001FE00
03F80000FF00
07F800007F00
0FF000007F80
0FE000003FC0
1FE000001FC0
3FC000001FE0
3F8000000FF0
7F80000007F0
FF00000007F8
ENDCHAR
STARTCHAR 0059
ENCODING 89
SWIDTH 604 0
DWIDTH 47 0
BBX 41 54 3 0
BITMAP
FE0000003F80
7F0000003F80
7F0000007F00
3F8000007F00
3F800000FE00
1FC00000FE00
1FC00001FC00
0FE00001FC00
0FE00003F800
07F00003F800
07F00007F000
03F80007F000
03F8000FE000
01FC000FE000
01FC001FC000
00FE001FC000
00FE003F8000
007F003F8000
007F007F0000
003F807F0000
003F80FE0000
001FC0FE0000
001FC1FC0000
000FE1FC0000
000FE3F80000
0007F3F80000
0007F7F00000
0003FFF00000
0003FFE00000
0001FFE00000
0001FFC00000
0000FFC00000
0000FF800000
00007F800000
00007F000000
00007F000000
00007F000000
00007F000000
00007F000000
00007F000000
00007F000000
00007F000000
00007F000000
00007F000000
00007F000000
00007F000000
00007F000000
00007F000000
00007F000000
00007F000000
00007F000000
00007F000000
00007F000000
00007F000000
ENDCHAR
STARTCHAR 005A
ENCODING 90
SWIDTH 604 0
DWIDTH 47 0
BBX 39 54 4 0
BITMAP
FFFFFFFFFE
FFFFFFFFFE
FFFFFFFFFE
FFFFFFFFFE
FFFFFFFFFE
FFFFFFFFFE
00000003FC
00000007F8
00000007F8
0000000FF0
0000001FE0
0000003FC0
0000003FC0
0000007F80
000000FF00
000001FF00
000001FE00
000003FC00
000007F800
000007F800
00000FF000
00001FE000
00003FC000
00003FC000
00007F8000
0000FF0000
0001FF0000
0001FE0000
0003FC0000
0007F80000
0007F80000
000FF00000
001FE00000
003FC00000
003FC00000
007F800000
00FF000000
01FF000000
01FE000000
03FC000000
07F8000000
07F8000000
0FF0000000
1FE0000000
3FE0000000
3FC0000000
7F80000000
FF00000000
FFFFFFFFFE
FFFFFFFFFE
FFFFFFFFFE
FFFFFFFFFE
FFFFFFFFFE
FFFFFFFFFE
ENDCHAR
STARTCHAR 005B
ENCODING 91
SWIDTH 437 0
DWIDTH 34 0
BBX 22 77 6 -14
BITMAP
FFFFFC
FFFFFC
FFFFFC
FFFFFC
FFFFFC
FC0000
FC0000
FC0000
FC0000
FC0000
FC0000
FC0000
FC0000
FC0000
FC0000
FC0000
FC0000
FC0000
FC0000
FC0000
FC0000
FC0000
FC0000
FC0000
FC0000
FC0000
FC0000
FC0000
FC0000
FC0000
FC0000
FC0000
FC0000
FC0000
FC0000
FC0000
FC0000
FC0000
FC0000
FC0000
FC0000
FC0000
FC0000
FC0000
FC0000
FC0000
FC0000
FC0000
FC0000
FC0000
FC0000
FC0000
FC0000
FC0000
FC0000
FC0000
FC0000
FC0000
FC0000
FC0000
FC0000
FC0000
FC0000
FC0000
FC0000
FC0000
FC0000
FC0000
FC0000
FC0000
FC0000
FC0000
FFFFFC
FFFFFC
FFFFFC
FFFFFC
FFFFFC
ENDCHAR
STARTCHAR 005C
ENCODING 92
SWIDTH 501 0
DWIDTH 39 0
BBX 33 74 2 -12
BITMAP
FE00000000
7E00000000
7F00000000
7F00000000
3F00000000
3F80000000
1F80000000
1F80000000
1FC0000000
0FC0000000
0FE0000000
0FE0000000
07E0000000
07F0000000
07F0000000
03F0000000
03F8000000
01F8000000
01F8000000
01FC000000
00FC000000
00FC000000
00FE000000
007E000000
007F000000
007F000000
003F000000
003F800000
003F800000
001F800000
001FC00000
000FC00000
000FC00000
000FE00000
0007E00000
0007F00000
0007F00000
0003F00000
0003F80000
0003F80000
0001F80000
0001FC0000
0000FC0000
0000FC0000
0000FE0000
00007E0000
00007E0000
00007F0000
00003F0000
00003F8000
00003F8000
00001F8000
00001FC000
00000FC000
00000FC000
00000FE000
000007E000
000007E000
000007F000
000003F000
000003F800
000003F800
000001F800
000001FC00
000000FC00
000000FC00
000000FE00
0000007E00
0000007E00
0000007F00
0000003F00
0000003F80
0000003F80
0000001F80
ENDCHAR
STARTCHAR 005D
ENCODING 93
SWIDTH 424 0
DWIDTH 33 0
BBX 22 77 6 -14
BITMAP
FFFFFC
FFFFFC
FFFFFC
FFFFFC
FFFFFC
0000FC
0000FC
0000FC
0000FC
0000FC
0000FC
0000FC
0000FC
0000FC
0000FC
0000FC
0000FC
0000FC
0000FC
0000FC
0000FC
0000FC
0000FC
0000FC
0000FC
0000FC
0000FC
0000FC
0000FC
0000FC
0000FC
0000FC
0000FC
0000FC
0000FC
0000FC
0000FC
0000FC
0000FC
0000FC
0000FC
0000FC
0000FC
0000FC
0000FC
0000FC
0000FC
0000FC
0000FC
0000FC
0000FC
0000FC
0000FC
0000FC
0000FC
0000FC
0000FC
0000FC
0000FC
0000FC
0000FC
0000FC
0000FC
0000FC
0000FC
0000FC
0000FC
0000FC
0000FC
0000FC
0000FC
0000FC
FFFFFC
FFFFFC
FFFFFC
FFFFFC
FFFFFC
ENDCHAR
STARTCHAR 005E
ENCODING 94
SWIDTH 411 0
DWIDTH 32 0
BBX 28 15 2 44
BITMAP
003FC000
007FE000
007FE000
00FFF000
01FFF800
01F9FC00
03F0FC00
07F07E00
0FE07F00
0FC03F80
1F801F80
3F800FC0
7F000FE0
7E0007F0
FE0003F0
ENDCHAR
STARTCHAR 005F
ENCODING 95
SWIDTH 694 0
DWIDTH 54 0
BBX 37 6 9 0
BITMAP
FFFFFFFFF8
FFFFFFFFF8
FFFFFFFFF8
FFFFFFFFF8
FFFFFFFFF8
FFFFFFFFF8
ENDCHAR
STARTCHAR 0060
ENCODING 96
SWIDTH 244 0
DWIDTH 19 0
BBX 14 14 3 48
BITMAP
FE00
7E00
7F00
3F80
1F80
1FC0
0FC0
07E0
07E0
03F0
01F0
01F8
00F8
007C
ENDCHAR
STARTCHAR 0061
ENCODING 97
SWIDTH 617 0
DWIDTH 48 0
BBX 38 43 4 -1
BITMAP
000FFC0000
003FFF01FC
00FFFFC1FC
01FFFFE1FC
03FFFFF1FC
07FFFFF9FC
0FFC01FDFC
1FF0007DFC
1FE0001FFC
3FC0000FFC
3F80000FFC
7F800007FC
7F000007FC
7F000003FC
FE000003FC
FE000001FC
FE000001FC
FE000001FC
FE000001FC
FE000001FC
FE000001FC
FE000001FC
FE000001FC
FE000001FC
FE000001FC
FE000001FC
FE000001FC
FE000003FC
FF000003FC
7F000003FC
7F800007FC
7F800007FC
3FC0000FFC
3FE0001FFC
1FF0003DFC
1FF8007DFC
0FFF03F9FC
07FFFFF1FC
03FFFFE1FC
01FFFFC1FC
007FFF81FC
001FFE01FC
0000E00000
ENDCHAR
STARTCHAR 0062
ENCODING 98
SWIDTH 617 0
DWIDTH 48 0
BBX 38 59 6 -1
BITMAP
FE00000000
FE00000000
FE00000000
FE00000000
FE00000000
FE00000000
FE00000000
FE00000000
FE00000000
FE00000000
FE00000000
FE00000000
FE00000000
FE00000000
FE00000000
FE00000000
FE00FFC000
FE03FFF000
FE0FFFFC00
FE1FFFFE00
FE3FFFFF80
FE7FFFFF80
FEFE01FFC0
FEF8003FE0
FFE0001FE0
FFC0000FF0
FFC0000FF0
FF800007F8
FF000003F8
FF000003F8
FF000003FC
FE000001FC
FE000001FC
FE000001FC
FE000001FC
FE000001FC
FE000001FC
FE000001FC
FE000001FC
FE000001FC
FE000001FC
FE000001FC
FE000001FC
FF000001FC
FF000003F8
FF000003F8
FF800007F8
FF800007F8
FFC0000FF0
FFE0001FF0
FEF0003FE0
FEF8007FE0
FE7F03FFC0
FE3FFFFF80
FE1FFFFF00
FE0FFFFE00
FE07FFF800
FE01FFE000
00001E0000
ENDCHAR
STARTCHAR 0063
ENCODING 99
SWIDTH 565 0
DWIDTH 44 0
BBX 37 43 4 -1
BITMAP
0003FF8000
001FFFE000
007FFFF800
00FFFFFE00
01FFFFFF00
03FFFFFF80
07FC00FFC0
0FF8003FC0
1FE0001FE0
1FC0000FE0
3FC00007F0
3F800007F0
7F800003F8
7F000003F8
7F000003F8
7E000001F8
FE00000000
FE00000000
FE00000000
FE00000000
FE00000000
FE00000000
FE00000000
FE00000000
FE00000000
FE00000000
FE00000000
7F000001F8
7F000003F8
7F000003F8
3F800003F0
3F800007F0
3FC00007F0
1FE0000FE0
0FF0001FE0
0FF8007FC0
07FF01FF80
03FFFFFF00
01FFFFFE00
007FFFFC00
003FFFF000
0007FFC000
0000500000
ENDCHAR
STARTCHAR 0064
ENCODING 100
SWIDTH 617 0
DWIDTH 48 0
BBX 38 59 4 -1
BITMAP
00000000FC
00000000FC
00000000FC
00000000FC
00000000FC
00000000FC
00000000FC
00000000FC
00000000FC
00000000FC
00000000FC
00000000FC
00000000FC
00000000FC
00000000FC
00000000FC
0007FC00FC
003FFF00FC
00FFFFC0FC
01FFFFE0FC
03FFFFF0FC
07FFFFF8FC
0FFC01FCFC
1FF0007CFC
1FE0001EFC
3FC0000FFC
3FC0000FFC
7F800007FC
7F000003FC
7F000003FC
FF000003FC
FE000001FC
FE000001FC
FE000001FC
FE000001FC
FE000001FC
FE000001FC
FE000001FC
FE000001FC
FE000001FC
FE000001FC
FE000001FC
FE000001FC
FE000001FC
7F000003FC
7F000003FC
7F800007FC
3F800007FC
3FC0000FFC
3FE0001FFC
1FF0003EFC
0FF8007CFC
0FFF03F8FC
07FFFFF0FC
03FFFFE0FC
01FFFFC0FC
007FFF80FC
001FFE00FC
0000E00000
ENDCHAR
STARTCHAR 0065
ENCODING 101
SWIDTH 578 0
DWIDTH 45 0
BBX 37 43 4 -1
BITMAP
0003FF0000
001FFFE000
007FFFF800
00FFFFFC00
01FFFFFE00
03FF03FF00
07F8007F80
0FF0003FC0
1FE0001FE0
1FC0000FE0
3F800007E0
3F000007F0
7F000003F0
7F000003F0
7E000003F8
7E000003F8
FE000001F8
FE000001F8
FFFFFFFFF8
FFFFFFFFF8
FFFFFFFFF8
FFFFFFFFF8
FFFFFFFFF8
FE00000000
FE00000000
FE00000000
FE00000000
7E00000000
7E00000000
7F000003F8
3F000003F0
3F800007F0
3FC0000FF0
1FE0000FE0
0FF0003FE0
0FF8007FC0
07FF03FF80
03FFFFFF00
01FFFFFE00
00FFFFFC00
003FFFF000
000FFFC000
0000700000
ENDCHAR
STARTCHAR 0066
ENCODING 102
SWIDTH 372 0
DWIDTH 29 0
BBX 22 57 4 0
BITMAP
001FFC
007FFC
00FFFC
01FFFC
03FFFC
03FC00
03F800
07F000
07F000
07F000
07F000
07F000
07F000
07F000
07F000
07F000
FFFFFC
FFFFFC
FFFFFC
FFFFFC
FFFFFC
07F000
07F000
07F000
07F000
07F000
07F000
07F000
07F000
07F000
07F000
07F000
07F000
07F000
07F000
07F000
07F000
07F000
07F000
07F000
07F000
07F000
07F000
07F000
07F000
07F000
07F000
07F000
07F000
07F000
07F000
07F000
07F000
07F000
07F000
07F000
07F000
ENDCHAR
STARTCHAR 0067
ENCODING 103
SWIDTH 617 0
DWIDTH 48 0
BBX 39 58 4 -16
BITMAP
000FFC0000
003FFF80FE
00FFFFC0FE
01FFFFE0FE
03FFFFF0FE
07FFFFF8FE
0FFE00FCFE
1FF8003EFE
1FE0001EFE
3FE0000FFE
3FC00007FE
7F800007FE
7F800003FE
7F000003FE
7F000001FE
FF000001FE
FE000001FE
FE000001FE
FE000000FE
FE000000FE
FE000000FE
FE000000FE
FE000001FE
FE000001FE
FE000001FE
FF000001FE
7F000001FE
7F000003FE
7F800003FE
7F800007FE
3FC00007FE
3FE0000FFE
1FE0001FFE
1FF8003EFE
0FFC00FCFE
07FFEFF8FE
03FFFFF8FE
01FFFFF0FE
00FFFFC0FE
007FFF80FE
000FFE00FE
00000000FC
00000000FC
00000001FC
00000001FC
00000001FC
00000003FC
00000003F8
00000007F8
0000000FF0
0000001FF0
0000007FE0
0007FFFFC0
0007FFFF80
0007FFFF00
0007FFFE00
0007FFF800
0003FFE000
ENDCHAR
STARTCHAR 0068
ENCODING 104
SWIDTH 604 0
DWIDTH 47 0
BBX 36 58 6 0
BITMAP
FE00000000
FE00000000
FE00000000
FE00000000
FE00000000
FE00000000
FE00000000
FE00000000
FE00000000
FE00000000
FE00000000
FE00000000
FE00000000
FE00000000
FE00000000
FE00000000
FE00FF8000
FE03FFF000
FE0FFFFC00
FE1FFFFE00
FE3FFFFF00
FE7FFFFF80
FEFC03FF80
FEF000FFC0
FFE0003FC0
FFC0001FE0
FF80000FE0
FF00000FF0
FF000007F0
FE000007F0
FE000007F0
FE000007F0
FE000003F0
FE000003F0
FE000003F0
FE000003F0
FE000003F0
FE000003F0
FE000003F0
FE000003F0
FE000003F0
FE000003F0
FE000003F0
FE000003F0
FE000003F0
FE000003F0
FE000003F0
FE000003F0
FE000003F0
FE000003F0
FE000003F0
FE000003F0
FE000003F0
FE000003F0
FE000003F0
FE000003F0
FE000003F0
FE000003F0
ENDCHAR
STARTCHAR 0069
ENCODING 105
SWIDTH 244 0
DWIDTH 19 0
BBX 9 57 5 0
BITMAP
3E00
7F00
7F80
FF80
FF80
7F80
7F00
3E00
0000
0000
0000
0000
0000
0000
0000
0000
7F00
7F00
7F00
7F00
7F00
7F00
7F00
7F00
7F00
7F00
7F00
7F00
7F00
7F00
7F00
7F00
7F00
7F00
7F00
7F00
7F00
7F00
7F00
7F00
7F00
7F00
7F00
7F00
7F00
7F00
7F00
7F00
7F00
7F00
7F00
7F00
7F00
7F00
7F00
7F00
7F00
ENDCHAR
STARTCHAR 006A
ENCODING 106
SWIDTH 244 0
DWIDTH 19 0
BBX 18 74 -3 -17
BITMAP
001F00
003F80
007F80
007FC0
007FC0
007F80
003F80
003F00
000000
000000
000000
000000
000000
000000
000000
003F00
003F00
003F00
003F00
003F00
003F00
003F00
003F00
003F00
003F00
003F00
003F00
003F00
003F00
003F00
003F00
003F00
003F00
003F00
003F00
003F00
003F00
003F00
003F00
003F00
003F00
003F00
003F00
003F00
003F00
003F00
003F00
003F00
003F00
003F00
003F00
003F00
003F00
003F00
003F00
003F00
003F00
003F00
003F00
003F00
003F00
003F00
003F00
003F00
007F00
007F00
007F00
00FF00
03FE00
FFFE00
FFFC00
FFFC00
FFF000
FFC000
ENDCHAR
STARTCHAR 006B
ENCODING 107
SWIDTH 514 0
DWIDTH 40 0
BBX 31 58 6 0
BITMAP
FE000000
FE000000
FE000000
FE000000
FE000000
FE000000
FE000000
FE000000
FE000000
FE000000
FE000000
FE000000
FE000000
FE000000
FE000000
FE000000
FE000000
FE0003FC
FE0007F8
FE000FF0
FE001FE0
FE003FC0
FE007F80
FE00FF00
FE01FE00
FE03FC00
FE07F800
FE0FF000
FE1FE000
FE3FC000
FE7F8000
FEFF0000
FFFE0000
FFFC0000
FFF80000
FFF00000
FFF80000
FFFC0000
FEFE0000
FEFF0000
FE7F0000
FE3F8000
FE1FC000
FE0FE000
FE0FF000
FE07F800
FE03F800
FE01FC00
FE00FE00
FE00FF00
FE007F80
FE003FC0
FE001FE0
FE000FE0
FE0007F0
FE0007F8
FE0003FC
FE0001FE
ENDCHAR
STARTCHAR 006C
ENCODING 108
SWIDTH 308 0
DWIDTH 24 0
BBX 15 58 6 0
BITMAP
FE00
FE00
FE00
FE00
FE00
FE00
FE00
FE00
FE00
FE00
FE00
FE00
FE00
FE00
FE00
FE00
FE00
FE00
FE00
FE00
FE00
FE00
FE00
FE00
FE00
FE00
FE00
FE00
FE00
FE00
FE00
FE00
FE00
FE00
FE00
FE00
FE00
FE00
FE00
FE00
FE00
FE00
FE00
FE00
FE00
FE00
FE00
FE00
FE00
FE00
FE00
FF00
7F80
7FFE
7FFE
3FFE
1FFE
07FE
ENDCHAR
STARTCHAR 006D
ENCODING 109
SWIDTH 951 0
DWIDTH 74 0
BBX 63 42 6 0
BITMAP
0000FF00000FF800
FC07FFE0007FFE00
FC0FFFF001FFFF80
FC1FFFF803FFFFC0
FC3FFFFC07FFFFE0
FC7FFFFE07FFFFF0
FCFC07FF0FE07FF0
FDF001FF9F001FF8
FDC000FF9E0007F8
FF80007FFC0003FC
FF80003FF80001FC
FF00001FF00001FC
FE00001FF00000FE
FE00000FE00000FE
FE00000FE00000FE
FE00000FE00000FE
FE00000FE000007E
FC00000FE000007E
FC00000FE000007E
FC00000FE000007E
FC00000FE000007E
FC00000FE000007E
FC00000FE000007E
FC00000FE000007E
FC00000FE000007E
FC00000FE000007E
FC00000FE000007E
FC00000FE000007E
FC00000FE000007E
FC00000FE000007E
FC00000FE000007E
FC00000FE000007E
FC00000FE000007E
FC00000FE000007E
FC00000FE000007E
FC00000FE000007E
FC00000FE000007E
FC00000FE000007E
FC00000FE000007E
FC00000FE000007E
FC00000FE000007E
FC00000FE000007E
ENDCHAR
STARTCHAR 006E
ENCODING 110
SWIDTH 604 0
DWIDTH 47 0
BBX 36 42 6 0
BITMAP
0000FF8000
FE03FFF000
FE0FFFFC00
FE1FFFFE00
FE3FFFFF00
FE7FFFFF80
FEFC03FF80
FEF000FFC0
FFE0003FC0
FFC0001FE0
FF80000FE0
FF00000FF0
FF000007F0
FE000007F0
FE000007F0
FE000007F0
FE000003F0
FE000003F0
FE000003F0
FE000003F0
FE000003F0
FE000003F0
FE000003F0
FE000003F0
FE000003F0
FE000003F0
FE000003F0
FE000003F0
FE000003F0
FE000003F0
FE000003F0
FE000003F0
FE000003F0
FE000003F0
FE000003F0
FE000003F0
FE000003F0
FE000003F0
FE000003F0
FE000003F0
FE000003F0
FE000003F0
ENDCHAR
STARTCHAR 006F
ENCODING 111
SWIDTH 591 0
DWIDTH 46 0
BBX 38 43 4 -1
BITMAP
0003FF0000
001FFFE000
007FFFF800
00FFFFFE00
01FFFFFF00
03FFFFFF80
07FE00FFC0
0FF8003FC0
1FE0001FE0
1FC0000FF0
3FC00007F0
3F800007F0
7F800003F8
7F000003F8
7F000001F8
7E000001FC
FE000001FC
FE000001FC
FE000001FC
FE000000FC
FE000000FC
FE000000FC
FE000000FC
FE000001FC
FE000001FC
FE000001FC
FE000001FC
7F000001FC
7F000003F8
7F000003F8
3F800007F8
3F800007F0
1FC0000FF0
1FE0001FE0
0FF0003FE0
0FFC007FC0
07FF03FF80
03FFFFFF00
01FFFFFE00
007FFFFC00
003FFFF000
000FFFC000
0000300000
ENDCHAR
STARTCHAR 0070
ENCODING 112
SWIDTH 617 0
DWIDTH 48 0
BBX 38 58 6 -16
BITMAP
0000FFC000
FE03FFF000
FE0FFFFC00
FE1FFFFE00
FE3FFFFF80
FE7FFFFF80
FEFE01FFC0
FEF8003FE0
FFE0001FE0
FFC0000FF0
FFC0000FF0
FF800007F8
FF000003F8
FF000003F8
FF000003FC
FE000001FC
FE000001FC
FE000001FC
FE000001FC
FE000001FC
FE000001FC
FE000001FC
FE000001FC
FE000001FC
FE000001FC
FE000001FC
FE000001FC
FF000001FC
FF000003F8
FF000003F8
FF800007F8
FF800007F8
FFC0000FF0
FFE0001FF0
FEF0003FE0
FEF8007FE0
FE7F03FFC0
FE3FFFFF80
FE1FFFFF00
FE0FFFFE00
FE07FFF800
FE01FFE000
FE001E0000
FE00000000
FE00000000
FE00000000
FE00000000
FE00000000
FE00000000
FE00000000
FE00000000
FE00000000
FE00000000
FE00000000
FE00000000
FE00000000
FE00000000
FE00000000
ENDCHAR
STARTCHAR 0071
ENCODING 113
SWIDTH 617 0
DWIDTH 48 0
BBX 39 58 4 -16
BITMAP
0007FC0000
003FFF80FE
00FFFFC0FE
01FFFFE0FE
03FFFFF0FE
07FFFFF8FE
0FFE00FCFE
1FF8003EFE
1FF0001EFE
3FE0000FFE
3FC00007FE
3F800007FE
7F800003FE
7F000003FE
7F000001FE
7F000001FE
FE000001FE
FE000001FE
FE000000FE
FE000000FE
FE000000FE
FE000000FE
FE000000FE
FE000000FE
FE000001FE
FE000001FE
FF000001FE
7F000001FE
7F000003FE
7F800003FE
7F800003FE
3FC00007FE
3FC0000FFE
1FE0000FFE
1FF0003EFE
0FFC007CFE
07FF03F8FE
07FFFFF8FE
03FFFFF0FE
00FFFFE0FE
007FFF80FE
001FFE00FE
00014000FE
00000000FE
00000000FE
00000000FE
00000000FE
00000000FE
00000000FE
00000000FE
00000000FE
00000000FE
00000000FE
00000000FE
00000000FE
00000000FE
00000000FE
00000000FE
ENDCHAR
STARTCHAR 0072
ENCODING 114
SWIDTH 347 0
DWIDTH 27 0
BBX 20 41 6 0
BITMAP
FC07F0
FC1FF0
FC3FF0
FC7FF0
FCFFF0
FDFFF0
FDFC70
FFE000
FF8000
FF0000
FF0000
FE0000
FE0000
FE0000
FE0000
FC0000
FC0000
FC0000
FC0000
FC0000
FC0000
FC0000
FC0000
FC0000
FC0000
FC0000
FC0000
FC0000
FC0000
FC0000
FC0000
FC0000
FC0000
FC0000
FC0000
FC0000
FC0000
FC0000
FC0000
FC0000
FC0000
ENDCHAR
STARTCHAR 0073
ENCODING 115
SWIDTH 488 0
DWIDTH 38 0
BBX 31 43 4 -1
BITMAP
003FF000
01FFFE00
03FFFF80
0FFFFFC0
1FFFFFE0
1FF03FF0
3FC00FF8
7F8003F8
7F0003FC
7E0001FC
7E0001FC
7E0000FC
7E0000FC
7E000000
7F000000
7F000000
3FC00000
3FF00000
1FFFC000
0FFFFC00
07FFFF80
01FFFFE0
003FFFF0
0001FFF8
00000FFC
000003FC
000001FE
000000FE
000000FE
FC00007E
FE00007E
FE00007E
FE0000FE
7F0000FE
7F8001FC
3FC003FC
3FF00FF8
1FFFFFF0
0FFFFFF0
07FFFFC0
01FFFF80
007FFC00
00010000
ENDCHAR
STARTCHAR 0074
ENCODING 116
SWIDTH 385 0
DWIDTH 30 0
BBX 25 54 2 0
BITMAP
00FE0000
00FE0000
00FE0000
00FE0000
00FE0000
00FE0000
00FE0000
00FE0000
00FE0000
00FE0000
00FE0000
00FE0000
00FE0000
FFFFFF80
FFFFFF80
FFFFFF80
FFFFFF80
FFFFFF80
00FE0000
00FE0000
00FE0000
00FE0000
00FE0000
00FE0000
00FE0000
00FE0000
00FE0000
00FE0000
00FE0000
00FE0000
00FE0000
00FE0000
00FE0000
00FE0000
00FE0000
00FE0000
00FE0000
00FE0000
00FE0000
00FE0000
00FE0000
00FE0000
00FE0000
00FE0000
00FE0000
00FE0000
00FE0000
00FE0000
00FF0000
007FFF80
007FFF80
003FFF80
001FFF80
0007FF80
ENDCHAR
STARTCHAR 0075
ENCODING 117
SWIDTH 591 0
DWIDTH 46 0
BBX 36 42 6 -1
BITMAP
FE000007F0
FE000007F0
FE000007F0
FE000007F0
FE000007F0
FE000007F0
FE000007F0
FE000007F0
FE000007F0
FE000007F0
FE000007F0
FE000007F0
FE000007F0
FE000007F0
FE000007F0
FE000007F0
FE000007F0
FE000007F0
FE000007F0
FE000007F0
FE000007F0
FE000007F0
FE000007F0
FE000007F0
FE000007F0
FE000007F0
FE00000FF0
FE00000FF0
FE00000FF0
FF00001FF0
7F00001FF0
7F80003FF0
7FC0007FF0
3FE000F7F0
3FF001F7F0
1FFE0FE7F0
0FFFFFC7F0
0FFFFF87F0
03FFFF07F0
01FFFE07F0
007FF807F0
000FC00000
ENDCHAR
STARTCHAR 0076
ENCODING 118
SWIDTH 552 0
DWIDTH 43 0
BBX 37 41 3 0
BITMAP
FC000001F8
FE000003F8
FE000003F8
7E000003F0
7F000007F0
7F000007F0
3F000007E0
3F80000FE0
1F80000FC0
1F80000FC0
1FC0001FC0
0FC0001F80
0FE0003F80
0FE0003F80
07E0003F00
07F0007F00
07F0007F00
03F0007E00
03F800FE00
01F800FC00
01F800FC00
01FC01FC00
00FC01F800
00FE03F800
00FE03F800
007E03F000
007F07F000
007F07F000
003F07E000
003F8FE000
001F8FC000
001F8FC000
001FDFC000
000FDF8000
000FFF8000
000FFF8000
0007FF0000
0007FF0000
0007FF0000
0003FE0000
0003FE0000
ENDCHAR
STARTCHAR 0077
ENCODING 119
SWIDTH 810 0
DWIDTH 63 0
BBX 58 41 3 0
BITMAP
FC00003F00000FC0
FC00007F00001FC0
FE00007F80001F80
7E00007F80001F80
7E0000FF80003F80
7E0000FFC0003F80
7F0000FFC0003F00
3F0001FFC0003F00
3F0001FFC0007F00
3F0001FFE0007E00
3F8001FFE0007E00
1F8003F7E0007E00
1F8003F3F000FE00
1FC003F3F000FC00
0FC007F3F000FC00
0FC007E3F800FC00
0FC007E1F801FC00
0FE00FE1F801F800
07E00FC1FC01F800
07E00FC0FC03F800
07E01FC0FC03F000
03F01F80FE03F000
03F01F807E03F000
03F01F807E07F000
03F83F807E07E000
01F83F003F07E000
01F83F003F07E000
01F87F003F0FE000
01FC7E003F8FC000
00FC7E001F8FC000
00FCFE001F8FC000
00FCFC001FDF8000
007EFC000FDF8000
007FFC000FDF8000
007FF8000FFF8000
007FF80007FF0000
003FF80007FF0000
003FF80007FF0000
003FF00007FE0000
001FF00003FE0000
001FF00003FE0000
ENDCHAR
STARTCHAR 0078
ENCODING 120
SWIDTH 552 0
DWIDTH 43 0
BBX 36 41 3 0
BITMAP
FF00000FF0
7F00001FE0
7F80001FC0
3F80003FC0
1FC0003F80
1FE0007F00
0FE000FF00
07F000FE00
07F801FC00
03F803FC00
01FC03F800
01FC07F000
00FE07F000
007F0FE000
007F1FC000
003F9FC000
001FFF8000
001FFF0000
000FFF0000
0007FE0000
0007FC0000
000FFE0000
000FFF0000
001FFF0000
003FFF8000
003F9FC000
007F1FC000
007F0FE000
00FE0FF000
01FE07F000
01FC03F800
03F803FC00
07F801FC00
07F000FE00
0FE000FF00
1FE0007F00
1FC0007F80
3F80003FC0
7F80001FC0
7F00001FE0
FF00000FE0
ENDCHAR
STARTCHAR 0079
ENCODING 121
SWIDTH 527 0
DWIDTH 41 0
BBX 38 57 2 -16
BITMAP
FE000001FC
7F000001FC
7F000003F8
3F800003F8
3F800007F0
3F800007F0
1FC00007E0
1FC0000FE0
0FC0000FE0
0FE0000FC0
0FE0001FC0
07E0001F80
07F0003F80
07F0003F80
03F8003F00
03F8007F00
01F8007E00
01FC00FE00
01FC00FE00
00FC00FC00
00FE01FC00
007E01F800
007E01F800
007F03F800
003F03F000
003F07F000
001F87E000
001F87E000
001FCFC000
000FCFC000
000FCFC000
0007FF8000
0007FF8000
0007FF0000
0003FF0000
0003FF0000
0003FE0000
0001FE0000
0001FC0000
0001FC0000
0001FC0000
0003F80000
0003F80000
0003F00000
0007F00000
0007E00000
000FE00000
000FE00000
001FC00000
003FC00000
007F800000
33FF800000
3FFF000000
3FFE000000
3FFC000000
3FF0000000
1F80000000
ENDCHAR
STARTCHAR 007A
ENCODING 122
SWIDTH 488 0
DWIDTH 38 0
BBX 31 41 4 0
BITMAP
7FFFFFFE
7FFFFFFE
7FFFFFFE
7FFFFFFE
7FFFFFFE
7FFFFFFE
000001FE
000003FC
000003F8
000007F0
00000FE0
00001FE0
00003FC0
00003F80
00007F00
0000FE00
0001FE00
0003FC00
0003F800
0007F000
000FE000
001FE000
003FC000
003F8000
007F0000
00FE0000
01FE0000
03FC0000
03F80000
07F00000
0FE00000
1FE00000
3FC00000
3F800000
7F000000
FFFFFFFE
FFFFFFFE
FFFFFFFE
FFFFFFFE
FFFFFFFE
FFFFFFFE
ENDCHAR
STARTCHAR 007B
ENCODING 123
SWIDTH 450 0
DWIDTH 35 0
BBX 23 82 8 -17
BITMAP
0003FE
001FFE
007FFE
00FFFE
00FFFE
01FE00
01F800
01F800
03F000
03F000
03F000
03F000
03F000
03F000
03F000
03F000
03F000
03F000
03F000
03F000
03F000
03F000
03F000
03F000
03F000
03F000
03F000
03F000
03F000
03F000
03F000
03F000
03F000
03F000
03F000
03F000
03F000
03E000
07E000
FFC000
FF8000
FF8000
FFC000
07E000
03E000
03F000
03F000
03F000
03F000
03F000
03F000
03F000
03F000
03F000
03F000
03F000
03F000
03F000
03F000
03F000
03F000
03F000
03F000
03F000
03F000
03F000
03F000
03F000
03F000
03F000
03F000
03F000
03F000
03F000
01F800
01F800
01FE00
00FFFE
00FFFE
007FFE
001FFE
0003FE
ENDCHAR
STARTCHAR 007C
ENCODING 124
SWIDTH 282 0
DWIDTH 22 0
BBX 6 93 8 -19
BITMAP
FC
FC
FC
FC
FC
FC
FC
FC
FC
FC
FC
FC
FC
FC
FC
FC
FC
FC
FC
FC
FC
FC
FC
FC
FC
FC
FC
FC
FC
FC
FC
FC
FC
FC
FC
FC
FC
FC
FC
FC
FC
FC
FC
FC
FC
FC
FC
FC
FC
FC
FC
FC
FC
FC
FC
FC
FC
FC
FC
FC
FC
FC
FC
FC
FC
FC
FC
FC
FC
FC
FC
FC
FC
FC
FC
FC
FC
FC
FC
FC
FC
FC
FC
FC
FC
FC
FC
FC
FC
FC
FC
FC
FC
ENDCHAR
STARTCHAR 007D
ENCODING 125
SWIDTH 462 0
DWIDTH 36 0
BBX 24 82 9 -17
BITMAP
FFC000
FFF800
FFFC00
FFFE00
FFFF00
007F00
003F80
001F80
001F80
001F80
001F80
001F80
001F80
001F80
001F80
001F80
001F80
001F80
001F80
001F80
001F80
001F80
001F80
001F80
001F80
001F80
001F80
001F80
001F80
001F80
001F80
001F80
001F80
000F80
000F80
000F80
000FC0
000FC0
000FE0
0007FF
0001FF
0001FF
0007FF
000FE0
000FC0
000FC0
000F80
000F80
000F80
001F80
001F80
001F80
001F80
001F80
001F80
001F80
001F80
001F80
001F80
001F80
001F80
001F80
001F80
001F80
001F80
001F80
001F80
001F80
001F80
001F80
001F80
001F80
001F80
001F80
001F80
003F80
007F00
FFFF00
FFFE00
FFFC00
FFF800
FF8000
ENDCHAR
STARTCHAR 007E
ENCODING 126
SWIDTH 552 0
DWIDTH 43 0
BBX 29 8 7 26
BITMAP
03F80078
0FFE00F8
1FFF80F8
3FFFF7F8
7FFFFFF0
7E0FFFE0
7C03FFC0
F800FF80
ENDCHAR
STARTCHAR 00A0
ENCODING 160
SWIDTH 218 0
DWIDTH 17 0
BBX 0 0 0 0
BITMAP
ENDCHAR
STARTCHAR 00A1
ENCODING 161
SWIDTH 218 0
DWIDTH 17 0
BBX 9 59 5 -19
BITMAP
1C00
7F00
7F00
FF80
FF80
FF80
7F00
7F00
1C00
0000
0000
0000
0000
0000
0000
3E00
3E00
3E00
3E00
3E00
3E00
3E00
3E00
3E00
3E00
3E00
3E00
3E00
3E00
3E00
3E00
3E00
3E00
7F00
7F00
7F00
7F00
7F00
7F00
7F00
7F00
7F00
7F00
7F00
7F00
7F00
7F00
7F00
7F00
7F00
7F00
7F00
7F00
7F00
7F00
7F00
7F00
7F00
7F00
ENDCHAR
STARTCHAR 00A2
ENCODING 162
SWIDTH 591 0
DWIDTH 46 0
BBX 37 52 4 -5
BITMAP
0000700000
0000700000
0000700000
0000700000
0000700000
0003FF0000
001FFFE000
007FFFF800
00FFFFFE00
01FFFFFF00
03FFFFFF80
07FE70FFC0
0FF8703FC0
1FE0701FE0
1FC0700FE0
3FC07007F0
3F807007F0
7F007003F8
7F007003F8
7F007003F8
7E007001F8
FE00700000
FE00700000
FE00700000
FE00700000
FE00700000
FE00700000
FE00700000
FE00700000
FE00700000
FE00700000
FE00700000
7F007001F8
7F007003F8
7F007003F8
3F807003F0
3F807007F0
3FC0700FF0
1FE0700FE0
0FF0701FE0
0FF8707FC0
07FF71FF80
03FFFFFF00
01FFFFFE00
00FFFFFC00
003FFFF000
000FFFC000
0000780000
0000700000
0000700000
0000700000
0000700000
ENDCHAR
STARTCHAR 00A3
ENCODING 163
SWIDTH 591 0
DWIDTH 46 0
BBX 39 56 3 0
BITMAP
00003C0000
0007FFF000
003FFFFC00
007FFFFF00
01FFFFFF80
03FFFFFFC0
03FF81FFE0
07FC003FE0
0FF8001FF0
0FF0000FF0
1FE00007F8
1FE00007F8
1FE00003F8
1FC00003F8
1FC00003FC
1FC00003FC
1FC00001FC
1FC00001FC
1FE0000000
1FE0000000
1FE0000000
0FF0000000
0FF8000000
07F8000000
07FC000000
03FE000000
01FE000000
01FF000000
00FF000000
007F800000
007F800000
7FFFFFFC00
7FFFFFFC00
7FFFFFFC00
7FFFFFFC00
000FE00000
000FE00000
000FE00000
000FE00000
000FE00000
000FC00000
000FC00000
000FC00000
001F800000
001F800000
003F000000
007E000000
00FC000000
01F8000000
07E0000000
FFFFFFFFFE
FFFFFFFFFE
FFFFFFFFFE
FFFFFFFFFE
FFFFFFFFFE
FFFFFFFFFE
ENDCHAR
STARTCHAR 00A4
ENCODING 164
SWIDTH 578 0
DWIDTH 45 0
BBX 36 37 5 10
BITMAP
1800000180
3C000003C0
7E0FFE07E0
7F3FFF8FE0
3FFFFFFFC0
1FFFFFFF80
0FFFFFFF00
07FC07FE00
0FF001FE00
0FE0007F00
1F80003F80
3F80001F80
3F00000F80
3E00000FC0
7E000007C0
7E000007C0
7C000007C0
7C000007C0
7C000007E0
7C000007C0
7E000007C0
7E000007C0
3E00000FC0
3F00000FC0
3F00001F80
1F80001F80
1FC0003F00
0FE0007F00
0FF001FE00
0FFE0FFF00
1FFFFFFF80
3FFFFFFFC0
7F7FFFEFE0
FE1FFF87F0
7C07FC03E0
3800000180
1000000000
ENDCHAR
STARTCHAR 00A5
ENCODING 165
SWIDTH 617 0
DWIDTH 48 0
BBX 41 54 3 0
BITMAP
FE0000003F80
7F0000003F80
7F0000007F00
3F8000007F00
3F800000FE00
1FC00000FE00
1FC00001FC00
0FE00001FC00
0FE00003F800
07F00003F800
07F00007F000
03F80007F000
03F8000FE000
01FC000FE000
01FC001FC000
00FE001FC000
00FE003F8000
007F003F8000
007F007F0000
003F807F0000
003F80FE0000
001FC0FE0000
001FC1FC0000
000FE1FC0000
000FE3F80000
0007F3F80000
0007F7F00000
0003FFF00000
0003FFE00000
0001FFE00000
0001FFC00000
03FFFFFFE000
03FFFFFFE000
03FFFFFFE000
03FFFFFFE000
00007F000000
00007F000000
00007F000000
00007F000000
00007F000000
03FFFFFFE000
03FFFFFFE000
03FFFFFFE000
03FFFFFFE000
00007F000000
00007F000000
00007F000000
00007F000000
00007F000000
00007F000000
00007F000000
00007F000000
00007F000000
00007F000000
ENDCHAR
STARTCHAR 00A6
ENCODING 166
SWIDTH 282 0
DWIDTH 22 0
BBX 6 93 8 -19
BITMAP
FC
FC
FC
FC
FC
FC
FC
FC
FC
FC
FC
FC
FC
FC
FC
FC
FC
FC
FC
FC
FC
FC
FC
FC
FC
FC
FC
FC
FC
FC
FC
FC
FC
FC
FC
FC
FC
FC
FC
FC
FC
00
00
00
00
00
00
00
00
00
00
00
00
00
FC
FC
FC
FC
FC
FC
FC
FC
FC
FC
FC
FC
FC
FC
FC
FC
FC
FC
FC
FC
FC
FC
FC
FC
FC
FC
FC
FC
FC
FC
FC
FC
FC
FC
FC
FC
FC
FC
FC
ENDCHAR
STARTCHAR 00A7
ENCODING 167
SWIDTH 552 0
DWIDTH 43 0
BBX 35 57 4 -1
BITMAP
0000C00000
003FFF0000
00FFFFC000
03FFFFF000
07FFFFF800
0FFFFFFC00
0FF003FE00
1FE001FE00
1FC000FF00
3F80007F00
3F80007F00
3F80003F80
3F80000000
3F80000000
1FC0000000
1FE0000000
0FFC000000
0FFFE00000
03FFFF8000
07FFFFE000
1FFFFFFC00
3FFFFFFE00
7F807FFF00
7F0003FF80
FE00007FC0
FE00003FC0
FE00001FE0
FE00000FE0
FE00000FE0
FE00000FE0
7F00000FE0
7F80000FE0
3FE0001FE0
3FFF001FC0
1FFFFC7FC0
07FFFFFF80
01FFFFFF00
007FFFFC00
0007FFFC00
00001FFE00
000001FF00
000000FF00
0000007F80
0000003F80
7F00003F80
7F00003F80
7F80003F80
3F80003F80
3FC0007F00
1FE000FF00
1FFC03FE00
0FFFFFFE00
07FFFFFC00
01FFFFF800
00FFFFE000
003FFF8000
0000E00000
ENDCHAR
STARTCHAR 00A8
ENCODING 168
SWIDTH 360 0
DWIDTH 28 0
BBX 24 8 2 49
BITMAP
3E007E
7F007F
7F80FF
FF80FF
7F80FF
7F80FF
7F80FF
3F007E
ENDCHAR
STARTCHAR 00A9
ENCODING 169
SWIDTH 810 0
DWIDTH 63 0
BBX 57 56 3 -1
BITMAP
000007FFF8000000
00007FFFFF000000
0001FFFFFFC00000
0007FFFFFFF00000
000FFF007FFC0000
003FF00003FE0000
007FC00000FF0000
00FF0000003F8000
01FC0000001FC000
03F80000000FE000
03F000000007E000
07E0007F8003F000
0FC003FFF001F800
0F800FFFFC00F800
1F801FFFFE00FC00
1F003FF3FF007C00
3F007F003F803E00
3E00FC000FC03E00
3E01F80007C03E00
7C01F00003E01E00
7C03E00003E01F00
7C03E00001F01F00
7C03C00001F01F00
7807C00000000F00
F807C00000000F00
F807C00000000F00
F807C00000000F80
F807C00000000F80
F807C00000000F80
F807C00000000F80
F807C00000000F00
7807C00000000F00
7C07C00001F01F00
7C03E00001F01F00
7C03E00001E01F00
7C01F00003E01E00
3E01F80007E03E00
3E00FC000FC03E00
3F007E003F807E00
1F007FC0FF007C00
1F803FFFFE00FC00
0F800FFFFC00F800
0FC007FFF001F800
07E000FFC003F000
07F000000007F000
03F80000000FE000
01FC0000001FC000
00FE0000003F8000
007F800000FF0000
003FE00003FE0000
001FFE001FFC0000
0007FFFFFFF00000
0003FFFFFFE00000
0000FFFFFF800000
00001FFFFC000000
000000FFC0000000
ENDCHAR
STARTCHAR 00AA
ENCODING 170
SWIDTH 141 0
DWIDTH 11 0
BBX 11 11 0 30
BITMAP
3EE0
7FE0
71E0
F0E0
E0E0
E0E0
E0E0
F1E0
7FE0
7EE0
1CE0
ENDCHAR
STARTCHAR 00AB
ENCODING 171
SWIDTH 630 0
DWIDTH 49 0
BBX 43 33 3 8
BITMAP
0001FC000FE0
0003F8001FC0
0007F0003F80
000FE0007F00
001FC000FE00
003F8001FC00
007F8003F800
00FF0007F000
01FE000FF000
01FC000FE000
03F8001FC000
07F0003F8000
0FE0007F0000
1FC000FE0000
3F8001FC0000
7F0003F80000
FE0007F00000
7F0003F80000
3F8001FC0000
1FC000FE0000
0FE0007F0000
07F0003F8000
03F8001FC000
01FC000FE000
00FE0007F000
007F0003F800
003F8001FC00
001FC000FE00
000FE0007F00
0007F0003F00
0007F0003F80
0003F8001FC0
0001FC000FE0
ENDCHAR
STARTCHAR 00AC
ENCODING 172
SWIDTH 642 0
DWIDTH 50 0
BBX 39 20 6 21
BITMAP
FFFFFFFFFE
FFFFFFFFFE
FFFFFFFFFE
FFFFFFFFFE
FFFFFFFFFE
000000007E
000000007E
000000007E
000000007E
000000007E
000000007E
000000007E
000000007E
000000007E
000000007E
000000007E
000000007E
000000007E
000000007E
000000007E
ENDCHAR
STARTCHAR 00AD
ENCODING 173
SWIDTH 591 0
DWIDTH 46 0
BBX 29 5 9 22
BITMAP
FFFFFFF8
FFFFFFF8
FFFFFFF8
FFFFFFF8
FFFFFFF8
ENDCHAR
STARTCHAR 00AE
ENCODING 174
SWIDTH 334 0
DWIDTH 26 0
BBX 20 19 3 35
BITMAP
03FE00
0FFF00
1E0380
3801C0
31F0E0
71FC60
618C70
618C30
618C30
E1FC30
61B830
619870
719C60
718CE0
3800E0
1C01C0
1F8F80
07FF00
01FC00
ENDCHAR
STARTCHAR 00AF
ENCODING 175
SWIDTH 360 0
DWIDTH 28 0
BBX 24 3 2 50
BITMAP
FFFFFF
FFFFFF
FFFFFF
ENDCHAR
STARTCHAR 00B0
ENCODING 176
SWIDTH 295 0
DWIDTH 23 0
BBX 15 15 4 52
BITMAP
0FE0
1FF8
3FFC
7C7C
781E
F01E
F00E
F00E
F00E
701E
783C
3FFC
1FF8
0FF0
0380
ENDCHAR
STARTCHAR 00B1
ENCODING 177
SWIDTH 604 0
DWIDTH 47 0
BBX 31 42 8 0
BITMAP
0007E000
0007E000
0007E000
0007E000
0007E000
0007E000
0007E000
0007E000
0007E000
0007E000
0007E000
0007E000
FFFFFFFE
FFFFFFFE
FFFFFFFE
FFFFFFFE
FFFFFFFE
FFFFFFFE
0007E000
0007E000
0007E000
0007E000
0007E000
0007E000
0007E000
0007E000
0007E000
0007E000
0007E000
0007E000
00000000
00000000
00000000
00000000
00000000
00000000
00000000
FFFFFFFE
FFFFFFFE
FFFFFFFE
FFFFFFFE
FFFFFFFE
ENDCHAR
STARTCHAR 00B2
ENCODING 178
SWIDTH 295 0
DWIDTH 23 0
BBX 20 30 2 29
BITMAP
03FC00
0FFF00
1FFF80
3FFFC0
7E07C0
7C03E0
7801E0
F801E0
F801E0
F801E0
0001E0
0003E0
0003C0
0007C0
000F80
001F00
003E00
007C00
00F800
03F000
07E000
0FC000
1F8000
3F0000
7E0000
FC0000
FFFFF0
FFFFF0
FFFFF0
FFFFF0
ENDCHAR
STARTCHAR 00B3
ENCODING 179
SWIDTH 308 0
DWIDTH 24 0
BBX 20 30 2 29
BITMAP
03FE00
0FFF80
1FFFC0
3FDFE0
3E03E0
7C01F0
7801F0
0000F0
0000F0
0001F0
0001F0
0003E0
001FC0
00FF80
00FF00
00FF80
000FE0
0003E0
0001F0
0000F0
0000F0
0000F0
F800F0
F801F0
7C01F0
7F07E0
3FFFE0
1FFFC0
0FFF00
01FC00
ENDCHAR
STARTCHAR 00B4
ENCODING 180
SWIDTH 244 0
DWIDTH 19 0
BBX 15 14 2 48
BITMAP
00FE
01FC
03F8
03F8
07F0
07E0
0FE0
0FC0
1F80
1F80
3F00
3E00
7E00
FC00
ENDCHAR
STARTCHAR 00B5
ENCODING 181
SWIDTH 642 0
DWIDTH 50 0
BBX 42 57 5 -16
BITMAP
FE00001FC000
FE00001FC000
FE00001FC000
FE00001FC000
FE00001FC000
FE00001FC000
FE00001FC000
FE00001FC000
FE00001FC000
FE00001FC000
FE00001FC000
FE00001FC000
FE00001FC000
FE00001FC000
FE00001FC000
FE00001FC000
FE00001FC000
FE00001FC000
FE00001FC000
FE00001FC000
FE00001FC000
FE00001FC000
FE00001FC000
FE00001FC000
FE00001FC000
FE00001FC000
FE00003FC000
FE00003FC000
FE00003FC000
FF00007FC000
FF00007FC000
FF0000FFC000
FF8001FFC000
FF8001DFC000
FFC007DFE000
FFF81F8FF000
FFFFFF8FFFC0
FFFFFF07FFC0
FDFFFE07FFC0
FEFFFC03FFC0
FE3FF000FFC0
FE0000000000
FE0000000000
FE0000000000
FE0000000000
FE0000000000
FE0000000000
FE0000000000
FE0000000000
FE0000000000
FE0000000000
FE0000000000
FE0000000000
FE0000000000
FE0000000000
FE0000000000
FE0000000000
ENDCHAR
STARTCHAR 00B6
ENCODING 182
SWIDTH 527 0
DWIDTH 41 0
BBX 34 54 2 0
BITMAP
007FFFFFC0
01FFFFFFC0
07FFFFFFC0
0FFFFFFFC0
1FFFFFFFC0
3FFFFF03C0
3FFFFF03C0
7FFFFF03C0
7FFFFF03C0
FFFFFF03C0
FFFFFF03C0
FFFFFF03C0
FFFFFF03C0
FFFFFF03C0
FFFFFF03C0
FFFFFF03C0
FFFFFF03C0
FFFFFF03C0
7FFFFF03C0
7FFFFF03C0
7FFFFF03C0
3FFFFF03C0
1FFFFF03C0
0FFFFF03C0
07FFFF03C0
03FFFF03C0
00FFFF03C0
0003FF03C0
00000F03C0
00000F03C0
00000F03C0
00000F03C0
00000F03C0
00000F03C0
00000F03C0
00000F03C0
00000F03C0
00000F03C0
00000F03C0
00000F03C0
00000F03C0
00000F03C0
00000F03C0
00000F03C0
00000F03C0
00000F03C0
00000F03C0
00000F03C0
00000F03C0
00000F03C0
00000F03C0
00000F03C0
00000F03C0
00000F03C0
ENDCHAR
STARTCHAR 00B7
ENCODING 183
SWIDTH 282 0
DWIDTH 22 0
BBX 9 9 6 24
BITMAP
1E00
3F00
7F80
7F80
FF80
7F80
7F80
3F00
1E00
ENDCHAR
STARTCHAR 00B8
ENCODING 184
SWIDTH 244 0
DWIDTH 19 0
BBX 15 19 2 -19
BITMAP
1E00
3C00
3C00
3C00
7F80
7FF0
7FF8
FFFC
007C
001E
001E
001E
001E
003E
007C
7FFC
7FF8
7FF0
7FC0
ENDCHAR
STARTCHAR 00B9
ENCODING 185
SWIDTH 257 0
DWIDTH 20 0
BBX 16 29 2 30
BITMAP
07C0
0FC0
1FC0
3FC0
7FC0
FFC0
FBC0
E3C0
C3C0
83C0
03C0
03C0
03C0
03C0
03C0
03C0
03C0
03C0
03C0
03C0
03C0
03C0
03C0
03C0
03C0
FFFF
FFFF
FFFF
FFFF
ENDCHAR
STARTCHAR 00BA
ENCODING 186
SWIDTH 154 0
DWIDTH 12 0
BBX 11 11 1 30
BITMAP
3F00
7F80
71C0
E1C0
E0E0
E0E0
E0C0
E1C0
7BC0
3F80
1F00
ENDCHAR
STARTCHAR 00BB
ENCODING 187
SWIDTH 630 0
DWIDTH 49 0
BBX 43 33 3 8
BITMAP
FE0007F00000
7F0003F80000
3F8001FC0000
1FC000FE0000
0FE0007F0000
07F0003F8000
03F8001FC000
01FC000FE000
00FE0007F000
007F0003F800
003F8001FC00
001FC000FE00
000FE0007F00
0007F0003F80
0007F8003FC0
0003FC001FE0
0001FC000FE0
0003F8001FC0
0007F8003FC0
000FF0007F80
001FE000FF00
003FC001FE00
003F8001FC00
007F0003F800
00FE0007F000
01FC000FE000
03F8001FC000
07F0003F8000
0FE0007F0000
1FC000FE0000
3F8001FC0000
7F0003F80000
FE0007F00000
ENDCHAR
STARTCHAR 00BC
ENCODING 188
SWIDTH 810 0
DWIDTH 63 0
BBX 57 54 3 0
BITMAP
07E00000003F0000
0FE00000007F0000
1FE00000007E0000
7FE0000000FC0000
FFE0000001FC0000
FFE0000001F80000
FBE0000003F80000
F3E0000003F00000
C3E0000007E00000
83E000000FE00000
03E000000FC00000
03E000001FC00000
03E000001F800000
03E000003F000000
03E000007F000000
03E000007E000000
03E00000FE000000
03E00000FC000000
03E00001F8000000
03E00003F8000000
03E00003F0000000
03E00007F0000000
FFFF0007E0000000
FFFF000FC0000000
FFFF001FC0000000
FFFF001F80000000
FFFF003F80000000
0000003F0001FC00
0000007E0003FC00
000000FE0003FC00
000000FC0007FC00
000001FC000FFC00
000001F8000F7C00
000003F0001E7C00
000007F0003E7C00
000007E0003C7C00
00000FE000787C00
00000FC000707C00
00001F8000F07C00
00003F8001E07C00
00003F0001C07C00
00007F0003C07C00
00007E0007807C00
0000FC0007007C00
0001FC0007FFFF80
0001F80007FFFF80
0003F80007FFFF80
0003F00000007C00
0007E00000007C00
000FE00000007C00
000FC00000007C00
001FC00000007C00
001F800000007C00
003F000000007C00
ENDCHAR
STARTCHAR 00BD
ENCODING 189
SWIDTH 835 0
DWIDTH 65 0
BBX 59 54 3 0
BITMAP
07E00000001FC000
0FE00000001F8000
1FE00000003F8000
7FE00000003F0000
FFE00000007E0000
FFE0000000FE0000
FBE0000000FC0000
F3E0000001FC0000
C3E0000001F80000
83E0000003F00000
03E0000007F00000
03E0000007E00000
03E000000FE00000
03E000000FC00000
03E000001F800000
03E000003F800000
03E000003F000000
03E000007F000000
03E000007E000000
03E00000FC000000
03E00001FC000000
03E00001F8000000
FFFF0003F8000000
FFFF0003F0000000
FFFF0007E0000000
FFFF000FE0000000
FFFF000FC001F800
0000001FC007FE00
0000001F800FFF80
0000003F001FFFC0
0000007F003FDFC0
0000007E003E07C0
000000FE007C03E0
000000FC007C03E0
000001F8007C03E0
000003F8007C03E0
000003F0000003E0
000007F0000003C0
000007E0000007C0
00000FC000000F80
00001FC000001F80
00001F8000003F00
00003F8000007E00
00003F000000FC00
00007E000001F800
0000FE000007F000
0000FC00000FE000
0001FC00001F8000
0001F800003F0000
0003F000007E0000
0007F000007FFFE0
0007E000007FFFE0
000FE000007FFFE0
000FC000007FFFE0
ENDCHAR
STARTCHAR 00BE
ENCODING 190
SWIDTH 835 0
DWIDTH 65 0
BBX 60 55 3 0
BITMAP
01F8000000000000
07FF0000000FC000
1FFF8000001FC000
3FFFC000001F8000
3F9FC000003F8000
7E07E000003F0000
7C03E000007E0000
7803E00000FE0000
0003E00000FC0000
0003E00001FC0000
0003E00001F80000
0007C00003F00000
00FFC00007F00000
00FF000007E00000
00FE00000FE00000
00FF80000FC00000
0007C0001F800000
0003E0003F800000
0001E0003F000000
0001F0007F000000
0001F0007E000000
F801F000FC000000
FC03E001FC000000
7E07E001F8000000
7FFFE003F8000000
3FFFC003F0000000
1FFF8007E0000000
0FFF0007E0000000
00F0000FC0007F00
0000001FC0007F00
0000001F8000FF00
0000003F0000FF00
0000003F0001FF00
0000007E0003DF00
000000FE0003DF00
000000FC00079F00
000001F8000F1F00
000001F8000F1F00
000003F0001E1F00
000007F0003C1F00
000007E0003C1F00
00000FC000781F00
00000FC000701F00
00001F8000F01F00
00003F8001E01F00
00003F0001FFFFF0
00007E0001FFFFF0
00007E0001FFFFF0
0000FC0000001F00
0001FC0000001F00
0001F80000001F00
0003F00000001F00
0003F00000001F00
0007E00000001F00
0007E00000001F00
ENDCHAR
STARTCHAR 00BF
ENCODING 191
SWIDTH 565 0
DWIDTH 44 0
BBX 36 56 5 -19
BITMAP
0000F00000
0001FC0000
0003FC0000
0003FC0000
0003FE0000
0003FC0000
0001FC0000
0001F80000
0000000000
0000000000
0000000000
0000000000
0000000000
0000000000
0000000000
0001FC0000
0001FC0000
0001F80000
0003F80000
0003F80000
0007F80000
000FF00000
000FE00000
001FC00000
003FC00000
007F800000
01FF000000
03FE000000
07FC000000
0FF8000000
0FF0000000
1FE0000000
3FC0000000
3F80000000
7F00000000
7F00000000
FE00000000
FE00000000
FE000007F0
FC000007F0
FC000007F0
FC000007E0
FE00000FE0
FE00000FE0
FE00001FE0
FF00001FC0
7F00003FC0
7F80007FC0
3FE000FF80
3FFC07FF00
1FFFFFFE00
0FFFFFFE00
07FFFFF800
01FFFFF000
00FFFFC000
001FFF0000
ENDCHAR
STARTCHAR 00C0
ENCODING 192
SWIDTH 668 0
DWIDTH 52 0
BBX 47 74 3 0
BITMAP
001FC0000000
000FE0000000
0007F0000000
0007F0000000
0003F8000000
0001F8000000
0001FC000000
0000FC000000
00007E000000
00007E000000
00003F000000
00001F800000
00001F800000
00000FC00000
000000000000
000000000000
000000000000
000000000000
000000000000
000000000000
00000FE00000
00000FE00000
00001FF00000
00001FF00000
00003FF80000
00003FF80000
00003FF80000
00007FFC0000
00007EFC0000
0000FEFC0000
0000FCFE0000
0000FC7E0000
0001FC7F0000
0001F83F0000
0001F83F0000
0003F83F8000
0003F01F8000
0007F01F8000
0007E01FC000
0007E00FC000
000FE00FE000
000FC00FE000
000FC007E000
001FC007F000
001F8003F000
003F8003F000
003F8003F800
003F0001F800
007F0001FC00
007F0001FC00
007E0000FC00
00FE0000FE00
00FC00007E00
01FFFFFFFE00
01FFFFFFFF00
01FFFFFFFF00
03FFFFFFFF80
03FFFFFFFF80
03F000001F80
07F000001FC0
07F000001FC0
0FE000000FE0
0FE000000FE0
0FC0000007E0
1FC0000007F0
1FC0000007F0
1F80000003F0
3F80000003F8
3F80000003F8
7F00000001FC
7F00000001FC
7F00000001FC
FE00000000FE
FE00000000FE
ENDCHAR
STARTCHAR 00C1
ENCODING 193
SWIDTH 668 0
DWIDTH 52 0
BBX 47 74 3 0
BITMAP
0000000FE000
0000000FE000
0000001FC000
0000001F8000
0000003F8000
0000003F0000
0000007E0000
0000007E0000
000000FC0000
000001F80000
000001F80000
000003F00000
000003E00000
000007E00000
000000000000
000000000000
000000000000
000000000000
000000000000
000000000000
00000FE00000
00000FE00000
00001FF00000
00001FF00000
00003FF80000
00003FF80000
00003FF80000
00007FFC0000
00007EFC0000
0000FEFC0000
0000FCFE0000
0000FC7E0000
0001FC7F0000
0001F83F0000
0001F83F0000
0003F83F8000
0003F01F8000
0007F01F8000
0007E01FC000
0007E00FC000
000FE00FE000
000FC00FE000
000FC007E000
001FC007F000
001F8003F000
003F8003F000
003F8003F800
003F0001F800
007F0001FC00
007F0001FC00
007E0000FC00
00FE0000FE00
00FC00007E00
01FFFFFFFE00
01FFFFFFFF00
01FFFFFFFF00
03FFFFFFFF80
03FFFFFFFF80
03F000001F80
07F000001FC0
07F000001FC0
0FE000000FE0
0FE000000FE0
0FC0000007E0
1FC0000007F0
1FC0000007F0
1F80000003F0
3F80000003F8
3F80000003F8
7F00000001FC
7F00000001FC
7F00000001FC
FE00000000FE
FE00000000FE
ENDCHAR
STARTCHAR 00C2
ENCODING 194
SWIDTH 668 0
DWIDTH 52 0
BBX 47 71 3 0
BITMAP
00000FE00000
00001FF00000
00003FF00000
00007FF80000
0000FEFC0000
0000FCFE0000
0001F87F0000
0003F03F8000
0007F01FC000
000FE00FE000
001FC007F000
000000000000
000000000000
000000000000
000000000000
000000000000
000000000000
00000FE00000
00000FE00000
00001FF00000
00001FF00000
00003FF80000
00003FF80000
00003FF80000
00007FFC0000
00007EFC0000
0000FEFC0000
0000FCFE0000
0000FC7E0000
0001FC7F0000
0001F83F0000
0001F83F0000
0003F83F8000
0003F01F8000
0007F01F8000
0007E01FC000
0007E00FC000
000FE00FE000
000FC00FE000
000FC007E000
001FC007F000
001F8003F000
003F8003F000
003F8003F800
003F0001F800
007F0001FC00
007F0001FC00
007E0000FC00
00FE0000FE00
00FC00007E00
01FFFFFFFE00
01FFFFFFFF00
01FFFFFFFF00
03FFFFFFFF80
03FFFFFFFF80
03F000001F80
07F000001FC0
07F000001FC0
0FE000000FE0
0FE000000FE0
0FC0000007E0
1FC0000007F0
1FC0000007F0
1F80000003F0
3F80000003F8
3F80000003F8
7F00000001FC
7F00000001FC
7F00000001FC
FE00000000FE
FE00000000FE
ENDCHAR
STARTCHAR 00C3
ENCODING 195
SWIDTH 668 0
DWIDTH 52 0
BBX 47 70 3 0
BITMAP
0001FC03C000
0003FF03C000
0003FF83C000
0007FFE7C000
0007CFFFC000
000F83FF8000
000F01FF0000
000F007E0000
000000000000
000000000000
000000000000
000000000000
000000000000
000000000000
000000000000
000000000000
00000FE00000
00000FE00000
00001FF00000
00001FF00000
00003FF80000
00003FF80000
00003FF80000
00007FFC0000
00007EFC0000
0000FEFC0000
0000FCFE0000
0000FC7E0000
0001FC7F0000
0001F83F0000
0001F83F0000
0003F83F8000
0003F01F8000
0007F01F8000
0007E01FC000
0007E00FC000
000FE00FE000
000FC00FE000
000FC007E000
001FC007F000
001F8003F000
003F8003F000
003F8003F800
003F0001F800
007F0001FC00
007F0001FC00
007E0000FC00
00FE0000FE00
00FC00007E00
01FFFFFFFE00
01FFFFFFFF00
01FFFFFFFF00
03FFFFFFFF80
03FFFFFFFF80
03F000001F80
07F000001FC0
07F000001FC0
0FE000000FE0
0FE000000FE0
0FC0000007E0
1FC0000007F0
1FC0000007F0
1F80000003F0
3F80000003F8
3F80000003F8
7F00000001FC
7F00000001FC
7F00000001FC
FE00000000FE
FE00000000FE
ENDCHAR
STARTCHAR 00C4
ENCODING 196
SWIDTH 668 0
DWIDTH 52 0
BBX 47 71 3 0
BITMAP
0003C0038000
0007E00FC000
000FF01FE000
000FF01FE000
000FF01FF000
000FF01FE000
000FF01FE000
0007E00FC000
0003C0078000
000000000000
000000000000
000000000000
000000000000
000000000000
000000000000
000000000000
000000000000
00000FE00000
00000FE00000
00001FF00000
00001FF00000
00003FF80000
00003FF80000
00003FF80000
00007FFC0000
00007EFC0000
0000FEFC0000
0000FCFE0000
0000FC7E0000
0001FC7F0000
0001F83F0000
0001F83F0000
0003F83F8000
0003F01F8000
0007F01F8000
0007E01FC000
0007E00FC000
000FE00FE000
000FC00FE000
000FC007E000
001FC007F000
001F8003F000
003F8003F000
003F8003F800
003F0001F800
007F0001FC00
007F0001FC00
007E0000FC00
00FE0000FE00
00FC00007E00
01FFFFFFFE00
01FFFFFFFF00
01FFFFFFFF00
03FFFFFFFF80
03FFFFFFFF80
03F000001F80
07F000001FC0
07F000001FC0
0FE000000FE0
0FE000000FE0
0FC0000007E0
1FC0000007F0
1FC0000007F0
1F80000003F0
3F80000003F8
3F80000003F8
7F00000001FC
7F00000001FC
7F00000001FC
FE00000000FE
FE00000000FE
ENDCHAR
STARTCHAR 00C5
ENCODING 197
SWIDTH 668 0
DWIDTH 52 0
BBX 47 75 3 0
BITMAP
000003000000
00000FE00000
00003FF00000
00003EF80000
0000783C0000
0000701C0000
0000701C0000
0000701C0000
0000701C0000
0000783C0000
00007C780000
00003FF80000
00001FF00000
000007C00000
000000000000
000000000000
000000000000
000000000000
000000000000
000000000000
000000000000
00000FE00000
00000FE00000
00001FF00000
00001FF00000
00003FF80000
00003FF80000
00003FF80000
00007FFC0000
00007EFC0000
0000FEFC0000
0000FCFE0000
0000FC7E0000
0001FC7F0000
0001F83F0000
0001F83F0000
0003F83F8000
0003F01F8000
0007F01F8000
0007E01FC000
0007E00FC000
000FE00FE000
000FC00FE000
000FC007E000
001FC007F000
001F8003F000
003F8003F000
003F8003F800
003F0001F800
007F0001FC00
007F0001FC00
007E0000FC00
00FE0000FE00
00FC00007E00
01FFFFFFFE00
01FFFFFFFF00
01FFFFFFFF00
03FFFFFFFF80
03FFFFFFFF80
03F000001F80
07F000001FC0
07F000001FC0
0FE000000FE0
0FE000000FE0
0FC0000007E0
1FC0000007F0
1FC0000007F0
1F80000003F0
3F80000003F8
3F80000003F8
7F00000001FC
7F00000001FC
7F00000001FC
FE00000000FE
FE00000000FE
ENDCHAR
STARTCHAR 00C6
ENCODING 198
SWIDTH 951 0
DWIDTH 74 0
BBX 67 54 2 0
BITMAP
0000000FFFFFFFFFE0
0000000FFFFFFFFFE0
0000001FFFFFFFFFE0
0000001FFFFFFFFFE0
0000003FFFFFFFFFE0
0000003FFFFFFFFFE0
0000007FBF80000000
000000FF3F80000000
000000FF3F80000000
000001FE3F80000000
000001FE3F80000000
000003FC3F80000000
000003FC3F80000000
000007F83F80000000
000007F03F80000000
00000FF03F80000000
00000FE03F80000000
00001FE03F80000000
00001FC03F80000000
00003FC03F80000000
00007F803F80000000
00007F803F80000000
0000FF003F80000000
0000FF003F80000000
0001FE003FFFFFFF00
0001FC003FFFFFFF00
0003FC003FFFFFFF00
0003F8003FFFFFFF00
0007F8003FFFFFFF00
0007F0003F80000000
000FF0003F80000000
000FE0003F80000000
001FE0003F80000000
001FFFFFFF80000000
003FFFFFFF80000000
007FFFFFFF80000000
007FFFFFFF80000000
00FFFFFFFF80000000
00FE00003F80000000
01FE00003F80000000
01FC00003F80000000
03FC00003F80000000
03F800003F80000000
07F800003F80000000
07F000003F80000000
0FF000003F80000000
0FE000003F80000000
1FE000003F80000000
3FC000003FFFFFFFE0
3F8000003FFFFFFFE0
7F8000003FFFFFFFE0
7F0000003FFFFFFFE0
FF0000003FFFFFFFE0
FE0000003FFFFFFFE0
ENDCHAR
STARTCHAR 00C7
ENCODING 199
SWIDTH 707 0
DWIDTH 55 0
BBX 48 75 4 -19
BITMAP
000003C00000
00007FFF8000
0003FFFFE000
000FFFFFF800
001FFFFFFE00
003FFFFFFF00
00FFFF7FFF80
01FFE001FFC0
01FF00007FE0
03FE00001FF0
07FC00000FF0
0FF8000007F8
0FF0000003F8
1FE0000001FC
1FC0000001FC
1FC0000000FE
3FC0000000FE
3F800000007E
3F800000007F
7F000000007F
7F0000000000
7F0000000000
7F0000000000
7F0000000000
FF0000000000
FE0000000000
FE0000000000
FE0000000000
FE0000000000
FE0000000000
FE0000000000
FE0000000000
FF0000000000
7F0000000000
7F0000000000
7F0000000000
7F0000000000
7F0000000000
3F8000000000
3F800000007E
3FC0000000FE
1FC0000000FE
1FE0000001FC
1FE0000001FC
0FF0000003F8
07F8000007F8
07FC00000FF0
03FE00001FE0
01FF80007FE0
00FFE001FFC0
007FFFFFFF80
003FFFFFFF00
001FFFFFFC00
000FFFFFF800
0003FFFFE000
00007FFF0000
000001E00000
000001E00000
000003C00000
000003C00000
000003FC0000
000007FF8000
000007FFC000
000007FFC000
00000003E000
00000001E000
00000000E000
00000000E000
00000001E000
00000001E000
00000007C000
000003FFC000
000003FF8000
000003FF0000
000003FC0000
ENDCHAR
STARTCHAR 00C8
ENCODING 200
SWIDTH 565 0
DWIDTH 44 0
BBX 33 74 6 0
BITMAP
07F0000000
07F0000000
03F8000000
01F8000000
01FC000000
00FC000000
007E000000
007E000000
003F000000
001F800000
001F800000
000FC00000
0007C00000
0007E00000
0000000000
0000000000
0000000000
0000000000
0000000000
0000000000
FFFFFFFF80
FFFFFFFF80
FFFFFFFF80
FFFFFFFF80
FFFFFFFF80
FFFFFFFF80
FE00000000
FE00000000
FE00000000
FE00000000
FE00000000
FE00000000
FE00000000
FE00000000
FE00000000
FE00000000
FE00000000
FE00000000
FE00000000
FE00000000
FE00000000
FE00000000
FE00000000
FE00000000
FFFFFFFC00
FFFFFFFC00
FFFFFFFC00
FFFFFFFC00
FFFFFFFC00
FE00000000
FE00000000
FE00000000
FE00000000
FE00000000
FE00000000
FE00000000
FE00000000
FE00000000
FE00000000
FE00000000
FE00000000
FE00000000
FE00000000
FE00000000
FE00000000
FE00000000
FE00000000
FE00000000
FFFFFFFF80
FFFFFFFF80
FFFFFFFF80
FFFFFFFF80
FFFFFFFF80
FFFFFFFF80
ENDCHAR
STARTCHAR 00C9
ENCODING 201
SWIDTH 565 0
DWIDTH 44 0
BBX 33 74 6 0
BITMAP
000007F800
000007F000
00000FE000
00000FE000
00001FC000
00001F8000
00003F8000
00003F0000
00007E0000
00007E0000
0000FC0000
0001F80000
0001F00000
0003F00000
0000000000
0000000000
0000000000
0000000000
0000000000
0000000000
FFFFFFFF80
FFFFFFFF80
FFFFFFFF80
FFFFFFFF80
FFFFFFFF80
FFFFFFFF80
FE00000000
FE00000000
FE00000000
FE00000000
FE00000000
FE00000000
FE00000000
FE00000000
FE00000000
FE00000000
FE00000000
FE00000000
FE00000000
FE00000000
FE00000000
FE00000000
FE00000000
FE00000000
FFFFFFFC00
FFFFFFFC00
FFFFFFFC00
FFFFFFFC00
FFFFFFFC00
FE00000000
FE00000000
FE00000000
FE00000000
FE00000000
FE00000000
FE00000000
FE00000000
FE00000000
FE00000000
FE00000000
FE00000000
FE00000000
FE00000000
FE00000000
FE00000000
FE00000000
FE00000000
FE00000000
FFFFFFFF80
FFFFFFFF80
FFFFFFFF80
FFFFFFFF80
FFFFFFFF80
FFFFFFFF80
ENDCHAR
STARTCHAR 00CA
ENCODING 202
SWIDTH 565 0
DWIDTH 44 0
BBX 33 71 6 0
BITMAP
0007F00000
000FF80000
001FFC0000
001FFE0000
003F7F0000
007E3F0000
00FE1F8000
01FC1FC000
03F80FE000
07F007F000
0FE003F800
0000000000
0000000000
0000000000
0000000000
0000000000
0000000000
FFFFFFFF80
FFFFFFFF80
FFFFFFFF80
FFFFFFFF80
FFFFFFFF80
FFFFFFFF80
FE00000000
FE00000000
FE00000000
FE00000000
FE00000000
FE00000000
FE00000000
FE00000000
FE00000000
FE00000000
FE00000000
FE00000000
FE00000000
FE00000000
FE00000000
FE00000000
FE00000000
FE00000000
FFFFFFFC00
FFFFFFFC00
FFFFFFFC00
FFFFFFFC00
FFFFFFFC00
FE00000000
FE00000000
FE00000000
FE00000000
FE00000000
FE00000000
FE00000000
FE00000000
FE00000000
FE00000000
FE00000000
FE00000000
FE00000000
FE00000000
FE00000000
FE00000000
FE00000000
FE00000000
FE00000000
FFFFFFFF80
FFFFFFFF80
FFFFFFFF80
FFFFFFFF80
FFFFFFFF80
FFFFFFFF80
ENDCHAR
STARTCHAR 00CB
ENCODING 203
SWIDTH 565 0
DWIDTH 44 0
BBX 33 71 6 0
BITMAP
00E001C000
03F007E000
07F80FF000
07F80FF800
07F80FF800
07F80FF800
07F80FF000
03F007F000
01E003C000
0000000000
0000000000
0000000000
0000000000
0000000000
0000000000
0000000000
0000000000
FFFFFFFF80
FFFFFFFF80
FFFFFFFF80
FFFFFFFF80
FFFFFFFF80
FFFFFFFF80
FE00000000
FE00000000
FE00000000
FE00000000
FE00000000
FE00000000
FE00000000
FE00000000
FE00000000
FE00000000
FE00000000
FE00000000
FE00000000
FE00000000
FE00000000
FE00000000
FE00000000
FE00000000
FFFFFFFC00
FFFFFFFC00
FFFFFFFC00
FFFFFFFC00
FFFFFFFC00
FE00000000
FE00000000
FE00000000
FE00000000
FE00000000
FE00000000
FE00000000
FE00000000
FE00000000
FE00000000
FE00000000
FE00000000
FE00000000
FE00000000
FE00000000
FE00000000
FE00000000
FE00000000
FE00000000
FFFFFFFF80
FFFFFFFF80
FFFFFFFF80
FFFFFFFF80
FFFFFFFF80
FFFFFFFF80
ENDCHAR
STARTCHAR 00CC
ENCODING 204
SWIDTH 231 0
DWIDTH 18 0
BBX 16 74 -3 0
BITMAP
FF00
7F00
3F80
3F80
1FC0
0FC0
0FE0
07E0
03F0
03F0
01F8
00FC
00FC
007E
0000
0000
0000
0000
0000
0000
007F
007F
007F
007F
007F
007F
007F
007F
007F
007F
007F
007F
007F
007F
007F
007F
007F
007F
007F
007F
007F
007F
007F
007F
007F
007F
007F
007F
007F
007F
007F
007F
007F
007F
007F
007F
007F
007F
007F
007F
007F
007F
007F
007F
007F
007F
007F
007F
007F
007F
007F
007F
007F
007F
ENDCHAR
STARTCHAR 00CD
ENCODING 205
SWIDTH 231 0
DWIDTH 18 0
BBX 16 74 6 0
BITMAP
00FF
00FE
01FC
01FC
03F8
03F0
07E0
07E0
0FC0
1F80
1F80
3F00
3E00
7E00
0000
0000
0000
0000
0000
0000
FE00
FE00
FE00
FE00
FE00
FE00
FE00
FE00
FE00
FE00
FE00
FE00
FE00
FE00
FE00
FE00
FE00
FE00
FE00
FE00
FE00
FE00
FE00
FE00
FE00
FE00
FE00
FE00
FE00
FE00
FE00
FE00
FE00
FE00
FE00
FE00
FE00
FE00
FE00
FE00
FE00
FE00
FE00
FE00
FE00
FE00
FE00
FE00
FE00
FE00
FE00
FE00
FE00
FE00
ENDCHAR
STARTCHAR 00CE
ENCODING 206
SWIDTH 231 0
DWIDTH 18 0
BBX 25 71 -3 0
BITMAP
007F0000
00FF8000
01FFC000
01FFE000
03F7E000
07E3F000
0FC3F800
1FC1FC00
3F80FE00
7F007F00
FE003F80
00000000
00000000
00000000
00000000
00000000
00000000
007F0000
007F0000
007F0000
007F0000
007F0000
007F0000
007F0000
007F0000
007F0000
007F0000
007F0000
007F0000
007F0000
007F0000
007F0000
007F0000
007F0000
007F0000
007F0000
007F0000
007F0000
007F0000
007F0000
007F0000
007F0000
007F0000
007F0000
007F0000
007F0000
007F0000
007F0000
007F0000
007F0000
007F0000
007F0000
007F0000
007F0000
007F0000
007F0000
007F0000
007F0000
007F0000
007F0000
007F0000
007F0000
007F0000
007F0000
007F0000
007F0000
007F0000
007F0000
007F0000
007F0000
007F0000
ENDCHAR
STARTCHAR 00CF
ENCODING 207
SWIDTH 231 0
DWIDTH 18 0
BBX 24 71 -2 0
BITMAP
3C0038
7E00FC
FF01FE
FF01FE
FF01FF
FF01FF
FF01FE
7E00FC
3C0078
000000
000000
000000
000000
000000
000000
000000
000000
00FE00
00FE00
00FE00
00FE00
00FE00
00FE00
00FE00
00FE00
00FE00
00FE00
00FE00
00FE00
00FE00
00FE00
00FE00
00FE00
00FE00
00FE00
00FE00
00FE00
00FE00
00FE00
00FE00
00FE00
00FE00
00FE00
00FE00
00FE00
00FE00
00FE00
00FE00
00FE00
00FE00
00FE00
00FE00
00FE00
00FE00
00FE00
00FE00
00FE00
00FE00
00FE00
00FE00
00FE00
00FE00
00FE00
00FE00
00FE00
00FE00
00FE00
00FE00
00FE00
00FE00
00FE00
ENDCHAR
STARTCHAR 00D0
ENCODING 208
SWIDTH 707 0
DWIDTH 55 0
BBX 48 54 4 0
BITMAP
0FFFFFFC0000
0FFFFFFF8000
0FFFFFFFE000
0FFFFFFFF800
0FFFFFFFFE00
0FFFFFFFFF00
0FE0000FFF80
0FE00001FFC0
0FE000007FE0
0FE000003FE0
0FE000000FF0
0FE000000FF8
0FE0000007F8
0FE0000003FC
0FE0000001FC
0FE0000001FC
0FE0000000FE
0FE0000000FE
0FE0000000FE
0FE0000000FF
0FE00000007F
0FE00000007F
0FE00000007F
0FE00000007F
FFFFF800007F
FFFFF800007F
FFFFF800007F
FFFFF800007F
FFFFF800007F
0FE00000007F
0FE00000007F
0FE00000007F
0FE00000007F
0FE00000007F
0FE0000000FE
0FE0000000FE
0FE0000000FE
0FE0000001FE
0FE0000001FC
0FE0000003FC
0FE0000003F8
0FE0000007F8
0FE000000FF8
0FE000001FF0
0FE000003FE0
0FE00000FFC0
0FE00003FF80
0FE0003FFF00
0FFFFFFFFE00
0FFFFFFFFC00
0FFFFFFFF000
0FFFFFFFC000
0FFFFFFF0000
0FFFFFF00000
ENDCHAR
STARTCHAR 00D1
ENCODING 209
SWIDTH 707 0
DWIDTH 55 0
BBX 43 70 6 0
BITMAP
0003F0078000
0007FC078000
000FFE0F8000
001FFF9F0000
001F3FFF0000
001E0FFE0000
001E07FE0000
001E01F80000
000000000000
000000000000
000000000000
000000000000
000000000000
000000000000
000000000000
000000000000
FF00000007E0
FF80000007E0
FF80000007E0
FFC0000007E0
FFE0000007E0
FFE0000007E0
FFF0000007E0
FFF8000007E0
FFF8000007E0
FFFC000007E0
FFFE000007E0
FDFE000007E0
FCFF000007E0
FCFF800007E0
FC7F800007E0
FC3FC00007E0
FC1FE00007E0
FC1FE00007E0
FC0FF00007E0
FC07F80007E0
FC07F80007E0
FC03FC0007E0
FC01FE0007E0
FC01FE0007E0
FC00FF0007E0
FC007F8007E0
FC007F8007E0
FC003FC007E0
FC001FE007E0
FC001FE007E0
FC000FF007E0
FC0007F807E0
FC0007F807E0
FC0003FC07E0
FC0001FE07E0
FC0001FE07E0
FC0000FF07E0
FC00007F87E0
FC00007F87E0
FC00003FC7E0
FC00001FE7E0
FC00001FE7E0
FC00000FF7E0
FC000007FFE0
FC000007FFE0
FC000003FFE0
FC000001FFE0
FC000001FFE0
FC000000FFE0
FC0000007FE0
FC0000007FE0
FC0000003FE0
FC0000001FE0
FC0000001FE0
ENDCHAR
STARTCHAR 00D2
ENCODING 210
SWIDTH 732 0
DWIDTH 57 0
BBX 49 75 4 -1
BITMAP
0007F000000000
0007F000000000
0003F800000000
0001F800000000
0001FC00000000
0000FC00000000
00007E00000000
00007F00000000
00003F00000000
00001F80000000
00001F80000000
00000FC0000000
000007C0000000
000007E0000000
00000000000000
00000000000000
00000000000000
00000000000000
000001C0000000
00007FFF000000
0003FFFFE00000
000FFFFFF80000
001FFFFFFC0000
007FFFFFFF0000
00FFFFFFFF8000
01FFE003FFC000
03FF80007FE000
03FE00003FF000
07FC00001FF000
0FF800000FF800
0FF0000007F800
1FE0000003FC00
1FC0000001FC00
3FC0000001FE00
3F80000000FE00
3F80000000FE00
7F80000000FF00
7F000000007F00
7F000000007F00
7F000000007F00
FF000000003F80
FE000000003F80
FE000000003F80
FE000000003F80
FE000000003F80
FE000000003F80
FE000000003F80
FE000000003F80
FE000000003F80
FE000000003F80
FE000000003F80
FE000000003F80
FF000000003F80
7F000000007F00
7F000000007F00
7F000000007F00
7F80000000FF00
3F80000000FF00
3F80000000FE00
3FC0000001FE00
1FE0000001FC00
1FE0000003FC00
0FF0000007F800
0FF800000FF800
07FC00001FF000
07FE00003FF000
03FF8000FFE000
01FFE003FFC000
00FFFFFFFF8000
007FFFFFFF0000
001FFFFFFE0000
000FFFFFF80000
0003FFFFE00000
00007FFF000000
000002A0000000
ENDCHAR
STARTCHAR 00D3
ENCODING 211
SWIDTH 732 0
DWIDTH 57 0
BBX 49 75 4 -1
BITMAP
00000003F80000
00000007F00000
0000000FE00000
0000000FE00000
0000001FC00000
0000001F800000
0000003F800000
0000003F000000
0000007E000000
0000007E000000
000000FC000000
000000F8000000
000001F8000000
000003F0000000
00000000000000
00000000000000
00000000000000
00000000000000
000001C0000000
00007FFF000000
0003FFFFE00000
000FFFFFF80000
001FFFFFFC0000
007FFFFFFF0000
00FFFFFFFF8000
01FFE003FFC000
03FF80007FE000
03FE00003FF000
07FC00001FF000
0FF800000FF800
0FF0000007F800
1FE0000003FC00
1FC0000001FC00
3FC0000001FE00
3F80000000FE00
3F80000000FE00
7F80000000FF00
7F000000007F00
7F000000007F00
7F000000007F00
FF000000003F80
FE000000003F80
FE000000003F80
FE000000003F80
FE000000003F80
FE000000003F80
FE000000003F80
FE000000003F80
FE000000003F80
FE000000003F80
FE000000003F80
FE000000003F80
FF000000003F80
7F000000007F00
7F000000007F00
7F000000007F00
7F80000000FF00
3F80000000FF00
3F80000000FE00
3FC0000001FE00
1FE0000001FC00
1FE0000003FC00
0FF0000007F800
0FF800000FF800
07FC00001FF000
07FE00003FF000
03FF8000FFE000
01FFE003FFC000
00FFFFFFFF8000
007FFFFFFF0000
001FFFFFFE0000
000FFFFFF80000
0003FFFFE00000
00007FFF000000
000002A0000000
ENDCHAR
STARTCHAR 00D4
ENCODING 212
SWIDTH 732 0
DWIDTH 57 0
BBX 49 72 4 -1
BITMAP
000007F0000000
00000FF8000000
00000FFC000000
00001FFE000000
00003F7F000000
00007F3F000000
0000FE1F800000
0001FC0FC00000
0003F80FE00000
0007F007F00000
000FE003F80000
00000000000000
00000000000000
00000000000000
00000000000000
000001C0000000
00007FFF000000
0003FFFFE00000
000FFFFFF80000
001FFFFFFC0000
007FFFFFFF0000
00FFFFFFFF8000
01FFE003FFC000
03FF80007FE000
03FE00003FF000
07FC00001FF000
0FF800000FF800
0FF0000007F800
1FE0000003FC00
1FC0000001FC00
3FC0000001FE00
3F80000000FE00
3F80000000FE00
7F80000000FF00
7F000000007F00
7F000000007F00
7F000000007F00
FF000000003F80
FE000000003F80
FE000000003F80
FE000000003F80
FE000000003F80
FE000000003F80
FE000000003F80
FE000000003F80
FE000000003F80
FE000000003F80
FE000000003F80
FE000000003F80
FF000000003F80
7F000000007F00
7F000000007F00
7F000000007F00
7F80000000FF00
3F80000000FF00
3F80000000FE00
3FC0000001FE00
1FE0000001FC00
1FE0000003FC00
0FF0000007F800
0FF800000FF800
07FC00001FF000
07FE00003FF000
03FF8000FFE000
01FFE003FFC000
00FFFFFFFF8000
007FFFFFFF0000
001FFFFFFE0000
000FFFFFF80000
0003FFFFE00000
00007FFF000000
000002A0000000
ENDCHAR
STARTCHAR 00D5
ENCODING 213
SWIDTH 732 0
DWIDTH 57 0
BBX 49 71 4 -1
BITMAP
00007E00F00000
0001FF80F00000
0001FFC1F00000
0003FFF3E00000
0003E7FFE00000
0003C1FFC00000
0003C0FFC00000
0007C03F000000
00000000000000
00000000000000
00000000000000
00000000000000
00000000000000
00000000000000
000001C0000000
00007FFF000000
0003FFFFE00000
000FFFFFF80000
001FFFFFFC0000
007FFFFFFF0000
00FFFFFFFF8000
01FFE003FFC000
03FF80007FE000
03FE00003FF000
07FC00001FF000
0FF800000FF800
0FF0000007F800
1FE0000003FC00
1FC0000001FC00
3FC0000001FE00
3F80000000FE00
3F80000000FE00
7F80000000FF00
7F000000007F00
7F000000007F00
7F000000007F00
FF000000003F80
FE000000003F80
FE000000003F80
FE000000003F80
FE000000003F80
FE000000003F80
FE000000003F80
FE000000003F80
FE000000003F80
FE000000003F80
FE000000003F80
FE000000003F80
FF000000003F80
7F000000007F00
7F000000007F00
7F000000007F00
7F80000000FF00
3F80000000FF00
3F80000000FE00
3FC0000001FE00
1FE0000001FC00
1FE0000003FC00
0FF0000007F800
0FF800000FF800
07FC00001FF000
07FE00003FF000
03FF8000FFE000
01FFE003FFC000
00FFFFFFFF8000
007FFFFFFF0000
001FFFFFFE0000
000FFFFFF80000
0003FFFFE00000
00007FFF000000
000002A0000000
ENDCHAR
STARTCHAR 00D6
ENCODING 214
SWIDTH 732 0
DWIDTH 57 0
BBX 49 72 4 -1
BITMAP
0000E001C00000
0003F007E00000
0007F80FF00000
0007F80FF80000
0007F80FF80000
0007F80FF80000
0007F80FF00000
0003F007F00000
0001E003C00000
00000000000000
00000000000000
00000000000000
00000000000000
00000000000000
00000000000000
000001C0000000
00007FFF000000
0003FFFFE00000
000FFFFFF80000
001FFFFFFC0000
007FFFFFFF0000
00FFFFFFFF8000
01FFE003FFC000
03FF80007FE000
03FE00003FF000
07FC00001FF000
0FF800000FF800
0FF0000007F800
1FE0000003FC00
1FC0000001FC00
3FC0000001FE00
3F80000000FE00
3F80000000FE00
7F80000000FF00
7F000000007F00
7F000000007F00
7F000000007F00
FF000000003F80
FE000000003F80
FE000000003F80
FE000000003F80
FE000000003F80
FE000000003F80
FE000000003F80
FE000000003F80
FE000000003F80
FE000000003F80
FE000000003F80
FE000000003F80
FF000000003F80
7F000000007F00
7F000000007F00
7F000000007F00
7F80000000FF00
3F80000000FF00
3F80000000FE00
3FC0000001FE00
1FE0000001FC00
1FE0000003FC00
0FF0000007F800
0FF800000FF800
07FC00001FF000
07FE00003FF000
03FF8000FFE000
01FFE003FFC000
00FFFFFFFF8000
007FFFFFFF0000
001FFFFFFE0000
000FFFFFF80000
0003FFFFE00000
00007FFF000000
000002A0000000
ENDCHAR
STARTCHAR 00D7
ENCODING 215
SWIDTH 552 0
DWIDTH 43 0
BBX 25 25 9 11
BITMAP
18000400
3C000E00
7E001F00
FF003F80
FF807F80
7FC0FF00
3FE1FE00
1FF3FC00
0FFFF800
07FFF000
03FFE000
01FFC000
00FF8000
00FFC000
01FFE000
03FFF000
07FFF800
0FF7FC00
1FE3FE00
3FC1FF00
7F80FF80
FF007F80
7E003F00
3C001E00
18000C00
ENDCHAR
STARTCHAR 00D8
ENCODING 216
SWIDTH 732 0
DWIDTH 57 0
BBX 49 61 4 -3
BITMAP
00000000007E00
0000000000FE00
000003E000FC00
00007FFF81FC00
0003FFFFE3F800
000FFFFFFBF000
001FFFFFFFF000
003FFFFFFFE000
00FFFFFFFFC000
01FFE003FFC000
01FF80007FE000
03FE00003FF000
07FC00007FF800
0FF800007FF800
0FF00000FFFC00
1FF00001FFFC00
1FE00001F9FE00
1FC00003F9FE00
3FC00007F0FE00
3F800007E0FF00
3F80000FE07F00
7F80000FC07F00
7F00001F807F80
7F00003F803F80
7F00003F003F80
7F00007E003F80
FF0000FE003F80
FE0000FC003F80
FE0001F8003F80
FE0003F8003F80
FE0003F0003F80
FE0007F0003F80
FE0007E0003F80
FE000FC0003F80
FF001FC0003F80
7F001F80003F80
7F003F00003F80
7F007F00003F80
7F007E00007F80
7F80FC00007F00
3F81FC00007F00
3F81F80000FF00
3FC3F00000FF00
3FC7F00001FE00
1FE7E00001FE00
1FEFE00003FC00
0FFFC00007FC00
0FFF800007F800
07FF80001FF800
03FF00003FF000
01FF80007FE000
01FFF003FFC000
00FFFFFFFF8000
01FFFFFFFF0000
03FFFFFFFE0000
03FFFFFFF80000
07F3FFFFE00000
07E07FFF000000
0FC000C0000000
1FC00000000000
1F800000000000
ENDCHAR
STARTCHAR 00D9
ENCODING 217
SWIDTH 681 0
DWIDTH 53 0
BBX 43 75 5 -1
BITMAP
003F80000000
003F80000000
001FC0000000
000FC0000000
000FE0000000
0007E0000000
0003F0000000
0003F8000000
0001F8000000
0000FC000000
0000FC000000
00007E000000
00003E000000
00003F000000
000000000000
000000000000
000000000000
000000000000
000000000000
000000000000
FE0000000FE0
FE0000000FE0
FE0000000FE0
FE0000000FE0
FE0000000FE0
FE0000000FE0
FE0000000FE0
FE0000000FE0
FE0000000FE0
FE0000000FE0
FE0000000FE0
FE0000000FE0
FE0000000FE0
FE0000000FE0
FE0000000FE0
FE0000000FE0
FE0000000FE0
FE0000000FE0
FE0000000FE0
FE0000000FE0
FE0000000FE0
FE0000000FE0
FE0000000FE0
FE0000000FE0
FE0000000FE0
FE0000000FE0
FE0000000FE0
FE0000000FE0
FE0000000FE0
FE0000000FE0
FE0000000FE0
FE0000000FE0
FE0000000FE0
FE0000000FE0
FE0000000FE0
FE0000000FE0
7E0000000FE0
7F0000001FC0
7F0000001FC0
7F0000001FC0
7F8000003FC0
3F8000003F80
3FC000007F80
1FC000007F80
1FE00000FF00
0FF00001FE00
0FFC0003FE00
07FF001FFC00
03FFFFFFF800
01FFFFFFF000
00FFFFFFE000
007FFFFFC000
001FFFFF0000
0007FFFC0000
00001F000000
ENDCHAR
STARTCHAR 00DA
ENCODING 218
SWIDTH 681 0
DWIDTH 53 0
BBX 43 75 5 -1
BITMAP
0000001FC000
0000003F8000
0000007F0000
0000007F0000
000000FE0000
000000FC0000
000001FC0000
000001F80000
000003F00000
000003F00000
000007E00000
000007C00000
00000FC00000
00001F800000
000000000000
000000000000
000000000000
000000000000
000000000000
000000000000
FE0000000FE0
FE0000000FE0
FE0000000FE0
FE0000000FE0
FE0000000FE0
FE0000000FE0
FE0000000FE0
FE0000000FE0
FE0000000FE0
FE0000000FE0
FE0000000FE0
FE0000000FE0
FE0000000FE0
FE0000000FE0
FE0000000FE0
FE0000000FE0
FE0000000FE0
FE0000000FE0
FE0000000FE0
FE0000000FE0
FE0000000FE0
FE0000000FE0
FE0000000FE0
FE0000000FE0
FE0000000FE0
FE0000000FE0
FE0000000FE0
FE0000000FE0
FE0000000FE0
FE0000000FE0
FE0000000FE0
FE0000000FE0
FE0000000FE0
FE0000000FE0
FE0000000FE0
FE0000000FE0
7E0000000FE0
7F0000001FC0
7F0000001FC0
7F0000001FC0
7F8000003FC0
3F8000003F80
3FC000007F80
1FC000007F80
1FE00000FF00
0FF00001FE00
0FFC0003FE00
07FF001FFC00
03FFFFFFF800
01FFFFFFF000
00FFFFFFE000
007FFFFFC000
001FFFFF0000
0007FFFC0000
00001F000000
ENDCHAR
STARTCHAR 00DB
ENCODING 219
SWIDTH 681 0
DWIDTH 53 0
BBX 43 72 5 -1
BITMAP
00003F800000
00007FC00000
00007FE00000
0000FFF00000
0001FBF80000
0003F9F80000
0007F0FC0000
000FE07E0000
001FC07F0000
003F803F8000
007F001FC000
000000000000
000000000000
000000000000
000000000000
000000000000
000000000000
FE0000000FE0
FE0000000FE0
FE0000000FE0
FE0000000FE0
FE0000000FE0
FE0000000FE0
FE0000000FE0
FE0000000FE0
FE0000000FE0
FE0000000FE0
FE0000000FE0
FE0000000FE0
FE0000000FE0
FE0000000FE0
FE0000000FE0
FE0000000FE0
FE0000000FE0
FE0000000FE0
FE0000000FE0
FE0000000FE0
FE0000000FE0
FE0000000FE0
FE0000000FE0
FE0000000FE0
FE0000000FE0
FE0000000FE0
FE0000000FE0
FE0000000FE0
FE0000000FE0
FE0000000FE0
FE0000000FE0
FE0000000FE0
FE0000000FE0
FE0000000FE0
FE0000000FE0
FE0000000FE0
7E0000000FE0
7F0000001FC0
7F0000001FC0
7F0000001FC0
7F8000003FC0
3F8000003F80
3FC000007F80
1FC000007F80
1FE00000FF00
0FF00001FE00
0FFC0003FE00
07FF001FFC00
03FFFFFFF800
01FFFFFFF000
00FFFFFFE000
007FFFFFC000
001FFFFF0000
0007FFFC0000
00001F000000
ENDCHAR
STARTCHAR 00DC
ENCODING 220
SWIDTH 681 0
DWIDTH 53 0
BBX 43 72 5 -1
BITMAP
0007000E0000
001F803F8000
003FC03F8000
003FC07FC000
003FE07FC000
003FC07FC000
003FC07F8000
001F803F8000
000F001E0000
000000000000
000000000000
000000000000
000000000000
000000000000
000000000000
000000000000
000000000000
FE0000000FE0
FE0000000FE0
FE0000000FE0
FE0000000FE0
FE0000000FE0
FE0000000FE0
FE0000000FE0
FE0000000FE0
FE0000000FE0
FE0000000FE0
FE0000000FE0
FE0000000FE0
FE0000000FE0
FE0000000FE0
FE0000000FE0
FE0000000FE0
FE0000000FE0
FE0000000FE0
FE0000000FE0
FE0000000FE0
FE0000000FE0
FE0000000FE0
FE0000000FE0
FE0000000FE0
FE0000000FE0
FE0000000FE0
FE0000000FE0
FE0000000FE0
FE0000000FE0
FE0000000FE0
FE0000000FE0
FE0000000FE0
FE0000000FE0
FE0000000FE0
FE0000000FE0
FE0000000FE0
7E0000000FE0
7F0000001FC0
7F0000001FC0
7F0000001FC0
7F8000003FC0
3F8000003F80
3FC000007F80
1FC000007F80
1FE00000FF00
0FF00001FE00
0FFC0003FE00
07FF001FFC00
03FFFFFFF800
01FFFFFFF000
00FFFFFFE000
007FFFFFC000
001FFFFF0000
0007FFFC0000
00001F000000
ENDCHAR
STARTCHAR 00DD
ENCODING 221
SWIDTH 604 0
DWIDTH 47 0
BBX 41 74 3 0
BITMAP
0000003F8000
0000007F0000
0000007E0000
000000FE0000
000001FC0000
000001F80000
000003F80000
000003F00000
000007E00000
000007E00000
00000FC00000
00000F800000
00001F800000
00001F000000
000000000000
000000000000
000000000000
000000000000
000000000000
000000000000
FE0000003F80
7F0000003F80
7F0000007F00
3F8000007F00
3F800000FE00
1FC00000FE00
1FC00001FC00
0FE00001FC00
0FE00003F800
07F00003F800
07F00007F000
03F80007F000
03F8000FE000
01FC000FE000
01FC001FC000
00FE001FC000
00FE003F8000
007F003F8000
007F007F0000
003F807F0000
003F80FE0000
001FC0FE0000
001FC1FC0000
000FE1FC0000
000FE3F80000
0007F3F80000
0007F7F00000
0003FFF00000
0003FFE00000
0001FFE00000
0001FFC00000
0000FFC00000
0000FF800000
00007F800000
00007F000000
00007F000000
00007F000000
00007F000000
00007F000000
00007F000000
00007F000000
00007F000000
00007F000000
00007F000000
00007F000000
00007F000000
00007F000000
00007F000000
00007F000000
00007F000000
00007F000000
00007F000000
00007F000000
00007F000000
ENDCHAR
STARTCHAR 00DE
ENCODING 222
SWIDTH 591 0
DWIDTH 46 0
BBX 37 54 6 0
BITMAP
FC00000000
FC00000000
FC00000000
FC00000000
FC00000000
FC00000000
FC00000000
FC00000000
FC00000000
FFFFFF0000
FFFFFFE000
FFFFFFF800
FFFFFFFE00
FFFFFFFF00
FFFFFFFF80
FC0003FFC0
FC00007FC0
FC00001FE0
FC00000FE0
FC000007F0
FC000007F0
FC000003F0
FC000003F8
FC000003F8
FC000003F8
FC000001F8
FC000001F8
FC000001F8
FC000001F8
FC000003F8
FC000003F8
FC000003F8
FC000003F0
FC000007F0
FC00000FF0
FC00000FE0
FC00003FE0
FC0000FFC0
FC0007FF80
FFFFFFFF00
FFFFFFFE00
FFFFFFFC00
FFFFFFF000
FFFFFFC000
FFFFF00000
FC00000000
FC00000000
FC00000000
FC00000000
FC00000000
FC00000000
FC00000000
FC00000000
FC00000000
ENDCHAR
STARTCHAR 00DF
ENCODING 223
SWIDTH 565 0
DWIDTH 44 0
BBX 34 57 6 -1
BITMAP
0003E00000
007FFF0000
01FFFFC000
07FFFFE000
0FFFFFF800
1FFFFFFC00
1FF00FFC00
3FC001FE00
3F8000FE00
7F00007F00
7F00007F00
7E00003F00
FE00003F80
FE00003F80
FE00003F80
FE00003F80
FC00003F80
FC00003F80
FC00003F00
FC00003F00
FC00007F00
FC0000FE00
FC0001FC00
FC0007FC00
FC1FFFF800
FC1FFFE000
FC1FFF8000
FC1FFF0000
FC1FFFE000
FC1FFFF800
FC0007FC00
FC0001FE00
FC00007F00
FC00003F00
FC00001F80
FC00001F80
FC00001FC0
FC00000FC0
FC00000FC0
FC00000FC0
FC00000FC0
FC00000FC0
FC00000FC0
FC00001FC0
FC00001FC0
FC00001F80
FC00003F80
FC00007F80
FC0000FF00
FC0003FF00
FC000FFE00
FC0FFFFC00
FC0FFFF800
FC0FFFF000
FC0FFFC000
FC0FFF0000
0001E00000
ENDCHAR
STARTCHAR 00E0
ENCODING 224
SWIDTH 617 0
DWIDTH 48 0
BBX 38 61 4 -1
BITMAP
00FE000000
007F000000
007F000000
003F800000
001F800000
001FC00000
000FC00000
0007E00000
0007F00000
0003F00000
0001F80000
0000F80000
0000FC0000
0000000000
0000000000
0000000000
0000000000
0000000000
000FFC0000
003FFF01FC
00FFFFC1FC
01FFFFE1FC
03FFFFF1FC
07FFFFF9FC
0FFC01FDFC
1FF0007DFC
1FE0001FFC
3FC0000FFC
3F80000FFC
7F800007FC
7F000007FC
7F000003FC
FE000003FC
FE000001FC
FE000001FC
FE000001FC
FE000001FC
FE000001FC
FE000001FC
FE000001FC
FE000001FC
FE000001FC
FE000001FC
FE000001FC
FE000001FC
FE000003FC
FF000003FC
7F000003FC
7F800007FC
7F800007FC
3FC0000FFC
3FE0001FFC
1FF0003DFC
1FF8007DFC
0FFF03F9FC
07FFFFF1FC
03FFFFE1FC
01FFFFC1FC
007FFF81FC
001FFE01FC
0000E00000
ENDCHAR
STARTCHAR 00E1
ENCODING 225
SWIDTH 617 0
DWIDTH 48 0
BBX 38 61 4 -1
BITMAP
000000FF00
000000FE00
000001FC00
000001F800
000003F800
000003F000
000007E000
000007E000
00000FC000
00001F8000
00001F8000
00003F0000
00003E0000
0000000000
0000000000
0000000000
0000000000
0000000000
000FFC0000
003FFF01FC
00FFFFC1FC
01FFFFE1FC
03FFFFF1FC
07FFFFF9FC
0FFC01FDFC
1FF0007DFC
1FE0001FFC
3FC0000FFC
3F80000FFC
7F800007FC
7F000007FC
7F000003FC
FE000003FC
FE000001FC
FE000001FC
FE000001FC
FE000001FC
FE000001FC
FE000001FC
FE000001FC
FE000001FC
FE000001FC
FE000001FC
FE000001FC
FE000001FC
FE000003FC
FF000003FC
7F000003FC
7F800007FC
7F800007FC
3FC0000FFC
3FE0001FFC
1FF0003DFC
1FF8007DFC
0FFF03F9FC
07FFFFF1FC
03FFFFE1FC
01FFFFC1FC
007FFF81FC
001FFE01FC
0000E00000
ENDCHAR
STARTCHAR 00E2
ENCODING 226
SWIDTH 617 0
DWIDTH 48 0
BBX 38 58 4 -1
BITMAP
0000FF0000
0001FF8000
0003FF8000
0007FFC000
000FEFE000
000FC7F000
001F83F800
003F01FC00
007E00FE00
00FE007F00
01FC003F80
0000000000
0000000000
0000000000
0000000000
000FFC0000
003FFF01FC
00FFFFC1FC
01FFFFE1FC
03FFFFF1FC
07FFFFF9FC
0FFC01FDFC
1FF0007DFC
1FE0001FFC
3FC0000FFC
3F80000FFC
7F800007FC
7F000007FC
7F000003FC
FE000003FC
FE000001FC
FE000001FC
FE000001FC
FE000001FC
FE000001FC
FE000001FC
FE000001FC
FE000001FC
FE000001FC
FE000001FC
FE000001FC
FE000001FC
FE000003FC
FF000003FC
7F000003FC
7F800007FC
7F800007FC
3FC0000FFC
3FE0001FFC
1FF0003DFC
1FF8007DFC
0FFF03F9FC
07FFFFF1FC
03FFFFE1FC
01FFFFC1FC
007FFF81FC
001FFE01FC
0000E00000
ENDCHAR
STARTCHAR 00E3
ENCODING 227
SWIDTH 617 0
DWIDTH 48 0
BBX 38 58 4 -1
BITMAP
0007801E00
001FE01E00
003FF81E00
003FFC3E00
007FFFFC00
00787FFC00
00781FF800
00780FF000
007801C000
0000000000
0000000000
0000000000
0000000000
0000000000
0000000000
000FFC0000
003FFF01FC
00FFFFC1FC
01FFFFE1FC
03FFFFF1FC
07FFFFF9FC
0FFC01FDFC
1FF0007DFC
1FE0001FFC
3FC0000FFC
3F80000FFC
7F800007FC
7F000007FC
7F000003FC
FE000003FC
FE000001FC
FE000001FC
FE000001FC
FE000001FC
FE000001FC
FE000001FC
FE000001FC
FE000001FC
FE000001FC
FE000001FC
FE000001FC
FE000001FC
FE000003FC
FF000003FC
7F000003FC
7F800007FC
7F800007FC
3FC0000FFC
3FE0001FFC
1FF0003DFC
1FF8007DFC
0FFF03F9FC
07FFFFF1FC
03FFFFE1FC
01FFFFC1FC
007FFF81FC
001FFE01FC
0000E00000
ENDCHAR
STARTCHAR 00E4
ENCODING 228
SWIDTH 617 0
DWIDTH 48 0
BBX 38 58 4 -1
BITMAP
003E007C00
007F00FE00
00FF01FF00
00FF81FF00
00FF81FF00
00FF01FF00
007F00FE00
003E007C00
0000000000
0000000000
0000000000
0000000000
0000000000
0000000000
0000000000
000FFC0000
003FFF01FC
00FFFFC1FC
01FFFFE1FC
03FFFFF1FC
07FFFFF9FC
0FFC01FDFC
1FF0007DFC
1FE0001FFC
3FC0000FFC
3F80000FFC
7F800007FC
7F000007FC
7F000003FC
FE000003FC
FE000001FC
FE000001FC
FE000001FC
FE000001FC
FE000001FC
FE000001FC
FE000001FC
FE000001FC
FE000001FC
FE000001FC
FE000001FC
FE000001FC
FE000003FC
FF000003FC
7F000003FC
7F800007FC
7F800007FC
3FC0000FFC
3FE0001FFC
1FF0003DFC
1FF8007DFC
0FFF03F9FC
07FFFFF1FC
03FFFFE1FC
01FFFFC1FC
007FFF81FC
001FFE01FC
0000E00000
ENDCHAR
STARTCHAR 00E5
ENCODING 229
SWIDTH 617 0
DWIDTH 48 0
BBX 38 62 4 -1
BITMAP
00007E0000
0001FF0000
0003FF8000
0003C3C000
000781C000
000701C000
000701E000
000701C000
000781C000
0003C3C000
0003FF8000
0001FF0000
0000FE0000
0000000000
0000000000
0000000000
0000000000
0000000000
0000000000
000FFC0000
003FFF01FC
00FFFFC1FC
01FFFFE1FC
03FFFFF1FC
07FFFFF9FC
0FFC01FDFC
1FF0007DFC
1FE0001FFC
3FC0000FFC
3F80000FFC
7F800007FC
7F000007FC
7F000003FC
FE000003FC
FE000001FC
FE000001FC
FE000001FC
FE000001FC
FE000001FC
FE000001FC
FE000001FC
FE000001FC
FE000001FC
FE000001FC
FE000001FC
FE000001FC
FE000003FC
FF000003FC
7F000003FC
7F800007FC
7F800007FC
3FC0000FFC
3FE0001FFC
1FF0003DFC
1FF8007DFC
0FFF03F9FC
07FFFFF1FC
03FFFFE1FC
01FFFFC1FC
007FFF81FC
001FFE01FC
0000E00000
ENDCHAR
STARTCHAR 00E6
ENCODING 230
SWIDTH 938 0
DWIDTH 73 0
BBX 65 43 4 -1
BITMAP
0003F800003FF00000
003FFF0000FFFE0000
00FFFFC003FFFF8000
01FFFFF00FFFFFC000
07FFFFF81FFFFFE000
0FFFFFF83FFCFFF000
0FF801FC7FC00FF800
1FE000FE7F0003FC00
3FC0007EFE0001FC00
3F80003FFC0000FE00
3F00003FF800007E00
7F00001FF000007F00
7E00001FF000003F00
0000001FE000003F00
0000000FE000003F00
0000000FE000003F80
0000000FE000003F80
0000000FE000001F80
0000000FE000001F80
003FFFFFFFFFFFFF80
01FFFFFFFFFFFFFF80
07FFFFFFFFFFFFFF80
1FFFFFFFFFFFFFFF80
3FFC000FE000000000
7FC0000FE000000000
7F00000FE000000000
7E00000FE000000000
FE00000FE000000000
FE00001FE000000000
FE00001FF000003F80
FE00001FF000007F00
FE00003FF800007F00
FE00003FF80000FF00
FE00007DFC0001FE00
7F0000F8FF0003FC00
7F8003F87F8007FC00
3FE00FF07FF03FF800
3FFFFFE03FFFFFF000
1FFFFFC01FFFFFE000
0FFFFF8007FFFFC000
03FFFE0003FFFF0000
00FFF80000FFFC0000
000E00000003000000
ENDCHAR
STARTCHAR 00E7
ENCODING 231
SWIDTH 565 0
DWIDTH 44 0
BBX 37 61 4 -19
BITMAP
0003FF8000
001FFFE000
007FFFF800
00FFFFFE00
01FFFFFF00
03FFFFFF80
07FC00FFC0
0FF8003FC0
1FE0001FE0
1FC0000FE0
3FC00007F0
3F800007F0
7F800003F8
7F000003F8
7F000003F8
7E000001F8
FE00000000
FE00000000
FE00000000
FE00000000
FE00000000
FE00000000
FE00000000
FE00000000
FE00000000
FE00000000
FE00000000
7F000001F8
7F000003F8
7F000003F8
3F800003F0
3F800007F0
3FC00007F0
1FE0000FE0
0FF0001FE0
0FF8007FC0
07FF01FF80
03FFFFFF00
01FFFFFE00
00FFFFFC00
003FFFF000
0007FFC000
0000780000
0000780000
0000780000
0000F00000
0000FF0000
0000FFE000
0000FFF000
0001FFF800
0000007800
0000003C00
0000003C00
0000003C00
0000003C00
0000007800
000000F800
0000FFF000
0000FFF000
0000FFE000
0000FF8000
ENDCHAR
STARTCHAR 00E8
ENCODING 232
SWIDTH 578 0
DWIDTH 45 0
BBX 37 61 4 -1
BITMAP
01FC000000
00FE000000
007F000000
003F000000
003F800000
001F800000
000FC00000
000FC00000
0007E00000
0003E00000
0003F00000
0001F80000
0000F80000
0000000000
0000000000
0000000000
0000000000
0000000000
0003FF0000
001FFFE000
007FFFF800
00FFFFFC00
01FFFFFE00
03FF03FF00
07F8007F80
0FF0003FC0
1FE0001FE0
1FC0000FE0
3F800007E0
3F000007F0
7F000003F0
7F000003F0
7E000003F8
7E000003F8
FE000001F8
FE000001F8
FFFFFFFFF8
FFFFFFFFF8
FFFFFFFFF8
FFFFFFFFF8
FFFFFFFFF8
FE00000000
FE00000000
FE00000000
FE00000000
7E00000000
7E00000000
7F000003F8
3F000003F0
3F800007F0
3FC0000FF0
1FE0000FE0
0FF0003FE0
0FF8007FC0
07FF03FF80
03FFFFFF00
01FFFFFE00
00FFFFFC00
003FFFF000
000FFFC000
0000700000
ENDCHAR
STARTCHAR 00E9
ENCODING 233
SWIDTH 578 0
DWIDTH 45 0
BBX 37 61 4 -1
BITMAP
000000FE00
000001FC00
000001F800
000003F800
000003F000
000007E000
000007E000
00000FC000
00001F8000
00001F8000
00003F0000
00003E0000
00007E0000
0000000000
0000000000
0000000000
0000000000
0000000000
0003FF0000
001FFFE000
007FFFF800
00FFFFFC00
01FFFFFE00
03FF03FF00
07F8007F80
0FF0003FC0
1FE0001FE0
1FC0000FE0
3F800007E0
3F000007F0
7F000003F0
7F000003F0
7E000003F8
7E000003F8
FE000001F8
FE000001F8
FFFFFFFFF8
FFFFFFFFF8
FFFFFFFFF8
FFFFFFFFF8
FFFFFFFFF8
FE00000000
FE00000000
FE00000000
FE00000000
7E00000000
7E00000000
7F000003F8
3F000003F0
3F800007F0
3FC0000FF0
1FE0000FE0
0FF0003FE0
0FF8007FC0
07FF03FF80
03FFFFFF00
01FFFFFE00
00FFFFFC00
003FFFF000
000FFFC000
0000700000
ENDCHAR
STARTCHAR 00EA
ENCODING 234
SWIDTH 578 0
DWIDTH 45 0
BBX 37 58 4 -1
BITMAP
0001FE0000
0001FF0000
0003FF8000
0007FFC000
000FCFE000
001FC7F000
003F83F000
007F01F800
00FE01FC00
01FC00FE00
03F8007F00
0000000000
0000000000
0000000000
0000000000
0003FF0000
001FFFE000
007FFFF800
00FFFFFC00
01FFFFFE00
03FF03FF00
07F8007F80
0FF0003FC0
1FE0001FE0
1FC0000FE0
3F800007E0
3F000007F0
7F000003F0
7F000003F0
7E000003F8
7E000003F8
FE000001F8
FE000001F8
FFFFFFFFF8
FFFFFFFFF8
FFFFFFFFF8
FFFFFFFFF8
FFFFFFFFF8
FE00000000
FE00000000
FE00000000
FE00000000
7E00000000
7E00000000
7F000003F8
3F000003F0
3F800007F0
3FC0000FF0
1FE0000FE0
0FF0003FE0
0FF8007FC0
07FF03FF80
03FFFFFF00
01FFFFFE00
00FFFFFC00
003FFFF000
000FFFC000
0000700000
ENDCHAR
STARTCHAR 00EB
ENCODING 235
SWIDTH 578 0
DWIDTH 45 0
BBX 37 58 4 -1
BITMAP
007C00F800
00FE01FC00
00FF01FE00
01FF01FE00
01FF01FE00
00FF01FE00
00FE01FE00
007C00FC00
0000000000
0000000000
0000000000
0000000000
0000000000
0000000000
0000000000
0003FF0000
001FFFE000
007FFFF800
00FFFFFC00
01FFFFFE00
03FF03FF00
07F8007F80
0FF0003FC0
1FE0001FE0
1FC0000FE0
3F800007E0
3F000007F0
7F000003F0
7F000003F0
7E000003F8
7E000003F8
FE000001F8
FE000001F8
FFFFFFFFF8
FFFFFFFFF8
FFFFFFFFF8
FFFFFFFFF8
FFFFFFFFF8
FE00000000
FE00000000
FE00000000
FE00000000
7E00000000
7E00000000
7F000003F8
3F000003F0
3F800007F0
3FC0000FF0
1FE0000FE0
0FF0003FE0
0FF8007FC0
07FF03FF80
03FFFFFF00
01FFFFFE00
00FFFFFC00
003FFFF000
000FFFC000
0000700000
ENDCHAR
STARTCHAR 00EC
ENCODING 236
SWIDTH 244 0
DWIDTH 19 0
BBX 15 60 -2 0
BITMAP
FE00
7F00
7F00
3F80
1F80
1FC0
0FC0
07E0
07E0
03F0
01F8
01F8
00FC
0000
0000
0000
0000
0000
0000
00FE
00FE
00FE
00FE
00FE
00FE
00FE
00FE
00FE
00FE
00FE
00FE
00FE
00FE
00FE
00FE
00FE
00FE
00FE
00FE
00FE
00FE
00FE
00FE
00FE
00FE
00FE
00FE
00FE
00FE
00FE
00FE
00FE
00FE
00FE
00FE
00FE
00FE
00FE
00FE
00FE
ENDCHAR
STARTCHAR 00ED
ENCODING 237
SWIDTH 244 0
DWIDTH 19 0
BBX 16 60 6 0
BITMAP
00FF
00FE
01FC
01F8
03F8
03F0
07E0
07E0
0FC0
1F80
1F80
3F00
3E00
0000
0000
0000
0000
0000
0000
FE00
FE00
FE00
FE00
FE00
FE00
FE00
FE00
FE00
FE00
FE00
FE00
FE00
FE00
FE00
FE00
FE00
FE00
FE00
FE00
FE00
FE00
FE00
FE00
FE00
FE00
FE00
FE00
FE00
FE00
FE00
FE00
FE00
FE00
FE00
FE00
FE00
FE00
FE00
FE00
FE00
ENDCHAR
STARTCHAR 00EE
ENCODING 238
SWIDTH 244 0
DWIDTH 19 0
BBX 26 57 -3 0
BITMAP
007F8000
00FF8000
01FFC000
03FFE000
07F7F000
0FE3F800
0FC1FC00
1F80FE00
3F007F00
7F003F80
FE001FC0
00000000
00000000
00000000
00000000
00000000
007F0000
007F0000
007F0000
007F0000
007F0000
007F0000
007F0000
007F0000
007F0000
007F0000
007F0000
007F0000
007F0000
007F0000
007F0000
007F0000
007F0000
007F0000
007F0000
007F0000
007F0000
007F0000
007F0000
007F0000
007F0000
007F0000
007F0000
007F0000
007F0000
007F0000
007F0000
007F0000
007F0000
007F0000
007F0000
007F0000
007F0000
007F0000
007F0000
007F0000
007F0000
ENDCHAR
STARTCHAR 00EF
ENCODING 239
SWIDTH 244 0
DWIDTH 19 0
BBX 24 57 -2 0
BITMAP
3E007C
7F00FE
FF01FF
FF81FF
FF81FF
FF01FF
7F00FE
7E007C
000000
000000
000000
000000
000000
000000
000000
000000
00FE00
00FE00
00FE00
00FE00
00FE00
00FE00
00FE00
00FE00
00FE00
00FE00
00FE00
00FE00
00FE00
00FE00
00FE00
00FE00
00FE00
00FE00
00FE00
00FE00
00FE00
00FE00
00FE00
00FE00
00FE00
00FE00
00FE00
00FE00
00FE00
00FE00
00FE00
00FE00
00FE00
00FE00
00FE00
00FE00
00FE00
00FE00
00FE00
00FE00
00FE00
ENDCHAR
STARTCHAR 00F0
ENCODING 240
SWIDTH 604 0
DWIDTH 47 0
BBX 39 62 3 0
BITMAP
0003F80010
0003FF0078
0003FFC1F8
0003FFF3FC
0003FFFFF0
00001FFFE0
000007FF80
000001FF00
000007FF80
00001FFFC0
00003FDFE0
00003F0FE0
00003C0FF0
00001807F0
00000003F8
00000003F8
00000003F8
00000001FC
00000001FC
0007FC01FC
003FFF81FC
007FFFC0FC
01FFFFF0FC
03FFFFF8FC
07FFFFFCFE
0FFE00FCFE
0FF8003EFE
1FF0001FFE
1FE0000FFE
3FC00007FE
3F800003FE
7F800003FE
7F000003FE
7F000001FE
7F000001FE
FE000001FE
FE000000FE
FE000000FE
FE000000FE
FE000000FE
FE000000FE
FE000000FE
FE000000FC
FE000000FC
7E000001FC
7F000001FC
7F000001FC
7F000001FC
3F800003F8
3F800003F8
3FC00007F0
1FC0000FF0
1FE0000FE0
0FF0001FE0
07FC007FC0
07FF83FF80
03FFFFFF00
01FFFFFE00
007FFFFC00
003FFFF000
0007FFC000
0000500000
ENDCHAR
STARTCHAR 00F1
ENCODING 241
SWIDTH 604 0
DWIDTH 47 0
BBX 36 57 6 0
BITMAP
001E007800
007F807800
00FFE07800
00FFF0F800
01FFFFF000
01E1FFF000
01E07FE000
01E03FC000
01E0070000
0000000000
0000000000
0000000000
0000000000
0000000000
0000000000
0000FF8000
FE03FFF000
FE0FFFFC00
FE1FFFFE00
FE3FFFFF00
FE7FFFFF80
FEFC03FF80
FEF000FFC0
FFE0003FC0
FFC0001FE0
FF80000FE0
FF00000FF0
FF000007F0
FE000007F0
FE000007F0
FE000007F0
FE000003F0
FE000003F0
FE000003F0
FE000003F0
FE000003F0
FE000003F0
FE000003F0
FE000003F0
FE000003F0
FE000003F0
FE000003F0
FE000003F0
FE000003F0
FE000003F0
FE000003F0
FE000003F0
FE000003F0
FE000003F0
FE000003F0
FE000003F0
FE000003F0
FE000003F0
FE000003F0
FE000003F0
FE000003F0
FE000003F0
ENDCHAR
STARTCHAR 00F2
ENCODING 242
SWIDTH 591 0
DWIDTH 46 0
BBX 38 61 4 -1
BITMAP
01FC000000
00FE000000
007F000000
003F000000
003F800000
001F800000
000FC00000
000FC00000
0007E00000
0003E00000
0003F00000
0001F80000
0000F80000
0000000000
0000000000
0000000000
0000000000
0000000000
0003FF0000
001FFFE000
007FFFF800
00FFFFFE00
01FFFFFF00
03FFFFFF80
07FE00FFC0
0FF8003FC0
1FE0001FE0
1FC0000FF0
3FC00007F0
3F800007F0
7F800003F8
7F000003F8
7F000001F8
7E000001FC
FE000001FC
FE000001FC
FE000001FC
FE000000FC
FE000000FC
FE000000FC
FE000000FC
FE000001FC
FE000001FC
FE000001FC
FE000001FC
7F000001FC
7F000003F8
7F000003F8
3F800007F8
3F800007F0
1FC0000FF0
1FE0001FE0
0FF0003FE0
0FFC007FC0
07FF03FF80
03FFFFFF00
01FFFFFE00
007FFFFC00
003FFFF000
000FFFC000
0000300000
ENDCHAR
STARTCHAR 00F3
ENCODING 243
SWIDTH 591 0
DWIDTH 46 0
BBX 38 61 4 -1
BITMAP
000000FE00
000001FC00
000001F800
000003F800
000003F000
000007E000
000007E000
00000FC000
00001F8000
00001F8000
00003F0000
00003E0000
00007E0000
0000000000
0000000000
0000000000
0000000000
0000000000
0003FF0000
001FFFE000
007FFFF800
00FFFFFE00
01FFFFFF00
03FFFFFF80
07FE00FFC0
0FF8003FC0
1FE0001FE0
1FC0000FF0
3FC00007F0
3F800007F0
7F800003F8
7F000003F8
7F000001F8
7E000001FC
FE000001FC
FE000001FC
FE000001FC
FE000000FC
FE000000FC
FE000000FC
FE000000FC
FE000001FC
FE000001FC
FE000001FC
FE000001FC
7F000001FC
7F000003F8
7F000003F8
3F800007F8
3F800007F0
1FC0000FF0
1FE0001FE0
0FF0003FE0
0FFC007FC0
07FF03FF80
03FFFFFF00
01FFFFFE00
007FFFFC00
003FFFF000
000FFFC000
0000300000
ENDCHAR
STARTCHAR 00F4
ENCODING 244
SWIDTH 591 0
DWIDTH 46 0
BBX 38 58 4 -1
BITMAP
0001FE0000
0001FF0000
0003FF8000
0007FFC000
000FCFE000
001FC7F000
003F83F000
007F01F800
00FE01FC00
01FC00FE00
03F8007F00
0000000000
0000000000
0000000000
0000000000
0003FF0000
001FFFE000
007FFFF800
00FFFFFE00
01FFFFFF00
03FFFFFF80
07FE00FFC0
0FF8003FC0
1FE0001FE0
1FC0000FF0
3FC00007F0
3F800007F0
7F800003F8
7F000003F8
7F000001F8
7E000001FC
FE000001FC
FE000001FC
FE000001FC
FE000000FC
FE000000FC
FE000000FC
FE000000FC
FE000001FC
FE000001FC
FE000001FC
FE000001FC
7F000001FC
7F000003F8
7F000003F8
3F800007F8
3F800007F0
1FC0000FF0
1FE0001FE0
0FF0003FE0
0FFC007FC0
07FF03FF80
03FFFFFF00
01FFFFFE00
007FFFFC00
003FFFF000
000FFFC000
0000300000
ENDCHAR
STARTCHAR 00F5
ENCODING 245
SWIDTH 591 0
DWIDTH 46 0
BBX 38 58 4 -1
BITMAP
000F803C00
001FE03C00
003FF03C00
007FFC7C00
007FFFFC00
00F87FF800
00F03FF800
00F00FF000
00F0038000
0000000000
0000000000
0000000000
0000000000
0000000000
0000000000
0003FF0000
001FFFE000
007FFFF800
00FFFFFE00
01FFFFFF00
03FFFFFF80
07FE00FFC0
0FF8003FC0
1FE0001FE0
1FC0000FF0
3FC00007F0
3F800007F0
7F800003F8
7F000003F8
7F000001F8
7E000001FC
FE000001FC
FE000001FC
FE000001FC
FE000000FC
FE000000FC
FE000000FC
FE000000FC
FE000001FC
FE000001FC
FE000001FC
FE000001FC
7F000001FC
7F000003F8
7F000003F8
3F800007F8
3F800007F0
1FC0000FF0
1FE0001FE0
0FF0003FE0
0FFC007FC0
07FF03FF80
03FFFFFF00
01FFFFFE00
007FFFFC00
003FFFF000
000FFFC000
0000300000
ENDCHAR
STARTCHAR 00F6
ENCODING 246
SWIDTH 591 0
DWIDTH 46 0
BBX 38 58 4 -1
BITMAP
007C00F800
00FE01FC00
00FF01FE00
01FF01FE00
01FF01FE00
00FF01FE00
00FE01FE00
007C00FC00
0000000000
0000000000
0000000000
0000000000
0000000000
0000000000
0000000000
0003FF0000
001FFFE000
007FFFF800
00FFFFFE00
01FFFFFF00
03FFFFFF80
07FE00FFC0
0FF8003FC0
1FE0001FE0
1FC0000FF0
3FC00007F0
3F800007F0
7F800003F8
7F000003F8
7F000001F8
7E000001FC
FE000001FC
FE000001FC
FE000001FC
FE000000FC
FE000000FC
FE000000FC
FE000000FC
FE000001FC
FE000001FC
FE000001FC
FE000001FC
7F000001FC
7F000003F8
7F000003F8
3F800007F8
3F800007F0
1FC0000FF0
1FE0001FE0
0FF0003FE0
0FFC007FC0
07FF03FF80
03FFFFFF00
01FFFFFE00
007FFFFC00
003FFFF000
000FFFC000
0000300000
ENDCHAR
STARTCHAR 00F7
ENCODING 247
SWIDTH 591 0
DWIDTH 46 0
BBX 31 37 6 6
BITMAP
00078000
000FE000
001FE000
001FF000
001FF000
001FF000
001FE000
000FE000
00078000
00000000
00000000
00000000
00000000
00000000
00000000
00000000
FFFFFFFE
FFFFFFFE
FFFFFFFE
FFFFFFFE
FFFFFFFE
FFFFFFFE
00000000
00000000
00000000
00000000
00000000
00000000
0007C000
000FE000
001FE000
001FF000
001FF000
001FF000
001FE000
000FC000
00078000
ENDCHAR
STARTCHAR 00F8
ENCODING 248
SWIDTH 591 0
DWIDTH 46 0
BBX 38 48 4 -3
BITMAP
00000007E0
00000007C0
0000000FC0
0003FF0F80
001FFFFF00
007FFFFF00
00FFFFFE00
01FFFFFF00
03FFFFFF80
07FC00FFC0
0FF800FFC0
1FE001FFE0
1FC001FFF0
3FC003E7F0
3F8003E7F8
7F0007C3F8
7F0007C3F8
7F000F81F8
7E000F81FC
FE001F01FC
FE003F01FC
FE003E01FC
FE007C00FC
FE007C00FC
FE00F800FC
FE00F800FC
FE01F001FC
FE01F001FC
FE03E001FC
FE07E001FC
7F07C001FC
7F0F8003F8
7F0F8003F8
3F9F0007F8
3F9F0007F0
1FFE000FF0
1FFE001FE0
0FFC003FE0
0FFC007FC0
07FF87FF80
03FFFFFF00
01FFFFFE00
03FFFFFC00
03FFFFF000
07C7FFC000
07C0000000
0F80000000
1F80000000
ENDCHAR
STARTCHAR 00F9
ENCODING 249
SWIDTH 591 0
DWIDTH 46 0
BBX 36 61 6 -1
BITMAP
07F0000000
07F0000000
03F8000000
01F8000000
01FC000000
00FE000000
007E000000
007F000000
003F000000
001F800000
000F800000
000FC00000
0007C00000
0000000000
0000000000
0000000000
0000000000
0000000000
0000000000
FE000007F0
FE000007F0
FE000007F0
FE000007F0
FE000007F0
FE000007F0
FE000007F0
FE000007F0
FE000007F0
FE000007F0
FE000007F0
FE000007F0
FE000007F0
FE000007F0
FE000007F0
FE000007F0
FE000007F0
FE000007F0
FE000007F0
FE000007F0
FE000007F0
FE000007F0
FE000007F0
FE000007F0
FE000007F0
FE000007F0
FE00000FF0
FE00000FF0
FE00000FF0
FF00001FF0
7F00001FF0
7F80003FF0
7FC0007FF0
3FE000F7F0
3FF001F7F0
1FFE0FE7F0
0FFFFFC7F0
0FFFFF87F0
03FFFF07F0
01FFFE07F0
007FF807F0
000FC00000
ENDCHAR
STARTCHAR 00FA
ENCODING 250
SWIDTH 591 0
DWIDTH 46 0
BBX 36 61 6 -1
BITMAP
000007F000
000007E000
00000FE000
00001FC000
00001F8000
00003F8000
00003F0000
00007E0000
00007E0000
0000FC0000
0000F80000
0001F80000
0001F00000
0002000000
0000000000
0000000000
0000000000
0000000000
0000000000
FE000007F0
FE000007F0
FE000007F0
FE000007F0
FE000007F0
FE000007F0
FE000007F0
FE000007F0
FE000007F0
FE000007F0
FE000007F0
FE000007F0
FE000007F0
FE000007F0
FE000007F0
FE000007F0
FE000007F0
FE000007F0
FE000007F0
FE000007F0
FE000007F0
FE000007F0
FE000007F0
FE000007F0
FE000007F0
FE000007F0
FE00000FF0
FE00000FF0
FE00000FF0
FF00001FF0
7F00001FF0
7F80003FF0
7FC0007FF0
3FE000F7F0
3FF001F7F0
1FFE0FE7F0
0FFFFFC7F0
0FFFFF87F0
03FFFF07F0
01FFFE07F0
007FF807F0
000FC00000
ENDCHAR
STARTCHAR 00FB
ENCODING 251
SWIDTH 591 0
DWIDTH 46 0
BBX 36 58 6 -1
BITMAP
0007F00000
000FF80000
001FFC0000
003FFE0000
007F7F0000
00FE3F8000
01FC1FC000
03F80FE000
03F007F000
07E003F000
0FC001F800
0000000000
0000000000
0000000000
0000000000
0000000000
FE000007F0
FE000007F0
FE000007F0
FE000007F0
FE000007F0
FE000007F0
FE000007F0
FE000007F0
FE000007F0
FE000007F0
FE000007F0
FE000007F0
FE000007F0
FE000007F0
FE000007F0
FE000007F0
FE000007F0
FE000007F0
FE000007F0
FE000007F0
FE000007F0
FE000007F0
FE000007F0
FE000007F0
FE000007F0
FE000007F0
FE00000FF0
FE00000FF0
FE00000FF0
FF00001FF0
7F00001FF0
7F80003FF0
7FC0007FF0
3FE000F7F0
3FF001F7F0
1FFE0FE7F0
0FFFFFC7F0
0FFFFF87F0
03FFFF07F0
01FFFE07F0
007FF807F0
000FC00000
ENDCHAR
STARTCHAR 00FC
ENCODING 252
SWIDTH 591 0
DWIDTH 46 0
BBX 36 58 6 -1
BITMAP
03F003E000
07F807F000
07F80FF000
07F80FF800
07F80FF800
07F80FF000
07F807F000
03F007E000
0000000000
0000000000
0000000000
0000000000
0000000000
0000000000
0000000000
0000000000
FE000007F0
FE000007F0
FE000007F0
FE000007F0
FE000007F0
FE000007F0
FE000007F0
FE000007F0
FE000007F0
FE000007F0
FE000007F0
FE000007F0
FE000007F0
FE000007F0
FE000007F0
FE000007F0
FE000007F0
FE000007F0
FE000007F0
FE000007F0
FE000007F0
FE000007F0
FE000007F0
FE000007F0
FE000007F0
FE000007F0
FE00000FF0
FE00000FF0
FE00000FF0
FF00001FF0
7F00001FF0
7F80003FF0
7FC0007FF0
3FE000F7F0
3FF001F7F0
1FFE0FE7F0
0FFFFFC7F0
0FFFFF87F0
03FFFF07F0
01FFFE07F0
007FF807F0
000FC00000
ENDCHAR
STARTCHAR 00FD
ENCODING 253
SWIDTH 527 0
DWIDTH 41 0
BBX 38 76 2 -16
BITMAP
000000FE00
000001FC00
000003F800
000003F800
000007F000
000007E000
00000FE000
00000FC000
00001F8000
00001F8000
00003F0000
00003E0000
00007C0000
0000000000
0000000000
0000000000
0000000000
0000000000
0000000000
FE000001FC
7F000001FC
7F000003F8
3F800003F8
3F800007F0
3F800007F0
1FC00007E0
1FC0000FE0
0FC0000FE0
0FE0000FC0
0FE0001FC0
07E0001F80
07F0003F80
07F0003F80
03F8003F00
03F8007F00
01F8007E00
01FC00FE00
01FC00FE00
00FC00FC00
00FE01FC00
007E01F800
007E01F800
007F03F800
003F03F000
003F07F000
001F87E000
001F87E000
001FCFC000
000FCFC000
000FCFC000
0007FF8000
0007FF8000
0007FF0000
0003FF0000
0003FF0000
0003FE0000
0001FE0000
0001FC0000
0001FC0000
0001FC0000
0003F80000
0003F80000
0003F00000
0007F00000
0007E00000
000FE00000
000FE00000
001FC00000
003FC00000
007F800000
33FF800000
3FFF000000
3FFE000000
3FFC000000
3FF0000000
1F80000000
ENDCHAR
STARTCHAR 00FE
ENCODING 254
SWIDTH 617 0
DWIDTH 48 0
BBX 38 76 6 -18
BITMAP
FE00000000
FE00000000
FE00000000
FE00000000
FE00000000
FE00000000
FE00000000
FE00000000
FE00000000
FE00000000
FE00000000
FE00000000
FE00000000
FE00000000
FE00000000
FE00000000
FE00FFC000
FE03FFF000
FE0FFFFC00
FE1FFFFE00
FE3FFFFF80
FE7FFFFF80
FEFE01FFC0
FEF8003FE0
FFE0001FE0
FFC0000FF0
FFC0000FF0
FF800007F8
FF000003F8
FF000003F8
FF000003FC
FE000001FC
FE000001FC
FE000001FC
FE000001FC
FE000001FC
FE000001FC
FE000001FC
FE000001FC
FE000001FC
FE000001FC
FE000001FC
FE000001FC
FF000001FC
FF000003F8
FF000003F8
FF800007F8
FF800007F8
FFC0000FF0
FFE0001FF0
FFF0003FE0
FEF8007FE0
FE7F03FFC0
FE3FFFFF80
FE1FFFFF00
FE0FFFFE00
FE07FFF800
FE01FFE000
FE001E0000
FE00000000
FE00000000
FE00000000
FE00000000
FE00000000
FE00000000
FE00000000
FE00000000
FE00000000
FE00000000
FE00000000
FE00000000
FE00000000
FE00000000
FE00000000
FE00000000
FE00000000
ENDCHAR
STARTCHAR 00FF
ENCODING 255
SWIDTH 527 0
DWIDTH 41 0
BBX 38 73 2 -16
BITMAP
007C00F800
00FE01FC00
01FF01FE00
01FF03FE00
01FF03FE00
01FF03FE00
00FE01FC00
007C00F800
0000000000
0000000000
0000000000
0000000000
0000000000
0000000000
0000000000
0000000000
FE000001FC
7F000001FC
7F000003F8
3F800003F8
3F800007F0
3F800007F0
1FC00007E0
1FC0000FE0
0FC0000FE0
0FE0000FC0
0FE0001FC0
07E0001F80
07F0003F80
07F0003F80
03F8003F00
03F8007F00
01F8007E00
01FC00FE00
01FC00FE00
00FC00FC00
00FE01FC00
007E01F800
007E01F800
007F03F800
003F03F000
003F07F000
001F87E000
001F87E000
001FCFC000
000FCFC000
000FCFC000
0007FF8000
0007FF8000
0007FF0000
0003FF0000
0003FF0000
0003FE0000
0001FE0000
0001FC0000
0001FC0000
0001FC0000
0003F80000
0003F80000
0003F00000
0007F00000
0007E00000
000FE00000
000FE00000
001FC00000
003FC00000
007F800000
33FF800000
3FFF000000
3FFE000000
3FFC000000
3FF0000000
1F80000000
ENDCHAR
STARTCHAR 0100
ENCODING 256
SWIDTH 668 0
DWIDTH 52 0
BBX 47 66 3 0
BITMAP
000FFFFFE000
000FFFFFE000
000FFFFFE000
000FFFFFE000
000000000000
000000000000
000000000000
000000000000
000000000000
000000000000
000000000000
000000000000
00000FE00000
00000FE00000
00001FF00000
00001FF00000
00003FF80000
00003FF80000
00003FF80000
00007FFC0000
00007EFC0000
0000FEFC0000
0000FCFE0000
0000FC7E0000
0001FC7F0000
0001F83F0000
0001F83F0000
0003F83F8000
0003F01F8000
0007F01F8000
0007E01FC000
0007E00FC000
000FE00FE000
000FC00FE000
000FC007E000
001FC007F000
001F8003F000
003F8003F000
003F8003F800
003F0001F800
007F0001FC00
007F0001FC00
007E0000FC00
00FE0000FE00
00FC00007E00
01FFFFFFFE00
01FFFFFFFF00
01FFFFFFFF00
03FFFFFFFF80
03FFFFFFFF80
03F000001F80
07F000001FC0
07F000001FC0
0FE000000FE0
0FE000000FE0
0FC0000007E0
1FC0000007F0
1FC0000007F0
1F80000003F0
3F80000003F8
3F80000003F8
7F00000001FC
7F00000001FC
7F00000001FC
FE00000000FE
FE00000000FE
ENDCHAR
STARTCHAR 0101
ENCODING 257
SWIDTH 617 0
DWIDTH 48 0
BBX 38 53 4 -1
BITMAP
00FFFFFE00
00FFFFFE00
00FFFFFE00
0000000000
0000000000
0000000000
0000000000
0000000000
0000000000
0000000000
000FFC0000
003FFF01FC
00FFFFC1FC
01FFFFE1FC
03FFFFF1FC
07FFFFF9FC
0FFC01FDFC
1FF0007DFC
1FE0001FFC
3FC0000FFC
3F80000FFC
7F800007FC
7F000007FC
7F000003FC
FE000003FC
FE000001FC
FE000001FC
FE000001FC
FE000001FC
FE000001FC
FE000001FC
FE000001FC
FE000001FC
FE000001FC
FE000001FC
FE000001FC
FE000001FC
FE000003FC
FF000003FC
7F000003FC
7F800007FC
7F800007FC
3FC0000FFC
3FE0001FFC
1FF0003DFC
1FF8007DFC
0FFF03F9FC
07FFFFF1FC
03FFFFE1FC
01FFFFC1FC
007FFF81FC
001FFE01FC
0000E00000
ENDCHAR
STARTCHAR 0102
ENCODING 258
SWIDTH 668 0
DWIDTH 52 0
BBX 47 69 3 0
BITMAP
003F0003F000
001F8003F000
000FC007E000
0007F01FC000
0007FFFF8000
0001FFFF0000
0000FFFE0000
00003FF00000
000000000000
000000000000
000000000000
000000000000
000000000000
000000000000
000000000000
00000FE00000
00000FE00000
00001FF00000
00001FF00000
00003FF80000
00003FF80000
00003FF80000
00007FFC0000
00007EFC0000
0000FEFC0000
0000FCFE0000
0000FC7E0000
0001FC7F0000
0001F83F0000
0001F83F0000
0003F83F8000
0003F01F8000
0007F01F8000
0007E01FC000
0007E00FC000
000FE00FE000
000FC00FE000
000FC007E000
001FC007F000
001F8003F000
003F8003F000
003F8003F800
003F0001F800
007F0001FC00
007F0001FC00
007E0000FC00
00FE0000FE00
00FC00007E00
01FFFFFFFE00
01FFFFFFFF00
01FFFFFFFF00
03FFFFFFFF80
03FFFFFFFF80
03F000001F80
07F000001FC0
07F000001FC0
0FE000000FE0
0FE000000FE0
0FC0000007E0
1FC0000007F0
1FC0000007F0
1F80000003F0
3F80000003F8
3F80000003F8
7F00000001FC
7F00000001FC
7F00000001FC
FE00000000FE
FE00000000FE
ENDCHAR
STARTCHAR 0103
ENCODING 259
SWIDTH 617 0
DWIDTH 48 0
BBX 38 56 4 -1
BITMAP
01F8003F00
00FC003F00
00FE00FE00
007FE7FC00
003FFFF800
000FFFF000
0007FFC000
00003C0000
0000000000
0000000000
0000000000
0000000000
0000000000
000FFC0000
003FFF01FC
00FFFFC1FC
01FFFFE1FC
03FFFFF1FC
07FFFFF9FC
0FFC01FDFC
1FF0007DFC
1FE0001FFC
3FC0000FFC
3F80000FFC
7F800007FC
7F000007FC
7F000003FC
FE000003FC
FE000001FC
FE000001FC
FE000001FC
FE000001FC
FE000001FC
FE000001FC
FE000001FC
FE000001FC
FE000001FC
FE000001FC
FE000001FC
FE000001FC
FE000003FC
FF000003FC
7F000003FC
7F800007FC
7F800007FC
3FC0000FFC
3FE0001FFC
1FF0003DFC
1FF8007DFC
0FFF03F9FC
07FFFFF1FC
03FFFFE1FC
01FFFFC1FC
007FFF81FC
001FFE01FC
0000E00000
ENDCHAR
STARTCHAR 0104
ENCODING 260
SWIDTH 668 0
DWIDTH 52 0
BBX 49 67 3 -13
BITMAP
00000FE0000000
00000FE0000000
00001FF0000000
00001FF0000000
00003FF8000000
00003FF8000000
00003FF8000000
00007FFC000000
00007EFC000000
0000FEFC000000
0000FCFE000000
0000FC7E000000
0001FC7F000000
0001F83F000000
0001F83F000000
0003F83F800000
0003F01F800000
0007F01F800000
0007E01FC00000
0007E00FC00000
000FE00FE00000
000FC00FE00000
000FC007E00000
001FC007F00000
001F8003F00000
003F8003F00000
003F8003F80000
003F0001F80000
007F0001FC0000
007F0001FC0000
007E0000FC0000
00FE0000FE0000
00FC00007E0000
01FFFFFFFE0000
01FFFFFFFF0000
01FFFFFFFF0000
03FFFFFFFF8000
03FFFFFFFF8000
03F000001F8000
07F000001FC000
07F000001FC000
0FE000000FE000
0FE000000FE000
0FC0000007E000
1FC0000007F000
1FC0000007F000
1F80000003F000
3F80000003F800
3F80000003F800
7F00000001FC00
7F00000001FC00
7F00000001FC00
FE00000000FE00
FE00000000FE00
0000000001F800
0000000003F000
0000000003E000
0000000007C000
0000000007C000
0000000007C000
0000000007C000
0000000007C000
0000000007F980
0000000003FF80
0000000001FF80
0000000000FF80
00000000000C00
ENDCHAR
STARTCHAR 0105
ENCODING 261
SWIDTH 617 0
DWIDTH 48 0
BBX 41 55 4 -13
BITMAP
000FFC000000
003FFF01FC00
00FFFFC1FC00
01FFFFE1FC00
03FFFFF1FC00
07FFFFF9FC00
0FFC01FDFC00
1FF0007DFC00
1FE0001FFC00
3FC0000FFC00
3F80000FFC00
7F800007FC00
7F000007FC00
7F000003FC00
FE000003FC00
FE000001FC00
FE000001FC00
FE000001FC00
FE000001FC00
FE000001FC00
FE000001FC00
FE000001FC00
FE000001FC00
FE000001FC00
FE000001FC00
FE000001FC00
FE000001FC00
FE000003FC00
FF000003FC00
7F000003FC00
7F800007FC00
7F800007FC00
3FC0000FFC00
3FE0001FFC00
1FF0003DFC00
1FF8007DFC00
0FFF03F9FC00
07FFFFF1FC00
03FFFFE1FC00
01FFFFC1FC00
007FFF81FC00
001FFE01FC00
0000E001F800
00000001F000
00000003E000
00000003C000
00000007C000
00000007C000
00000007C000
00000007E000
00000003F980
00000003FF80
00000001FF80
00000000FF80
000000000400
ENDCHAR
STARTCHAR 0106
ENCODING 262
SWIDTH 707 0
DWIDTH 55 0
BBX 48 75 4 -1
BITMAP
00000007F000
0000000FE000
0000000FE000
0000001FC000
0000001F8000
0000003F8000
0000003F0000
0000007E0000
000000FE0000
000000FC0000
000001F80000
000001F80000
000003F00000
000003E00000
000000000000
000000000000
000000000000
000000000000
000003C00000
00007FFF8000
0003FFFFE000
000FFFFFF800
001FFFFFFE00
003FFFFFFF00
00FFFF7FFF80
01FFE001FFC0
01FF00007FE0
03FE00001FF0
07FC00000FF0
0FF8000007F8
0FF0000003F8
1FE0000001FC
1FC0000001FC
1FC0000000FE
3FC0000000FE
3F800000007E
3F800000007F
7F000000007F
7F0000000000
7F0000000000
7F0000000000
7F0000000000
FF0000000000
FE0000000000
FE0000000000
FE0000000000
FE0000000000
FE0000000000
FE0000000000
FE0000000000
FF0000000000
7F0000000000
7F0000000000
7F0000000000
7F0000000000
7F0000000000
3F8000000000
3F800000007E
3FC0000000FE
1FC0000000FE
1FE0000001FC
1FE0000001FC
0FF0000003F8
0FF8000007F8
07FC00000FF0
03FE00001FE0
01FF80007FE0
00FFE001FFC0
00FFFFFFFF80
003FFFFFFF00
001FFFFFFC00
0007FFFFF800
0003FFFFE000
00007FFF0000
000000A00000
ENDCHAR
STARTCHAR 0107
ENCODING 263
SWIDTH 565 0
DWIDTH 44 0
BBX 37 61 4 -1
BITMAP
000000FE00
000001FC00
000001FC00
000003F800
000003F000
000007F000
000007E000
00000FC000
00000FC000
00001F8000
00003F0000
00003F0000
00007E0000
0000000000
0000000000
0000000000
0000000000
0000000000
0003FF8000
001FFFE000
007FFFF800
00FFFFFE00
01FFFFFF00
03FFFFFF80
07FC00FFC0
0FF8003FC0
1FE0001FE0
1FC0000FE0
3FC00007F0
3F800007F0
7F800003F8
7F000003F8
7F000003F8
7E000001F8
FE00000000
FE00000000
FE00000000
FE00000000
FE00000000
FE00000000
FE00000000
FE00000000
FE00000000
FE00000000
FE00000000
7F000001F8
7F000003F8
7F000003F8
3F800003F0
3F800007F0
3FC00007F0
1FE0000FE0
0FF0001FE0
0FF8007FC0
07FF01FF80
03FFFFFF00
01FFFFFE00
007FFFFC00
003FFFF000
0007FFC000
0000500000
ENDCHAR
STARTCHAR 010A
ENCODING 266
SWIDTH 707 0
DWIDTH 55 0
BBX 48 72 4 -1
BITMAP
000003800000
000007E00000
00000FF00000
00000FF00000
00001FF00000
00000FF00000
00000FF00000
000007E00000
000003C00000
000000000000
000000000000
000000000000
000000000000
000000000000
000000000000
000003C00000
00007FFF8000
0003FFFFE000
000FFFFFF800
001FFFFFFE00
003FFFFFFF00
00FFFF7FFF80
01FFE001FFC0
01FF00007FE0
03FE00001FF0
07FC00000FF0
0FF8000007F8
0FF0000003F8
1FE0000001FC
1FC0000001FC
1FC0000000FE
3FC0000000FE
3F800000007E
3F800000007F
7F000000007F
7F0000000000
7F0000000000
7F0000000000
7F0000000000
FF0000000000
FE0000000000
FE0000000000
FE0000000000
FE0000000000
FE0000000000
FE0000000000
FE0000000000
FF0000000000
7F0000000000
7F0000000000
7F0000000000
7F0000000000
7F0000000000
3F8000000000
3F800000007E
3FC0000000FE
1FC0000000FE
1FE0000001FC
1FE0000001FC
0FF0000003F8
0FF8000007F8
07FC00000FF0
03FE00001FE0
01FF80007FE0
00FFE001FFC0
00FFFFFFFF80
003FFFFFFF00
001FFFFFFC00
0007FFFFF800
0003FFFFE000
00007FFF0000
000000A00000
ENDCHAR
STARTCHAR 010B
ENCODING 267
SWIDTH 565 0
DWIDTH 44 0
BBX 37 58 4 -1
BITMAP
00007C0000
0000FE0000
0001FE0000
0001FF0000
0001FF0000
0001FE0000
0000FE0000
00007C0000
0000000000
0000000000
0000000000
0000000000
0000000000
0000000000
0000000000
0003FF8000
001FFFE000
007FFFF800
00FFFFFE00
01FFFFFF00
03FFFFFF80
07FC00FFC0
0FF8003FC0
1FE0001FE0
1FC0000FE0
3FC00007F0
3F800007F0
7F800003F8
7F000003F8
7F000003F8
7E000001F8
FE00000000
FE00000000
FE00000000
FE00000000
FE00000000
FE00000000
FE00000000
FE00000000
FE00000000
FE00000000
FE00000000
7F000001F8
7F000003F8
7F000003F8
3F800003F0
3F800007F0
3FC00007F0
1FE0000FE0
0FF0001FE0
0FF8007FC0
07FF01FF80
03FFFFFF00
01FFFFFE00
007FFFFC00
003FFFF000
0007FFC000
0000500000
ENDCHAR
STARTCHAR 010C
ENCODING 268
SWIDTH 707 0
DWIDTH 55 0
BBX 48 72 4 -1
BITMAP
001FC003F800
000FE007F000
0007F00FE000
0003F81FC000
0001F83F8000
0000FC7F0000
00007EFE0000
00007FFC0000
00003FF80000
00001FF80000
00000FF00000
000000000000
000000000000
000000000000
000000000000
000003C00000
00007FFF8000
0003FFFFE000
000FFFFFF800
001FFFFFFE00
003FFFFFFF00
00FFFF7FFF80
01FFE001FFC0
01FF00007FE0
03FE00001FF0
07FC00000FF0
0FF8000007F8
0FF0000003F8
1FE0000001FC
1FC0000001FC
1FC0000000FE
3FC0000000FE
3F800000007E
3F800000007F
7F000000007F
7F0000000000
7F0000000000
7F0000000000
7F0000000000
FF0000000000
FE0000000000
FE0000000000
FE0000000000
FE0000000000
FE0000000000
FE0000000000
FE0000000000
FF0000000000
7F0000000000
7F0000000000
7F0000000000
7F0000000000
7F0000000000
3F8000000000
3F800000007E
3FC0000000FE
1FC0000000FE
1FE0000001FC
1FE0000001FC
0FF0000003F8
0FF8000007F8
07FC00000FF0
03FE00001FE0
01FF80007FE0
00FFE001FFC0
00FFFFFFFF80
003FFFFFFF00
001FFFFFFC00
0007FFFFF800
0003FFFFE000
00007FFF0000
000000A00000
ENDCHAR
STARTCHAR 010D
ENCODING 269
SWIDTH 565 0
DWIDTH 44 0
BBX 37 58 4 -1
BITMAP
01FC007F00
00FE00FE00
007F01FC00
003F03F800
001F87F000
000FCFE000
000FFFC000
0007FF8000
0003FF0000
0001FE0000
0000FE0000
0000000000
0000000000
0000000000
0000000000
0003FF8000
001FFFE000
007FFFF800
00FFFFFE00
01FFFFFF00
03FFFFFF80
07FC00FFC0
0FF8003FC0
1FE0001FE0
1FC0000FE0
3FC00007F0
3F800007F0
7F800003F8
7F000003F8
7F000003F8
7E000001F8
FE00000000
FE00000000
FE00000000
FE00000000
FE00000000
FE00000000
FE00000000
FE00000000
FE00000000
FE00000000
FE00000000
7F000001F8
7F000003F8
7F000003F8
3F800003F0
3F800007F0
3FC00007F0
1FE0000FE0
0FF0001FE0
0FF8007FC0
07FF01FF80
03FFFFFF00
01FFFFFE00
007FFFFC00
003FFFF000
0007FFC000
0000500000
ENDCHAR
STARTCHAR 010E
ENCODING 270
SWIDTH 681 0
DWIDTH 53 0
BBX 44 71 6 0
BITMAP
01FC003F8000
00FE007F0000
007F00FE0000
003F81FC0000
001F83F80000
000FC7F00000
0007EFE00000
0007FFC00000
0003FF800000
0001FF000000
0000FE000000
000000000000
000000000000
000000000000
000000000000
000000000000
000000000000
FFFFFFE00000
FFFFFFFC0000
FFFFFFFF0000
FFFFFFFFC000
FFFFFFFFE000
FFFFFFFFF000
FC00007FF800
FC00001FFC00
FC000007FE00
FC000003FE00
FC000001FF00
FC000000FF80
FC0000007F80
FC0000003FC0
FC0000003FC0
FC0000001FC0
FC0000001FE0
FC0000000FE0
FC0000000FE0
FC0000000FE0
FC0000000FF0
FC00000007F0
FC00000007F0
FC00000007F0
FC00000007F0
FC00000007F0
FC00000007F0
FC00000007F0
FC00000007F0
FC00000007F0
FC00000007F0
FC00000007F0
FC0000000FF0
FC0000000FE0
FC0000000FE0
FC0000000FE0
FC0000001FE0
FC0000001FC0
FC0000001FC0
FC0000003FC0
FC0000007F80
FC0000007F80
FC000000FF00
FC000001FF00
FC000003FE00
FC00000FFC00
FC00003FFC00
FC0003FFF800
FFFFFFFFF000
FFFFFFFFC000
FFFFFFFF8000
FFFFFFFE0000
FFFFFFF80000
FFFFFF800000
ENDCHAR
STARTCHAR 010F
ENCODING 271
SWIDTH 732 0
DWIDTH 57 0
BBX 52 62 4 -1
BITMAP
00000000000F80
00000000001FE0
00000000003FE0
00000000FC3FF0
00000000FC3FF0
00000000FC3FF0
00000000FC3FF0
00000000FC1FF0
00000000FC07F0
00000000FC00F0
00000000FC00F0
00000000FC00F0
00000000FC00F0
00000000FC00E0
00000000FC01E0
00000000FC01E0
00000000FC03C0
00000000FC0F80
00000000FC0F00
0007FC00FC0C00
003FFF00FC0000
00FFFFC0FC0000
01FFFFE0FC0000
03FFFFF0FC0000
07FFFFF8FC0000
0FFC01FCFC0000
1FF0007CFC0000
1FE0001EFC0000
3FC0000FFC0000
3FC0000FFC0000
7F800007FC0000
7F000003FC0000
7F000003FC0000
FF000003FC0000
FE000001FC0000
FE000001FC0000
FE000001FC0000
FE000001FC0000
FE000001FC0000
FE000001FC0000
FE000001FC0000
FE000001FC0000
FE000001FC0000
FE000001FC0000
FE000001FC0000
FE000001FC0000
FE000001FC0000
7F000003FC0000
7F000003FC0000
7F800007FC0000
3F800007FC0000
3FC0000FFC0000
3FE0001FFC0000
1FF0003EFC0000
0FF8007CFC0000
0FFF03F8FC0000
07FFFFF0FC0000
03FFFFE0FC0000
01FFFFC0FC0000
007FFF80FC0000
001FFE00FC0000
0000E000000000
ENDCHAR
STARTCHAR 0110
ENCODING 272
SWIDTH 707 0
DWIDTH 55 0
BBX 48 54 4 0
BITMAP
0FFFFFFC0000
0FFFFFFF8000
0FFFFFFFE000
0FFFFFFFF800
0FFFFFFFFE00
0FFFFFFFFF00
0FE0000FFF80
0FE00001FFC0
0FE000007FE0
0FE000003FE0
0FE000000FF0
0FE000000FF8
0FE0000007F8
0FE0000003FC
0FE0000001FC
0FE0000001FC
0FE0000000FE
0FE0000000FE
0FE0000000FE
0FE0000000FF
0FE00000007F
0FE00000007F
0FE00000007F
0FE00000007F
FFFFF800007F
FFFFF800007F
FFFFF800007F
FFFFF800007F
FFFFF800007F
0FE00000007F
0FE00000007F
0FE00000007F
0FE00000007F
0FE00000007F
0FE0000000FE
0FE0000000FE
0FE0000000FE
0FE0000001FE
0FE0000001FC
0FE0000003FC
0FE0000003F8
0FE0000007F8
0FE000000FF8
0FE000001FF0
0FE000003FE0
0FE00000FFC0
0FE00003FF80
0FE0003FFF00
0FFFFFFFFE00
0FFFFFFFFC00
0FFFFFFFF000
0FFFFFFFC000
0FFFFFFF0000
0FFFFFF00000
ENDCHAR
STARTCHAR 0111
ENCODING 273
SWIDTH 617 0
DWIDTH 48 0
BBX 44 59 4 -1
BITMAP
00000000FC00
00000000FC00
00000000FC00
00000000FC00
00000000FC00
00000000FC00
00000FFFFFF0
00000FFFFFF0
00000FFFFFF0
00000FFFFFF0
00000FFFFFF0
00000000FC00
00000000FC00
00000000FC00
00000000FC00
00000000FC00
0007FC00FC00
003FFF00FC00
00FFFFC0FC00
01FFFFE0FC00
03FFFFF0FC00
07FFFFF8FC00
0FFC01FCFC00
1FF0007CFC00
1FE0001EFC00
3FC0000FFC00
3FC0000FFC00
7F800007FC00
7F000003FC00
7F000003FC00
FF000003FC00
FE000001FC00
FE000001FC00
FE000001FC00
FE000001FC00
FE000001FC00
FE000001FC00
FE000001FC00
FE000001FC00
FE000001FC00
FE000001FC00
FE000001FC00
FE000001FC00
FE000001FC00
7F000003FC00
7F000003FC00
7F800007FC00
3F800007FC00
3FC0000FFC00
3FE0001FFC00
1FF0003EFC00
0FF8007CFC00
0FFF03F8FC00
07FFFFF0FC00
03FFFFE0FC00
01FFFFC0FC00
007FFF80FC00
001FFE00FC00
0000E0000000
ENDCHAR
STARTCHAR 0112
ENCODING 274
SWIDTH 565 0
DWIDTH 44 0
BBX 33 66 6 0
BITMAP
07FFFFF000
07FFFFF000
07FFFFF000
07FFFFF000
0000000000
0000000000
0000000000
0000000000
0000000000
0000000000
0000000000
0000000000
FFFFFFFF80
FFFFFFFF80
FFFFFFFF80
FFFFFFFF80
FFFFFFFF80
FFFFFFFF80
FE00000000
FE00000000
FE00000000
FE00000000
FE00000000
FE00000000
FE00000000
FE00000000
FE00000000
FE00000000
FE00000000
FE00000000
FE00000000
FE00000000
FE00000000
FE00000000
FE00000000
FE00000000
FFFFFFFC00
FFFFFFFC00
FFFFFFFC00
FFFFFFFC00
FFFFFFFC00
FE00000000
FE00000000
FE00000000
FE00000000
FE00000000
FE00000000
FE00000000
FE00000000
FE00000000
FE00000000
FE00000000
FE00000000
FE00000000
FE00000000
FE00000000
FE00000000
FE00000000
FE00000000
FE00000000
FFFFFFFF80
FFFFFFFF80
FFFFFFFF80
FFFFFFFF80
FFFFFFFF80
FFFFFFFF80
ENDCHAR
STARTCHAR 0113
ENCODING 275
SWIDTH 578 0
DWIDTH 45 0
BBX 37 53 4 -1
BITMAP
00FFFFFE00
00FFFFFE00
00FFFFFE00
0000000000
0000000000
0000000000
0000000000
0000000000
0000000000
0000000000
0003FF0000
001FFFE000
007FFFF800
00FFFFFC00
01FFFFFE00
03FF03FF00
07F8007F80
0FF0003FC0
1FE0001FE0
1FC0000FE0
3F800007E0
3F000007F0
7F000003F0
7F000003F0
7E000003F8
7E000003F8
FE000001F8
FE000001F8
FFFFFFFFF8
FFFFFFFFF8
FFFFFFFFF8
FFFFFFFFF8
FFFFFFFFF8
FE00000000
FE00000000
FE00000000
FE00000000
7E00000000
7E00000000
7F000003F8
3F000003F0
3F800007F0
3FC0000FF0
1FE0000FE0
0FF0003FE0
0FF8007FC0
07FF03FF80
03FFFFFF00
01FFFFFE00
00FFFFFC00
003FFFF000
000FFFC000
0000700000
ENDCHAR
STARTCHAR 0116
ENCODING 278
SWIDTH 565 0
DWIDTH 44 0
BBX 33 71 6 0
BITMAP
0001C00000
0007F00000
0007F00000
000FF80000
000FF80000
000FF80000
000FF00000
0007F00000
0003C00000
0000000000
0000000000
0000000000
0000000000
0000000000
0000000000
0000000000
0000000000
FFFFFFFF80
FFFFFFFF80
FFFFFFFF80
FFFFFFFF80
FFFFFFFF80
FFFFFFFF80
FE00000000
FE00000000
FE00000000
FE00000000
FE00000000
FE00000000
FE00000000
FE00000000
FE00000000
FE00000000
FE00000000
FE00000000
FE00000000
FE00000000
FE00000000
FE00000000
FE00000000
FE00000000
FFFFFFFC00
FFFFFFFC00
FFFFFFFC00
FFFFFFFC00
FFFFFFFC00
FE00000000
FE00000000
FE00000000
FE00000000
FE00000000
FE00000000
FE00000000
FE00000000
FE00000000
FE00000000
FE00000000
FE00000000
FE00000000
FE00000000
FE00000000
FE00000000
FE00000000
FE00000000
FE00000000
FFFFFFFF80
FFFFFFFF80
FFFFFFFF80
FFFFFFFF80
FFFFFFFF80
FFFFFFFF80
ENDCHAR
STARTCHAR 0117
ENCODING 279
SWIDTH 578 0
DWIDTH 45 0
BBX 37 58 4 -1
BITMAP
00007C0000
0000FE0000
0001FE0000
0001FE0000
0001FF0000
0001FE0000
0001FE0000
0000FC0000
0000000000
0000000000
0000000000
0000000000
0000000000
0000000000
0000000000
0003FF0000
001FFFE000
007FFFF800
00FFFFFC00
01FFFFFE00
03FF03FF00
07F8007F80
0FF0003FC0
1FE0001FE0
1FC0000FE0
3F800007E0
3F000007F0
7F000003F0
7F000003F0
7E000003F8
7E000003F8
FE000001F8
FE000001F8
FFFFFFFFF8
FFFFFFFFF8
FFFFFFFFF8
FFFFFFFFF8
FFFFFFFFF8
FE00000000
FE00000000
FE00000000
FE00000000
7E00000000
7E00000000
7F000003F8
3F000003F0
3F800007F0
3FC0000FF0
1FE0000FE0
0FF0003FE0
0FF8007FC0
07FF03FF80
03FFFFFF00
01FFFFFE00
00FFFFFC00
003FFFF000
000FFFC000
0000700000
ENDCHAR
STARTCHAR 0118
ENCODING 280
SWIDTH 565 0
DWIDTH 44 0
BBX 36 67 6 -13
BITMAP
FFFFFFFF80
FFFFFFFF80
FFFFFFFF80
FFFFFFFF80
FFFFFFFF80
FFFFFFFF80
FE00000000
FE00000000
FE00000000
FE00000000
FE00000000
FE00000000
FE00000000
FE00000000
FE00000000
FE00000000
FE00000000
FE00000000
FE00000000
FE00000000
FE00000000
FE00000000
FE00000000
FE00000000
FFFFFFFC00
FFFFFFFC00
FFFFFFFC00
FFFFFFFC00
FFFFFFFC00
FE00000000
FE00000000
FE00000000
FE00000000
FE00000000
FE00000000
FE00000000
FE00000000
FE00000000
FE00000000
FE00000000
FE00000000
FE00000000
FE00000000
FE00000000
FE00000000
FE00000000
FE00000000
FE00000000
FFFFFFFF80
FFFFFFFF80
FFFFFFFF80
FFFFFFFF80
FFFFFFFF80
FFFFFFFF80
0000001F80
0000003E00
0000007C00
0000007800
000000F800
000000F800
000000F800
000000FC00
0000007F30
0000007FF0
0000003FF0
0000001FF0
0000000080
ENDCHAR
STARTCHAR 0119
ENCODING 281
SWIDTH 578 0
DWIDTH 45 0
BBX 37 55 4 -13
BITMAP
0003FF0000
001FFFE000
007FFFF800
00FFFFFC00
01FFFFFE00
03FF03FF00
07F8007F80
0FF0003FC0
1FE0001FE0
1FC0000FE0
3F800007E0
3F000007F0
7F000003F0
7F000003F0
7E000003F8
7E000003F8
FE000001F8
FE000001F8
FFFFFFFFF8
FFFFFFFFF8
FFFFFFFFF8
FFFFFFFFF8
FFFFFFFFF8
FE00000000
FE00000000
FE00000000
FE00000000
7E00000000
7E00000000
7F000003F8
3F000003F0
3F800007F0
3FC0000FF0
1FE0000FE0
0FF0003FE0
0FF8007FC0
07FF03FF80
03FFFFFF00
01FFFFFE00
00FFFFFC00
003FFFF000
000FFFC000
0000FC0000
0001F00000
0003E00000
0003C00000
0007C00000
0007C00000
0007C00000
0007C00000
0007F00000
0003FF8000
0001FF8000
0000FF8000
00003F8000
ENDCHAR
STARTCHAR 011A
ENCODING 282
SWIDTH 565 0
DWIDTH 44 0
BBX 33 71 6 0
BITMAP
0FC001F800
07E003F000
03F007F000
03F80FE000
01FC1FC000
00FE3F8000
007F7F0000
003FFE0000
001FFC0000
000FF80000
0007F00000
0000000000
0000000000
0000000000
0000000000
0000000000
0000000000
FFFFFFFF80
FFFFFFFF80
FFFFFFFF80
FFFFFFFF80
FFFFFFFF80
FFFFFFFF80
FE00000000
FE00000000
FE00000000
FE00000000
FE00000000
FE00000000
FE00000000
FE00000000
FE00000000
FE00000000
FE00000000
FE00000000
FE00000000
FE00000000
FE00000000
FE00000000
FE00000000
FE00000000
FFFFFFFC00
FFFFFFFC00
FFFFFFFC00
FFFFFFFC00
FFFFFFFC00
FE00000000
FE00000000
FE00000000
FE00000000
FE00000000
FE00000000
FE00000000
FE00000000
FE00000000
FE00000000
FE00000000
FE00000000
FE00000000
FE00000000
FE00000000
FE00000000
FE00000000
FE00000000
FE00000000
FFFFFFFF80
FFFFFFFF80
FFFFFFFF80
FFFFFFFF80
FFFFFFFF80
FFFFFFFF80
ENDCHAR
STARTCHAR 011B
ENCODING 283
SWIDTH 578 0
DWIDTH 45 0
BBX 37 58 4 -1
BITMAP
01FC007F00
00FE00FE00
007E01FC00
003F03F800
001F87F000
001FCFE000
000FFFC000
0007FF8000
0003FF0000
0001FE0000
0000FC0000
0000000000
0000000000
0000000000
0000000000
0003FF0000
001FFFE000
007FFFF800
00FFFFFC00
01FFFFFE00
03FF03FF00
07F8007F80
0FF0003FC0
1FE0001FE0
1FC0000FE0
3F800007E0
3F000007F0
7F000003F0
7F000003F0
7E000003F8
7E000003F8
FE000001F8
FE000001F8
FFFFFFFFF8
FFFFFFFFF8
FFFFFFFFF8
FFFFFFFFF8
FFFFFFFFF8
FE00000000
FE00000000
FE00000000
FE00000000
7E00000000
7E00000000
7F000003F8
3F000003F0
3F800007F0
3FC0000FF0
1FE0000FE0
0FF0003FE0
0FF8007FC0
07FF03FF80
03FFFFFF00
01FFFFFE00
00FFFFFC00
003FFFF000
000FFFC000
0000700000
ENDCHAR
STARTCHAR 011E
ENCODING 286
SWIDTH 707 0
DWIDTH 55 0
BBX 47 70 4 -1
BITMAP
001F8001F800
000FC001F800
0007E003F000
0007F80FE000
0003FFFFC000
0000FFFF8000
00007FFF0000
00001FF80000
000000000000
000000000000
000000000000
000000000000
000000000000
000001C00000
00007FFF0000
0003FFFFE000
000FFFFFF800
001FFFFFFC00
007FFFFFFE00
00FFFFFFFF00
01FFC001FF80
03FF00007FC0
03FE00003FE0
07F800001FF0
0FF000000FF0
0FF0000007F8
1FE0000003F8
1FC0000003FC
3FC0000001FC
3F80000001FC
3F80000000FE
7F0000000000
7F0000000000
7F0000000000
7F0000000000
7E0000000000
FE0000000000
FE0000000000
FE0000000000
FE0000000000
FE0000000000
FE00007FFFFE
FE00007FFFFE
FE00007FFFFE
FE00007FFFFE
FE00007FFFFE
FE000000007E
7E00000000FE
7F00000000FE
7F00000000FE
7F00000000FE
7F00000000FE
3F80000000FE
3F80000000FE
3FC0000001FE
1FC0000001FE
1FE0000003FE
0FE0000003FE
0FF0000007FE
07F800000FFE
03FC00001FFE
03FF00003F7E
01FFC000FE7E
00FFF80FFE7E
007FFFFFFC7E
003FFFFFF07E
000FFFFFE07E
0003FFFF807E
0000FFFE007E
000001C00000
ENDCHAR
STARTCHAR 011F
ENCODING 287
SWIDTH 617 0
DWIDTH 48 0
BBX 39 71 4 -16
BITMAP
01F8003F00
00FC003F00
00FE00FE00
007FE7FC00
003FFFF800
000FFFF000
0007FFC000
00003E0000
0000000000
0000000000
0000000000
0000000000
0000000000
000FFC0000
003FFF80FE
00FFFFC0FE
01FFFFE0FE
03FFFFF0FE
07FFFFF8FE
0FFE00FCFE
1FF8003EFE
1FE0001EFE
3FE0000FFE
3FC00007FE
7F800007FE
7F800003FE
7F000003FE
7F000001FE
FF000001FE
FE000001FE
FE000001FE
FE000000FE
FE000000FE
FE000000FE
FE000000FE
FE000001FE
FE000001FE
FE000001FE
FF000001FE
7F000001FE
7F000003FE
7F800003FE
7F800007FE
3FC00007FE
3FE0000FFE
1FE0001FFE
1FF8003EFE
0FFC00FCFE
07FFEFF8FE
03FFFFF8FE
01FFFFF0FE
00FFFFC0FE
007FFF80FE
000FFE00FE
00000000FC
00000000FC
00000001FC
00000001FC
00000001FC
00000003FC
00000003F8
00000007F8
0000000FF0
0000001FF0
0000007FE0
0007FFFFC0
0007FFFF80
0007FFFF00
0007FFFE00
0007FFF800
0003FFE000
ENDCHAR
STARTCHAR 0120
ENCODING 288
SWIDTH 707 0
DWIDTH 55 0
BBX 47 72 4 -1
BITMAP
000001C00000
000007E00000
00000FF00000
00000FF80000
00000FF80000
00000FF80000
00000FF00000
000007F00000
000003C00000
000000000000
000000000000
000000000000
000000000000
000000000000
000000000000
000001C00000
00007FFF0000
0003FFFFE000
000FFFFFF800
001FFFFFFC00
007FFFFFFE00
00FFFFFFFF00
01FFC001FF80
03FF00007FC0
03FE00003FE0
07F800001FF0
0FF000000FF0
0FF0000007F8
1FE0000003F8
1FC0000003FC
3FC0000001FC
3F80000001FC
3F80000000FE
7F0000000000
7F0000000000
7F0000000000
7F0000000000
7E0000000000
FE0000000000
FE0000000000
FE0000000000
FE0000000000
FE0000000000
FE00007FFFFE
FE00007FFFFE
FE00007FFFFE
FE00007FFFFE
FE00007FFFFE
FE000000007E
7E00000000FE
7F00000000FE
7F00000000FE
7F00000000FE
7F00000000FE
3F80000000FE
3F80000000FE
3FC0000001FE
1FC0000001FE
1FE0000003FE
0FE0000003FE
0FF0000007FE
07F800000FFE
03FC00001FFE
03FF00003F7E
01FFC000FE7E
00FFF80FFE7E
007FFFFFFC7E
003FFFFFF07E
000FFFFFE07E
0003FFFF807E
0000FFFE007E
000001C00000
ENDCHAR
STARTCHAR 0121
ENCODING 289
SWIDTH 617 0
DWIDTH 48 0
BBX 39 73 4 -16
BITMAP
00007C0000
0000FE0000
0000FF0000
0001FF0000
0001FF0000
0000FF0000
0000FE0000
00007C0000
0000000000
0000000000
0000000000
0000000000
0000000000
0000000000
0000000000
000FFC0000
003FFF80FE
00FFFFC0FE
01FFFFE0FE
03FFFFF0FE
07FFFFF8FE
0FFE00FCFE
1FF8003EFE
1FE0001EFE
3FE0000FFE
3FC00007FE
7F800007FE
7F800003FE
7F000003FE
7F000001FE
FF000001FE
FE000001FE
FE000001FE
FE000000FE
FE000000FE
FE000000FE
FE000000FE
FE000001FE
FE000001FE
FE000001FE
FF000001FE
7F000001FE
7F000003FE
7F800003FE
7F800007FE
3FC00007FE
3FE0000FFE
1FE0001FFE
1FF8003EFE
0FFC00FCFE
07FFEFF8FE
03FFFFF8FE
01FFFFF0FE
00FFFFC0FE
007FFF80FE
000FFE00FE
00000000FC
00000000FC
00000001FC
00000001FC
00000001FC
00000003FC
00000003F8
00000007F8
0000000FF0
0000001FF0
0000007FE0
0007FFFFC0
0007FFFF80
0007FFFF00
0007FFFE00
0007FFF800
0003FFE000
ENDCHAR
STARTCHAR 0126
ENCODING 294
SWIDTH 681 0
DWIDTH 53 0
BBX 50 54 2 0
BITMAP
0FE0000001FC00
0FE0000001FC00
0FE0000001FC00
0FE0000001FC00
0FE0000001FC00
0FE0000001FC00
0FE0000001FC00
0FE0000001FC00
0FE0000001FC00
FFFFFFFFFFFFC0
FFFFFFFFFFFFC0
FFFFFFFFFFFFC0
FFFFFFFFFFFFC0
FFFFFFFFFFFFC0
0FE0000001FC00
0FE0000001FC00
0FE0000001FC00
0FE0000001FC00
0FE0000001FC00
0FE0000001FC00
0FE0000001FC00
0FE0000001FC00
0FE0000001FC00
0FE0000001FC00
0FFFFFFFFFFC00
0FFFFFFFFFFC00
0FFFFFFFFFFC00
0FFFFFFFFFFC00
0FFFFFFFFFFC00
0FE0000001FC00
0FE0000001FC00
0FE0000001FC00
0FE0000001FC00
0FE0000001FC00
0FE0000001FC00
0FE0000001FC00
0FE0000001FC00
0FE0000001FC00
0FE0000001FC00
0FE0000001FC00
0FE0000001FC00
0FE0000001FC00
0FE0000001FC00
0FE0000001FC00
0FE0000001FC00
0FE0000001FC00
0FE0000001FC00
0FE0000001FC00
0FE0000001FC00
0FE0000001FC00
0FE0000001FC00
0FE0000001FC00
0FE0000001FC00
0FE0000001FC00
ENDCHAR
STARTCHAR 0127
ENCODING 295
SWIDTH 604 0
DWIDTH 47 0
BBX 42 58 1 0
BITMAP
07F000000000
07F000000000
07F000000000
07F000000000
07F000000000
07F000000000
FFFFFF000000
FFFFFF000000
FFFFFF000000
FFFFFF000000
FFFFFF000000
07F000000000
07F000000000
07F000000000
07F000000000
07F000000000
07F001FF8000
07F00FFFE000
07F03FFFF800
07F07FFFFC00
07F0FFFFFE00
07F1FFFFFE00
07F3F803FF00
07F3C000FF00
07F780007F80
07FF00007F80
07FE00003F80
07FC00003F80
07FC00003FC0
07F800001FC0
07F800001FC0
07F800001FC0
07F800001FC0
07F000001FC0
07F000001FC0
07F000001FC0
07F000001FC0
07F000001FC0
07F000001FC0
07F000001FC0
07F000001FC0
07F000001FC0
07F000001FC0
07F000001FC0
07F000001FC0
07F000001FC0
07F000001FC0
07F000001FC0
07F000001FC0
07F000001FC0
07F000001FC0
07F000001FC0
07F000001FC0
07F000001FC0
07F000001FC0
07F000001FC0
07F000001FC0
07F000001FC0
ENDCHAR
STARTCHAR 0128
ENCODING 296
SWIDTH 231 0
DWIDTH 18 0
BBX 23 70 -2 0
BITMAP
0FC01E
3FF03E
3FF83C
7FFE7C
7CFFFC
783FF8
F81FF8
F007E0
000000
000000
000000
000000
000000
000000
000000
000000
00FE00
00FE00
00FE00
00FE00
00FE00
00FE00
00FE00
00FE00
00FE00
00FE00
00FE00
00FE00
00FE00
00FE00
00FE00
00FE00
00FE00
00FE00
00FE00
00FE00
00FE00
00FE00
00FE00
00FE00
00FE00
00FE00
00FE00
00FE00
00FE00
00FE00
00FE00
00FE00
00FE00
00FE00
00FE00
00FE00
00FE00
00FE00
00FE00
00FE00
00FE00
00FE00
00FE00
00FE00
00FE00
00FE00
00FE00
00FE00
00FE00
00FE00
00FE00
00FE00
00FE00
00FE00
ENDCHAR
STARTCHAR 0129
ENCODING 297
SWIDTH 244 0
DWIDTH 19 0
BBX 22 57 -1 0
BITMAP
0F003C
3FC03C
7FF07C
7FF87C
FFFFF8
F0FFF8
F03FF0
F01FE0
F00780
000000
000000
000000
000000
000000
000000
000000
01FC00
01FC00
01FC00
01FC00
01FC00
01FC00
01FC00
01FC00
01FC00
01FC00
01FC00
01FC00
01FC00
01FC00
01FC00
01FC00
01FC00
01FC00
01FC00
01FC00
01FC00
01FC00
01FC00
01FC00
01FC00
01FC00
01FC00
01FC00
01FC00
01FC00
01FC00
01FC00
01FC00
01FC00
01FC00
01FC00
01FC00
01FC00
01FC00
01FC00
01FC00
ENDCHAR
STARTCHAR 012A
ENCODING 298
SWIDTH 231 0
DWIDTH 18 0
BBX 23 66 -2 0
BITMAP
FFFFFE
FFFFFE
FFFFFE
FFFFFE
000000
000000
000000
000000
000000
000000
000000
000000
00FE00
00FE00
00FE00
00FE00
00FE00
00FE00
00FE00
00FE00
00FE00
00FE00
00FE00
00FE00
00FE00
00FE00
00FE00
00FE00
00FE00
00FE00
00FE00
00FE00
00FE00
00FE00
00FE00
00FE00
00FE00
00FE00
00FE00
00FE00
00FE00
00FE00
00FE00
00FE00
00FE00
00FE00
00FE00
00FE00
00FE00
00FE00
00FE00
00FE00
00FE00
00FE00
00FE00
00FE00
00FE00
00FE00
00FE00
00FE00
00FE00
00FE00
00FE00
00FE00
00FE00
00FE00
ENDCHAR
STARTCHAR 012B
ENCODING 299
SWIDTH 244 0
DWIDTH 19 0
BBX 23 52 -2 0
BITMAP
FFFFFE
FFFFFE
FFFFFE
000000
000000
000000
000000
000000
000000
000000
000000
00FE00
00FE00
00FE00
00FE00
00FE00
00FE00
00FE00
00FE00
00FE00
00FE00
00FE00
00FE00
00FE00
00FE00
00FE00
00FE00
00FE00
00FE00
00FE00
00FE00
00FE00
00FE00
00FE00
00FE00
00FE00
00FE00
00FE00
00FE00
00FE00
00FE00
00FE00
00FE00
00FE00
00FE00
00FE00
00FE00
00FE00
00FE00
00FE00
00FE00
00FE00
ENDCHAR
STARTCHAR 012E
ENCODING 302
SWIDTH 231 0
DWIDTH 18 0
BBX 12 67 4 -13
BITMAP
3F80
3F80
3F80
3F80
3F80
3F80
3F80
3F80
3F80
3F80
3F80
3F80
3F80
3F80
3F80
3F80
3F80
3F80
3F80
3F80
3F80
3F80
3F80
3F80
3F80
3F80
3F80
3F80
3F80
3F80
3F80
3F80
3F80
3F80
3F80
3F80
3F80
3F80
3F80
3F80
3F80
3F80
3F80
3F80
3F80
3F80
3F80
3F80
3F80
3F80
3F80
3F80
3F80
3F80
3F00
7E00
7C00
F800
F800
F800
F800
F800
FF30
7FF0
3FF0
1FF0
0180
ENDCHAR
STARTCHAR 012F
ENCODING 303
SWIDTH 244 0
DWIDTH 19 0
BBX 12 70 4 -13
BITMAP
1F00
3F80
3FC0
7FC0
7FC0
3FC0
3F80
1F00
0000
0000
0000
0000
0000
0000
0000
0000
3F80
3F80
3F80
3F80
3F80
3F80
3F80
3F80
3F80
3F80
3F80
3F80
3F80
3F80
3F80
3F80
3F80
3F80
3F80
3F80
3F80
3F80
3F80
3F80
3F80
3F80
3F80
3F80
3F80
3F80
3F80
3F80
3F80
3F80
3F80
3F80
3F80
3F80
3F80
3F80
3F80
3F00
7E00
7C00
F800
F800
F800
F800
FC00
FF30
7FF0
3FF0
1FF0
0180
ENDCHAR
STARTCHAR 0130
ENCODING 304
SWIDTH 231 0
DWIDTH 18 0
BBX 9 71 5 0
BITMAP
1C00
7F00
7F00
FF80
FF80
FF80
FF00
7F00
3C00
0000
0000
0000
0000
0000
0000
0000
0000
7F00
7F00
7F00
7F00
7F00
7F00
7F00
7F00
7F00
7F00
7F00
7F00
7F00
7F00
7F00
7F00
7F00
7F00
7F00
7F00
7F00
7F00
7F00
7F00
7F00
7F00
7F00
7F00
7F00
7F00
7F00
7F00
7F00
7F00
7F00
7F00
7F00
7F00
7F00
7F00
7F00
7F00
7F00
7F00
7F00
7F00
7F00
7F00
7F00
7F00
7F00
7F00
7F00
7F00
ENDCHAR
STARTCHAR 0131
ENCODING 305
SWIDTH 244 0
DWIDTH 19 0
BBX 7 41 6 0
BITMAP
FE
FE
FE
FE
FE
FE
FE
FE
FE
FE
FE
FE
FE
FE
FE
FE
FE
FE
FE
FE
FE
FE
FE
FE
FE
FE
FE
FE
FE
FE
FE
FE
FE
FE
FE
FE
FE
FE
FE
FE
FE
ENDCHAR
STARTCHAR 0139
ENCODING 313
SWIDTH 527 0
DWIDTH 41 0
BBX 32 74 6 0
BITMAP
00FE0000
00FE0000
01FC0000
03F80000
03F80000
07F00000
07E00000
0FC00000
0FC00000
1F800000
1F000000
3F000000
3E000000
7C000000
00000000
00000000
00000000
00000000
00000000
00000000
FE000000
FE000000
FE000000
FE000000
FE000000
FE000000
FE000000
FE000000
FE000000
FE000000
FE000000
FE000000
FE000000
FE000000
FE000000
FE000000
FE000000
FE000000
FE000000
FE000000
FE000000
FE000000
FE000000
FE000000
FE000000
FE000000
FE000000
FE000000
FE000000
FE000000
FE000000
FE000000
FE000000
FE000000
FE000000
FE000000
FE000000
FE000000
FE000000
FE000000
FE000000
FE000000
FE000000
FE000000
FE000000
FE000000
FE000000
FE000000
FFFFFFFF
FFFFFFFF
FFFFFFFF
FFFFFFFF
FFFFFFFF
FFFFFFFF
ENDCHAR
STARTCHAR 013A
ENCODING 314
SWIDTH 308 0
DWIDTH 24 0
BBX 16 78 6 0
BITMAP
007F
00FE
01FC
01FC
03F8
03F0
07F0
07E0
0FC0
0FC0
1F80
3F00
3F00
7E00
0000
0000
0000
0000
0000
0000
FE00
FE00
FE00
FE00
FE00
FE00
FE00
FE00
FE00
FE00
FE00
FE00
FE00
FE00
FE00
FE00
FE00
FE00
FE00
FE00
FE00
FE00
FE00
FE00
FE00
FE00
FE00
FE00
FE00
FE00
FE00
FE00
FE00
FE00
FE00
FE00
FE00
FE00
FE00
FE00
FE00
FE00
FE00
FE00
FE00
FE00
FE00
FE00
FE00
FE00
FE00
FF00
7F80
7FFE
7FFE
3FFE
1FFE
07FE
ENDCHAR
STARTCHAR 013D
ENCODING 317
SWIDTH 527 0
DWIDTH 41 0
BBX 42 71 -4 0
BITMAP
FE001FC00000
7F003F800000
3F807F000000
1FC0FE000000
0FE0FC000000
07F1F8000000
03FBF8000000
01FFF0000000
00FFE0000000
007FC0000000
007F80000000
000000000000
000000000000
000000000000
000000000000
000000000000
000000000000
003F80000000
003F80000000
003F80000000
003F80000000
003F80000000
003F80000000
003F80000000
003F80000000
003F80000000
003F80000000
003F80000000
003F80000000
003F80000000
003F80000000
003F80000000
003F80000000
003F80000000
003F80000000
003F80000000
003F80000000
003F80000000
003F80000000
003F80000000
003F80000000
003F80000000
003F80000000
003F80000000
003F80000000
003F80000000
003F80000000
003F80000000
003F80000000
003F80000000
003F80000000
003F80000000
003F80000000
003F80000000
003F80000000
003F80000000
003F80000000
003F80000000
003F80000000
003F80000000
003F80000000
003F80000000
003F80000000
003F80000000
003F80000000
003FFFFFFFC0
003FFFFFFFC0
003FFFFFFFC0
003FFFFFFFC0
003FFFFFFFC0
003FFFFFFFC0
ENDCHAR
STARTCHAR 013E
ENCODING 318
SWIDTH 347 0
DWIDTH 27 0
BBX 21 61 6 0
BITMAP
0007C0
001FE0
001FF0
FE3FF0
FE3FF0
FE3FF8
FE3FF8
FE1FF8
FE07F8
FE00F8
FE0078
FE0070
FE0070
FE00F0
FE00E0
FE01E0
FE03C0
FE0F80
FE0F00
FE0E00
FE0000
FE0000
FE0000
FE0000
FE0000
FE0000
FE0000
FE0000
FE0000
FE0000
FE0000
FE0000
FE0000
FE0000
FE0000
FE0000
FE0000
FE0000
FE0000
FE0000
FE0000
FE0000
FE0000
FE0000
FE0000
FE0000
FE0000
FE0000
FE0000
FE0000
FE0000
FE0000
FE0000
FE0000
FF0000
7F8000
7FFE00
7FFE00
3FFE00
1FFE00
07FE00
ENDCHAR
STARTCHAR 0143
ENCODING 323
SWIDTH 707 0
DWIDTH 55 0
BBX 43 74 6 0
BITMAP
0000001FC000
0000003F8000
0000003F0000
0000007F0000
000000FE0000
000000FC0000
000001FC0000
000001F80000
000003F00000
000003F00000
000007E00000
000007C00000
00000FC00000
00001F800000
000000000000
000000000000
000000000000
000000000000
000000000000
000000000000
FF00000007E0
FF80000007E0
FF80000007E0
FFC0000007E0
FFE0000007E0
FFE0000007E0
FFF0000007E0
FFF8000007E0
FFF8000007E0
FFFC000007E0
FFFE000007E0
FDFE000007E0
FCFF000007E0
FCFF800007E0
FC7F800007E0
FC3FC00007E0
FC1FE00007E0
FC1FE00007E0
FC0FF00007E0
FC07F80007E0
FC07F80007E0
FC03FC0007E0
FC01FE0007E0
FC01FE0007E0
FC00FF0007E0
FC007F8007E0
FC007F8007E0
FC003FC007E0
FC001FE007E0
FC001FE007E0
FC000FF007E0
FC0007F807E0
FC0007F807E0
FC0003FC07E0
FC0001FE07E0
FC0001FE07E0
FC0000FF07E0
FC00007F87E0
FC00007F87E0
FC00003FC7E0
FC00001FE7E0
FC00001FE7E0
FC00000FF7E0
FC000007FFE0
FC000007FFE0
FC000003FFE0
FC000001FFE0
FC000001FFE0
FC000000FFE0
FC0000007FE0
FC0000007FE0
FC0000003FE0
FC0000001FE0
FC0000001FE0
ENDCHAR
STARTCHAR 0144
ENCODING 324
SWIDTH 604 0
DWIDTH 47 0
BBX 36 60 6 0
BITMAP
000003FC00
000003F800
000007F000
000007E000
00000FE000
00000FC000
00001F8000
00001F8000
00003F0000
00007E0000
00007E0000
0000FC0000
0000F80000
0000000000
0000000000
0000000000
0000000000
0000000000
0000FF8000
FE03FFF000
FE0FFFFC00
FE1FFFFE00
FE3FFFFF00
FE7FFFFF80
FEFC03FF80
FEF000FFC0
FFE0003FC0
FFC0001FE0
FF80000FE0
FF00000FF0
FF000007F0
FE000007F0
FE000007F0
FE000007F0
FE000003F0
FE000003F0
FE000003F0
FE000003F0
FE000003F0
FE000003F0
FE000003F0
FE000003F0
FE000003F0
FE000003F0
FE000003F0
FE000003F0
FE000003F0
FE000003F0
FE000003F0
FE000003F0
FE000003F0
FE000003F0
FE000003F0
FE000003F0
FE000003F0
FE000003F0
FE000003F0
FE000003F0
FE000003F0
FE000003F0
ENDCHAR
STARTCHAR 0147
ENCODING 327
SWIDTH 707 0
DWIDTH 55 0
BBX 43 71 6 0
BITMAP
007F000FC000
003F801FC000
001F803F8000
000FC07F0000
0007E0FE0000
0007F1FC0000
0003FBF80000
0001FFF00000
0000FFE00000
00007FC00000
00003F800000
000000000000
000000000000
000000000000
000000000000
000000000000
000000000000
FF00000007E0
FF80000007E0
FF80000007E0
FFC0000007E0
FFE0000007E0
FFE0000007E0
FFF0000007E0
FFF8000007E0
FFF8000007E0
FFFC000007E0
FFFE000007E0
FDFE000007E0
FCFF000007E0
FCFF800007E0
FC7F800007E0
FC3FC00007E0
FC1FE00007E0
FC1FE00007E0
FC0FF00007E0
FC07F80007E0
FC07F80007E0
FC03FC0007E0
FC01FE0007E0
FC01FE0007E0
FC00FF0007E0
FC007F8007E0
FC007F8007E0
FC003FC007E0
FC001FE007E0
FC001FE007E0
FC000FF007E0
FC0007F807E0
FC0007F807E0
FC0003FC07E0
FC0001FE07E0
FC0001FE07E0
FC0000FF07E0
FC00007F87E0
FC00007F87E0
FC00003FC7E0
FC00001FE7E0
FC00001FE7E0
FC00000FF7E0
FC000007FFE0
FC000007FFE0
FC000003FFE0
FC000001FFE0
FC000001FFE0
FC000000FFE0
FC0000007FE0
FC0000007FE0
FC0000003FE0
FC0000001FE0
FC0000001FE0
ENDCHAR
STARTCHAR 0148
ENCODING 328
SWIDTH 604 0
DWIDTH 47 0
BBX 36 57 6 0
BITMAP
07F001FC00
03F803F800
01FC07F000
00FE07E000
007F0FC000
003F9FC000
001FFF8000
000FFF0000
0007FE0000
0003FC0000
0001F80000
0000000000
0000000000
0000000000
0000000000
0000FF8000
FE03FFF000
FE0FFFFC00
FE1FFFFE00
FE3FFFFF00
FE7FFFFF80
FEFC03FF80
FEF000FFC0
FFE0003FC0
FFC0001FE0
FF80000FE0
FF00000FF0
FF000007F0
FE000007F0
FE000007F0
FE000007F0
FE000003F0
FE000003F0
FE000003F0
FE000003F0
FE000003F0
FE000003F0
FE000003F0
FE000003F0
FE000003F0
FE000003F0
FE000003F0
FE000003F0
FE000003F0
FE000003F0
FE000003F0
FE000003F0
FE000003F0
FE000003F0
FE000003F0
FE000003F0
FE000003F0
FE000003F0
FE000003F0
FE000003F0
FE000003F0
FE000003F0
ENDCHAR
STARTCHAR 014C
ENCODING 332
SWIDTH 732 0
DWIDTH 57 0
BBX 49 67 4 -1
BITMAP
0007FFFFF00000
0007FFFFF00000
0007FFFFF00000
0007FFFFF00000
00000000000000
00000000000000
00000000000000
00000000000000
00000000000000
00000000000000
000001C0000000
00007FFF000000
0003FFFFE00000
000FFFFFF80000
001FFFFFFC0000
007FFFFFFF0000
00FFFFFFFF8000
01FFE003FFC000
03FF80007FE000
03FE00003FF000
07FC00001FF000
0FF800000FF800
0FF0000007F800
1FE0000003FC00
1FC0000001FC00
3FC0000001FE00
3F80000000FE00
3F80000000FE00
7F80000000FF00
7F000000007F00
7F000000007F00
7F000000007F00
FF000000003F80
FE000000003F80
FE000000003F80
FE000000003F80
FE000000003F80
FE000000003F80
FE000000003F80
FE000000003F80
FE000000003F80
FE000000003F80
FE000000003F80
FE000000003F80
FF000000003F80
7F000000007F00
7F000000007F00
7F000000007F00
7F80000000FF00
3F80000000FF00
3F80000000FE00
3FC0000001FE00
1FE0000001FC00
1FE0000003FC00
0FF0000007F800
0FF800000FF800
07FC00001FF000
07FE00003FF000
03FF8000FFE000
01FFE003FFC000
00FFFFFFFF8000
007FFFFFFF0000
001FFFFFFE0000
000FFFFFF80000
0003FFFFE00000
00007FFF000000
000002A0000000
ENDCHAR
STARTCHAR 014D
ENCODING 333
SWIDTH 591 0
DWIDTH 46 0
BBX 38 53 4 -1
BITMAP
00FFFFFE00
00FFFFFE00
00FFFFFE00
0000000000
0000000000
0000000000
0000000000
0000000000
0000000000
0000000000
0003FF0000
001FFFE000
007FFFF800
00FFFFFE00
01FFFFFF00
03FFFFFF80
07FE00FFC0
0FF8003FC0
1FE0001FE0
1FC0000FF0
3FC00007F0
3F800007F0
7F800003F8
7F000003F8
7F000001F8
7E000001FC
FE000001FC
FE000001FC
FE000001FC
FE000000FC
FE000000FC
FE000000FC
FE000000FC
FE000001FC
FE000001FC
FE000001FC
FE000001FC
7F000001FC
7F000003F8
7F000003F8
3F800007F8
3F800007F0
1FC0000FF0
1FE0001FE0
0FF0003FE0
0FFC007FC0
07FF03FF80
03FFFFFF00
01FFFFFE00
007FFFFC00
003FFFF000
000FFFC000
0000300000
ENDCHAR
STARTCHAR 0152
ENCODING 338
SWIDTH 951 0
DWIDTH 74 0
BBX 67 54 3 0
BITMAP
00003FFFFFFFFFFFE0
0001FFFFFFFFFFFFE0
0007FFFFFFFFFFFFE0
001FFFFFFFFFFFFFE0
003FFFFFFFFFFFFFE0
00FFFFFFFFFFFFFFE0
01FFE0007F00000000
01FF80007F00000000
03FE00007F00000000
07FC00007F00000000
0FF800007F00000000
0FF000007F00000000
1FE000007F00000000
1FE000007F00000000
3FC000007F00000000
3FC000007F00000000
3F8000007F00000000
7F8000007F00000000
7F8000007F00000000
7F0000007F00000000
7F0000007F00000000
7F0000007F00000000
7F0000007F00000000
FF0000007F00000000
FE0000007FFFFFFF00
FE0000007FFFFFFF00
FE0000007FFFFFFF00
FE0000007FFFFFFF00
FE0000007FFFFFFF00
FF0000007F00000000
FF0000007F00000000
7F0000007F00000000
7F0000007F00000000
7F0000007F00000000
7F0000007F00000000
7F8000007F00000000
3F8000007F00000000
3F8000007F00000000
3FC000007F00000000
1FC000007F00000000
1FE000007F00000000
1FF000007F00000000
0FF800007F00000000
07FC00007F00000000
07FE00007F00000000
03FF00007F00000000
01FFC0007F00000000
00FFF8007F00000000
007FFFFFFFFFFFFFE0
003FFFFFFFFFFFFFE0
000FFFFFFFFFFFFFE0
0007FFFFFFFFFFFFE0
0000FFFFFFFFFFFFE0
00001FFFFFFFFFFFE0
ENDCHAR
STARTCHAR 0153
ENCODING 339
SWIDTH 977 0
DWIDTH 76 0
BBX 69 43 4 -1
BITMAP
0003FE000003FF0000
001FFFC0001FFFE000
007FFFF0003FFFF800
00FFFFF800FFFFFC00
01FFFFFE01FFFFFE00
03FFFFFF03FF03FF00
07FC01FF07F800FF80
0FF0007F87F0003FC0
1FE0003FCFE0001FC0
1FC0001FCFC0000FE0
3FC0000FFF800007E0
3F800007FF000007E0
7F000007FF000007F0
7F000003FF000003F0
7F000003FE000003F0
7E000001FE000003F0
FE000001FE000003F8
FE000001FE000003F8
FE000001FFFFFFFFF8
FE000001FFFFFFFFF8
FE000001FFFFFFFFF8
FE000001FFFFFFFFF8
FE000001FFFFFFFFF8
FE000001FE00000000
FE000001FE00000000
FE000001FE00000000
FE000001FE00000000
7E000003FE00000000
7F000003FE00000000
7F000003FF000003F0
3F800007FF000007F0
3F800007FF800007F0
3FC0000FFFC0000FE0
1FE0001FCFE0001FE0
0FF0003FCFF0003FC0
0FF800FF87F8007F80
07FF03FF03FF03FF80
03FFFFFE01FFFFFF00
01FFFFFC00FFFFFE00
00FFFFF8007FFFF800
003FFFE0003FFFF000
000FFF80000FFFC000
000078000000380000
ENDCHAR
STARTCHAR 0154
ENCODING 340
SWIDTH 604 0
DWIDTH 47 0
BBX 37 74 6 0
BITMAP
000007F000
000007F000
00000FE000
00001FC000
00001FC000
00003F8000
00003F0000
00007E0000
00007E0000
0000FC0000
0000F80000
0001F80000
0001F00000
0003E00000
0000000000
0000000000
0000000000
0000000000
0000000000
0000000000
FFFFFFC000
FFFFFFF000
FFFFFFFC00
FFFFFFFE00
FFFFFFFF80
FFFFFFFFC0
FE0001FFC0
FE00003FE0
FE00000FE0
FE000007F0
FE000007F0
FE000003F8
FE000003F8
FE000003F8
FE000001F8
FE000001F8
FE000001F8
FE000001F8
FE000003F8
FE000003F8
FE000003F8
FE000007F0
FE000007F0
FE00000FE0
FE00003FE0
FE0000FFC0
FE003FFFC0
FFFFFFFF80
FFFFFFFE00
FFFFFFFC00
FFFFFFF000
FFFFFF8000
FE00FF0000
FE007F0000
FE003F8000
FE003FC000
FE001FC000
FE000FE000
FE000FF000
FE0007F000
FE0003F800
FE0003FC00
FE0001FC00
FE0001FE00
FE0000FE00
FE00007F00
FE00007F80
FE00003F80
FE00001FC0
FE00001FE0
FE00000FE0
FE000007F0
FE000007F8
FE000003F8
ENDCHAR
STARTCHAR 0155
ENCODING 341
SWIDTH 347 0
DWIDTH 27 0
BBX 20 60 6 0
BITMAP
0007F0
000FE0
000FC0
001FC0
003F80
003F00
007F00
007E00
00FC00
00FC00
01F800
01F000
03F000
000000
000000
000000
000000
000000
000000
FC07F0
FC1FF0
FC3FF0
FC7FF0
FCFFF0
FDFFF0
FDFC70
FFE000
FF8000
FF0000
FF0000
FE0000
FE0000
FE0000
FE0000
FC0000
FC0000
FC0000
FC0000
FC0000
FC0000
FC0000
FC0000
FC0000
FC0000
FC0000
FC0000
FC0000
FC0000
FC0000
FC0000
FC0000
FC0000
FC0000
FC0000
FC0000
FC0000
FC0000
FC0000
FC0000
FC0000
ENDCHAR
STARTCHAR 0158
ENCODING 344
SWIDTH 604 0
DWIDTH 47 0
BBX 37 71 6 0
BITMAP
1FC003F800
0FE007F000
07F00FE000
03F81FC000
01FC3F8000
00FE3F0000
007E7E0000
003FFE0000
001FFC0000
001FF80000
000FF00000
0000000000
0000000000
0000000000
0000000000
0000000000
0000000000
FFFFFFC000
FFFFFFF000
FFFFFFFC00
FFFFFFFE00
FFFFFFFF80
FFFFFFFFC0
FE0001FFC0
FE00003FE0
FE00000FE0
FE000007F0
FE000007F0
FE000003F8
FE000003F8
FE000003F8
FE000001F8
FE000001F8
FE000001F8
FE000001F8
FE000003F8
FE000003F8
FE000003F8
FE000007F0
FE000007F0
FE00000FE0
FE00003FE0
FE0000FFC0
FE003FFFC0
FFFFFFFF80
FFFFFFFE00
FFFFFFFC00
FFFFFFF000
FFFFFF8000
FE00FF0000
FE007F0000
FE003F8000
FE003FC000
FE001FC000
FE000FE000
FE000FF000
FE0007F000
FE0003F800
FE0003FC00
FE0001FC00
FE0001FE00
FE0000FE00
FE00007F00
FE00007F80
FE00003F80
FE00001FC0
FE00001FE0
FE00000FE0
FE000007F0
FE000007F8
FE000003F8
ENDCHAR
STARTCHAR 0159
ENCODING 345
SWIDTH 347 0
DWIDTH 27 0
BBX 26 57 1 0
BITMAP
FE001FC0
3F003F00
1F807E00
1FC0FE00
0FE1FC00
07F3F800
03FFF000
01FFE000
00FFC000
007F8000
003F0000
00000000
00000000
00000000
00000000
00000000
07E03F80
07E0FF80
07E1FF80
07E3FF80
07E7FF80
07EFFF80
07EFE380
07FF0000
07FC0000
07F80000
07F80000
07F00000
07F00000
07F00000
07F00000
07E00000
07E00000
07E00000
07E00000
07E00000
07E00000
07E00000
07E00000
07E00000
07E00000
07E00000
07E00000
07E00000
07E00000
07E00000
07E00000
07E00000
07E00000
07E00000
07E00000
07E00000
07E00000
07E00000
07E00000
07E00000
07E00000
ENDCHAR
STARTCHAR 015A
ENCODING 346
SWIDTH 591 0
DWIDTH 46 0
BBX 39 75 4 -1
BITMAP
0000003F80
0000007F00
000000FE00
000000FE00
000001FC00
000001F800
000003F800
000003F000
000007E000
000007E000
00000FC000
00000F8000
00001F8000
00003F0000
0000000000
0000000000
0000000000
0000000000
0000380000
000FFFE000
003FFFF800
00FFFFFE00
03FFFFFF00
07FFFFFF80
07FF07FFC0
0FF8007FE0
1FF0003FF0
1FE0000FF0
3FC00007F8
3F800007F8
3F800003F8
3F800003FC
7F000003FC
7F000001FC
7F000001FC
7F00000000
3F80000000
3F80000000
3FC0000000
3FE0000000
1FF0000000
0FFC000000
0FFFC00000
07FFFE0000
03FFFFE000
00FFFFFC00
003FFFFF00
000FFFFF80
0000FFFFE0
000003FFF0
0000003FF0
0000000FF8
00000007FC
00000003FC
00000001FC
00000001FE
FE000000FE
FE000000FE
FF000000FE
FF000000FE
FF000000FE
7F000001FE
7F800001FC
7FC00001FC
3FC00003FC
3FE00007F8
1FF8000FF8
0FFC003FF0
07FFFFFFE0
03FFFFFFC0
01FFFFFF80
00FFFFFF00
003FFFFC00
000FFFE000
00007E0000
ENDCHAR
STARTCHAR 015B
ENCODING 347
SWIDTH 488 0
DWIDTH 38 0
BBX 31 62 4 -1
BITMAP
000007F0
00000FE0
00001FC0
00001FC0
00003F80
00003F00
00007F00
00007E00
0000FC00
0000FC00
0001F800
0001F000
0003F000
0007E000
00000000
00000000
00000000
00000000
00000000
003FF000
01FFFE00
03FFFF80
0FFFFFC0
1FFFFFE0
1FF03FF0
3FC00FF8
7F8003F8
7F0003FC
7E0001FC
7E0001FC
7E0000FC
7E0000FC
7E000000
7F000000
7F000000
3FC00000
3FF00000
1FFFC000
0FFFFC00
07FFFF80
01FFFFE0
003FFFF0
0001FFF8
00000FFC
000003FC
000001FE
000000FE
000000FE
FC00007E
FE00007E
FE00007E
FE0000FE
7F0000FE
7F8001FC
3FC003FC
3FF00FF8
1FFFFFF0
0FFFFFF0
07FFFFC0
01FFFF80
007FFC00
00010000
ENDCHAR
STARTCHAR 015E
ENCODING 350
SWIDTH 591 0
DWIDTH 46 0
BBX 39 75 4 -19
BITMAP
0000380000
000FFFE000
003FFFF800
00FFFFFE00
03FFFFFF00
07FFFFFF80
07FF07FFC0
0FF8007FE0
1FF0003FF0
1FE0000FF0
3FC00007F8
3F800007F8
3F800003F8
3F800003FC
7F000003FC
7F000001FC
7F000001FC
7F00000000
3F80000000
3F80000000
3FC0000000
3FE0000000
1FF0000000
0FFC000000
0FFFC00000
07FFFE0000
03FFFFE000
00FFFFFC00
003FFFFF00
000FFFFF80
0000FFFFE0
000003FFF0
0000003FF0
0000000FF8
00000007FC
00000003FC
00000001FC
00000001FE
FE000000FE
FE000000FE
FF000000FE
FF000000FE
FF000000FE
7F000001FE
7F800001FC
7FC00001FC
3FC00003FC
3FE00007F8
1FF8000FF8
0FFC003FF0
07FFFFFFE0
03FFFFFFC0
01FFFFFF80
00FFFFFF00
003FFFFC00
000FFFE000
00007C0000
0000780000
0000780000
0000F00000
0000F00000
0000FFC000
0000FFF000
0001FFF800
000000F800
0000007800
0000003C00
0000003C00
0000003C00
0000007800
000000F800
0000FFF000
0000FFF000
0000FFE000
0000FF8000
ENDCHAR
STARTCHAR 015F
ENCODING 351
SWIDTH 488 0
DWIDTH 38 0
BBX 31 61 4 -19
BITMAP
003FF000
01FFFE00
03FFFF80
0FFFFFC0
1FFFFFE0
1FF03FF0
3FC00FF8
7F8003F8
7F0003FC
7E0001FC
7E0001FC
7E0000FC
7E0000FC
7E000000
7F000000
7F000000
3FC00000
3FF00000
1FFFC000
0FFFFC00
07FFFF80
01FFFFE0
003FFFF0
0001FFF8
00000FFC
000003FC
000001FE
000000FE
000000FE
FC00007E
FE00007E
FE00007E
FE0000FE
7F0000FE
7F8001FC
3FC003FC
3FF00FF8
1FFFFFF0
0FFFFFF0
07FFFFC0
01FFFF80
007FFC00
0003C000
0003C000
0003C000
00078000
0007E000
0007FE00
000FFF80
000FFF80
000007C0
000003C0
000001C0
000001C0
000003C0
000003C0
000007C0
0007FF80
0007FF00
0007FE00
0007FC00
ENDCHAR
STARTCHAR 0160
ENCODING 352
SWIDTH 591 0
DWIDTH 46 0
BBX 39 72 4 -1
BITMAP
00FE001F80
007E003F80
003F007F00
001F80FE00
001FC1FC00
000FE3F800
0007F7F000
0003FFE000
0001FFC000
0000FF8000
00007F0000
0000000000
0000000000
0000000000
0000000000
0000380000
000FFFE000
003FFFF800
00FFFFFE00
03FFFFFF00
07FFFFFF80
07FF07FFC0
0FF8007FE0
1FF0003FF0
1FE0000FF0
3FC00007F8
3F800007F8
3F800003F8
3F800003FC
7F000003FC
7F000001FC
7F000001FC
7F00000000
3F80000000
3F80000000
3FC0000000
3FE0000000
1FF0000000
0FFC000000
0FFFC00000
07FFFE0000
03FFFFE000
00FFFFFC00
003FFFFF00
000FFFFF80
0000FFFFE0
000003FFF0
0000003FF0
0000000FF8
00000007FC
00000003FC
00000001FC
00000001FE
FE000000FE
FE000000FE
FF000000FE
FF000000FE
FF000000FE
7F000001FE
7F800001FC
7FC00001FC
3FC00003FC
3FE00007F8
1FF8000FF8
0FFC003FF0
07FFFFFFE0
03FFFFFFC0
01FFFFFF80
00FFFFFF00
003FFFFC00
000FFFE000
00007E0000
ENDCHAR
STARTCHAR 0161
ENCODING 353
SWIDTH 488 0
DWIDTH 38 0
BBX 31 59 4 -1
BITMAP
1FC003F0
0FE007E0
07E00FC0
03F01FC0
01F83F80
01FC7F00
00FEFE00
007FFC00
003FF800
001FF000
000FE000
00000000
00000000
00000000
00000000
00000000
003FF000
01FFFE00
03FFFF80
0FFFFFC0
1FFFFFE0
1FF03FF0
3FC00FF8
7F8003F8
7F0003FC
7E0001FC
7E0001FC
7E0000FC
7E0000FC
7E000000
7F000000
7F000000
3FC00000
3FF00000
1FFFC000
0FFFFC00
07FFFF80
01FFFFE0
003FFFF0
0001FFF8
00000FFC
000003FC
000001FE
000000FE
000000FE
FC00007E
FE00007E
FE00007E
FE0000FE
7F0000FE
7F8001FC
3FC003FC
3FF00FF8
1FFFFFF0
0FFFFFF0
07FFFFC0
01FFFF80
007FFC00
00010000
ENDCHAR
STARTCHAR 0162
ENCODING 354
SWIDTH 578 0
DWIDTH 45 0
BBX 39 73 3 -19
BITMAP
FFFFFFFFFE
FFFFFFFFFE
FFFFFFFFFE
FFFFFFFFFE
FFFFFFFFFE
FFFFFFFFFE
00007E0000
00007E0000
00007E0000
00007E0000
00007E0000
00007E0000
00007E0000
00007E0000
00007E0000
00007E0000
00007E0000
00007E0000
00007E0000
00007E0000
00007E0000
00007E0000
00007E0000
00007E0000
00007E0000
00007E0000
00007E0000
00007E0000
00007E0000
00007E0000
00007E0000
00007E0000
00007E0000
00007E0000
00007E0000
00007E0000
00007E0000
00007E0000
00007E0000
00007E0000
00007E0000
00007E0000
00007E0000
00007E0000
00007E0000
00007E0000
00007E0000
00007E0000
00007E0000
00007E0000
00007E0000
00007E0000
00007E0000
00007E0000
0000780000
0000780000
0000F00000
0000F00000
0000FC0000
0001FFC000
0001FFE000
0001FFF000
000000F800
0000007800
0000007800
0000007800
0000007800
0000007800
000000F800
0000FFF000
0000FFE000
0000FFC000
0000FF8000
ENDCHAR
STARTCHAR 0163
ENCODING 355
SWIDTH 385 0
DWIDTH 30 0
BBX 26 73 2 -19
BITMAP
00FE0000
00FE0000
00FE0000
00FE0000
00FE0000
00FE0000
00FE0000
00FE0000
00FE0000
00FE0000
00FE0000
00FE0000
00FE0000
FFFFFF80
FFFFFF80
FFFFFF80
FFFFFF80
FFFFFF80
00FE0000
00FE0000
00FE0000
00FE0000
00FE0000
00FE0000
00FE0000
00FE0000
00FE0000
00FE0000
00FE0000
00FE0000
00FE0000
00FE0000
00FE0000
00FE0000
00FE0000
00FE0000
00FE0000
00FE0000
00FE0000
00FE0000
00FE0000
00FE0000
00FE0000
00FE0000
00FE0000
00FE0000
00FE0000
00FE0000
007F0000
007FFF80
007FFF80
003FFF80
001FFF80
0007FF80
0003C000
0003C000
00078000
00078000
0007F000
000FFE00
000FFF00
000FFF80
000007C0
000003C0
000003C0
000003C0
000003C0
000003C0
00000F80
0007FF80
000FFF00
000FFE00
0007F800
ENDCHAR
STARTCHAR 0164
ENCODING 356
SWIDTH 578 0
DWIDTH 45 0
BBX 39 71 3 0
BITMAP
01FC003F80
00FE007F00
007F00FE00
003F81FC00
001F83F800
000FC7F000
0007EFE000
0003FFC000
0003FF8000
0001FF8000
0000FF0000
0000000000
0000000000
0000000000
0000000000
0000000000
0000000000
FFFFFFFFFE
FFFFFFFFFE
FFFFFFFFFE
FFFFFFFFFE
FFFFFFFFFE
FFFFFFFFFE
00007E0000
00007E0000
00007E0000
00007E0000
00007E0000
00007E0000
00007E0000
00007E0000
00007E0000
00007E0000
00007E0000
00007E0000
00007E0000
00007E0000
00007E0000
00007E0000
00007E0000
00007E0000
00007E0000
00007E0000
00007E0000
00007E0000
00007E0000
00007E0000
00007E0000
00007E0000
00007E0000
00007E0000
00007E0000
00007E0000
00007E0000
00007E0000
00007E0000
00007E0000
00007E0000
00007E0000
00007E0000
00007E0000
00007E0000
00007E0000
00007E0000
00007E0000
00007E0000
00007E0000
00007E0000
00007E0000
00007E0000
00007E0000
ENDCHAR
STARTCHAR 0165
ENCODING 357
SWIDTH 488 0
DWIDTH 38 0
BBX 36 61 2 0
BITMAP
0000000F80
0000003FC0
0000003FE0
0000007FE0
0000007FF0
0000007FF0
0000003FF0
00FE003FF0
00FE000FF0
00FE0001F0
00FE0000F0
00FE0000E0
00FE0000E0
00FE0001E0
00FE0001E0
00FE0003C0
00FE000780
00FE001F00
00FE001E00
00FE001C00
FFFFFF8000
FFFFFF8000
FFFFFF8000
FFFFFF8000
FFFFFF8000
00FE000000
00FE000000
00FE000000
00FE000000
00FE000000
00FE000000
00FE000000
00FE000000
00FE000000
00FE000000
00FE000000
00FE000000
00FE000000
00FE000000
00FE000000
00FE000000
00FE000000
00FE000000
00FE000000
00FE000000
00FE000000
00FE000000
00FE000000
00FE000000
00FE000000
00FE000000
00FE000000
00FE000000
00FE000000
00FE000000
00FF000000
007FFF8000
007FFF8000
003FFF8000
001FFF8000
0007FF8000
ENDCHAR
STARTCHAR 0166
ENCODING 358
SWIDTH 578 0
DWIDTH 45 0
BBX 39 54 3 0
BITMAP
FFFFFFFFFE
FFFFFFFFFE
FFFFFFFFFE
FFFFFFFFFE
FFFFFFFFFE
FFFFFFFFFE
00007E0000
00007E0000
00007E0000
00007E0000
00007E0000
00007E0000
00007E0000
00007E0000
00007E0000
00007E0000
00007E0000
00007E0000
00007E0000
00007E0000
00007E0000
00007E0000
0FFFFFFFF0
0FFFFFFFF0
0FFFFFFFF0
0FFFFFFFF0
00007E0000
00007E0000
00007E0000
00007E0000
00007E0000
00007E0000
00007E0000
00007E0000
00007E0000
00007E0000
00007E0000
00007E0000
00007E0000
00007E0000
00007E0000
00007E0000
00007E0000
00007E0000
00007E0000
00007E0000
00007E0000
00007E0000
00007E0000
00007E0000
00007E0000
00007E0000
00007E0000
00007E0000
ENDCHAR
STARTCHAR 0167
ENCODING 359
SWIDTH 385 0
DWIDTH 30 0
BBX 25 54 2 0
BITMAP
00FE0000
00FE0000
00FE0000
00FE0000
00FE0000
00FE0000
00FE0000
00FE0000
00FE0000
00FE0000
00FE0000
00FE0000
00FE0000
FFFFFF80
FFFFFF80
FFFFFF80
FFFFFF80
FFFFFF80
00FE0000
00FE0000
00FE0000
00FE0000
00FE0000
00FE0000
00FE0000
00FE0000
00FE0000
00FE0000
00FE0000
FFFFFF80
FFFFFF80
FFFFFF80
FFFFFF80
00FE0000
00FE0000
00FE0000
00FE0000
00FE0000
00FE0000
00FE0000
00FE0000
00FE0000
00FE0000
00FE0000
00FE0000
00FE0000
00FE0000
00FF0000
007F8000
007FFF80
007FFF80
003FFF80
001FFF80
0007FF80
ENDCHAR
STARTCHAR 0168
ENCODING 360
SWIDTH 681 0
DWIDTH 53 0
BBX 43 71 5 -1
BITMAP
0003F0078000
0007FC078000
000FFE0F8000
001FFF9F0000
001F3FFF0000
001E0FFE0000
001E07FE0000
001E01F80000
000000000000
000000000000
000000000000
000000000000
000000000000
000000000000
000000000000
000000000000
FE0000000FE0
FE0000000FE0
FE0000000FE0
FE0000000FE0
FE0000000FE0
FE0000000FE0
FE0000000FE0
FE0000000FE0
FE0000000FE0
FE0000000FE0
FE0000000FE0
FE0000000FE0
FE0000000FE0
FE0000000FE0
FE0000000FE0
FE0000000FE0
FE0000000FE0
FE0000000FE0
FE0000000FE0
FE0000000FE0
FE0000000FE0
FE0000000FE0
FE0000000FE0
FE0000000FE0
FE0000000FE0
FE0000000FE0
FE0000000FE0
FE0000000FE0
FE0000000FE0
FE0000000FE0
FE0000000FE0
FE0000000FE0
FE0000000FE0
FE0000000FE0
FE0000000FE0
FE0000000FE0
7E0000000FE0
7F0000001FC0
7F0000001FC0
7F0000001FC0
7F8000003FC0
3F8000003F80
3FC000007F80
1FC000007F80
1FE00000FF00
0FF00001FE00
0FFC0003FE00
07FF001FFC00
03FFFFFFF800
01FFFFFFF000
00FFFFFFE000
007FFFFFC000
001FFFFF0000
0007FFFC0000
00001F000000
ENDCHAR
STARTCHAR 0169
ENCODING 361
SWIDTH 591 0
DWIDTH 46 0
BBX 36 58 6 -1
BITMAP
003C01F000
00FF01F000
01FFC1E000
03FFE1E000
03FFFFE000
03C3FFE000
07C0FFC000
07807F8000
07801E0000
0000000000
0000000000
0000000000
0000000000
0000000000
0000000000
0000000000
FE000007F0
FE000007F0
FE000007F0
FE000007F0
FE000007F0
FE000007F0
FE000007F0
FE000007F0
FE000007F0
FE000007F0
FE000007F0
FE000007F0
FE000007F0
FE000007F0
FE000007F0
FE000007F0
FE000007F0
FE000007F0
FE000007F0
FE000007F0
FE000007F0
FE000007F0
FE000007F0
FE000007F0
FE000007F0
FE000007F0
FE00000FF0
FE00000FF0
FE00000FF0
FF00001FF0
7F00001FF0
7F80003FF0
7FC0007FF0
3FE000F7F0
3FF001F7F0
1FFE0FE7F0
0FFFFFC7F0
0FFFFF87F0
03FFFF07F0
01FFFE07F0
007FF807F0
000FC00000
ENDCHAR
STARTCHAR 016A
ENCODING 362
SWIDTH 681 0
DWIDTH 53 0
BBX 43 67 5 -1
BITMAP
003FFFFF8000
003FFFFF8000
003FFFFF8000
003FFFFF8000
000000000000
000000000000
000000000000
000000000000
000000000000
000000000000
000000000000
000000000000
FE0000000FE0
FE0000000FE0
FE0000000FE0
FE0000000FE0
FE0000000FE0
FE0000000FE0
FE0000000FE0
FE0000000FE0
FE0000000FE0
FE0000000FE0
FE0000000FE0
FE0000000FE0
FE0000000FE0
FE0000000FE0
FE0000000FE0
FE0000000FE0
FE0000000FE0
FE0000000FE0
FE0000000FE0
FE0000000FE0
FE0000000FE0
FE0000000FE0
FE0000000FE0
FE0000000FE0
FE0000000FE0
FE0000000FE0
FE0000000FE0
FE0000000FE0
FE0000000FE0
FE0000000FE0
FE0000000FE0
FE0000000FE0
FE0000000FE0
FE0000000FE0
FE0000000FE0
FE0000000FE0
7E0000000FE0
7F0000001FC0
7F0000001FC0
7F0000001FC0
7F8000003FC0
3F8000003F80
3FC000007F80
1FC000007F80
1FE00000FF00
0FF00001FE00
0FFC0003FE00
07FF001FFC00
03FFFFFFF800
01FFFFFFF000
00FFFFFFE000
007FFFFFC000
001FFFFF0000
0007FFFC0000
00001F000000
ENDCHAR
STARTCHAR 016B
ENCODING 363
SWIDTH 591 0
DWIDTH 46 0
BBX 36 53 6 -1
BITMAP
07FFFFF000
07FFFFF000
07FFFFF000
0000000000
0000000000
0000000000
0000000000
0000000000
0000000000
0000000000
0000000000
FE000007F0
FE000007F0
FE000007F0
FE000007F0
FE000007F0
FE000007F0
FE000007F0
FE000007F0
FE000007F0
FE000007F0
FE000007F0
FE000007F0
FE000007F0
FE000007F0
FE000007F0
FE000007F0
FE000007F0
FE000007F0
FE000007F0
FE000007F0
FE000007F0
FE000007F0
FE000007F0
FE000007F0
FE000007F0
FE000007F0
FE00000FF0
FE00000FF0
FE00000FF0
FF00001FF0
7F00001FF0
7F80003FF0
7FC0007FF0
3FE000F7F0
3FF001F7F0
1FFE0FE7F0
0FFFFFC7F0
0FFFFF87F0
03FFFF07F0
01FFFE07F0
007FF807F0
000FC00000
ENDCHAR
STARTCHAR 016E
ENCODING 366
SWIDTH 681 0
DWIDTH 53 0
BBX 43 76 5 -1
BITMAP
00000E000000
00003F800000
00007FE00000
0000FBE00000
0001E0F00000
0001C0700000
0001C0700000
0001C0700000
0001C0700000
0001E0F00000
0000F1F00000
0000FFE00000
00007FC00000
00001F000000
000000000000
000000000000
000000000000
000000000000
000000000000
000000000000
000000000000
FE0000000FE0
FE0000000FE0
FE0000000FE0
FE0000000FE0
FE0000000FE0
FE0000000FE0
FE0000000FE0
FE0000000FE0
FE0000000FE0
FE0000000FE0
FE0000000FE0
FE0000000FE0
FE0000000FE0
FE0000000FE0
FE0000000FE0
FE0000000FE0
FE0000000FE0
FE0000000FE0
FE0000000FE0
FE0000000FE0
FE0000000FE0
FE0000000FE0
FE0000000FE0
FE0000000FE0
FE0000000FE0
FE0000000FE0
FE0000000FE0
FE0000000FE0
FE0000000FE0
FE0000000FE0
FE0000000FE0
FE0000000FE0
FE0000000FE0
FE0000000FE0
FE0000000FE0
FE0000000FE0
7E0000000FE0
7F0000001FC0
7F0000001FC0
7F0000001FC0
7F8000003FC0
3F8000003F80
3FC000007F80
1FC000007F80
1FE00000FF00
0FF00001FE00
0FFC0003FE00
07FF001FFC00
03FFFFFFF800
01FFFFFFF000
00FFFFFFE000
007FFFFFC000
001FFFFF0000
0007FFFC0000
00001F000000
ENDCHAR
STARTCHAR 016F
ENCODING 367
SWIDTH 591 0
DWIDTH 46 0
BBX 36 62 6 -1
BITMAP
0007E00000
000FF80000
001FFC0000
003C3E0000
00381E0000
00380E0000
00380E0000
00380E0000
00381E0000
003C1E0000
001FFC0000
000FF80000
0007F00000
0000000000
0000000000
0000000000
0000000000
0000000000
0000000000
0000000000
FE000007F0
FE000007F0
FE000007F0
FE000007F0
FE000007F0
FE000007F0
FE000007F0
FE000007F0
FE000007F0
FE000007F0
FE000007F0
FE000007F0
FE000007F0
FE000007F0
FE000007F0
FE000007F0
FE000007F0
FE000007F0
FE000007F0
FE000007F0
FE000007F0
FE000007F0
FE000007F0
FE000007F0
FE000007F0
FE000007F0
FE00000FF0
FE00000FF0
FE00000FF0
FF00001FF0
7F00001FF0
7F80003FF0
7FC0007FF0
3FE000F7F0
3FF001F7F0
1FFE0FE7F0
0FFFFFC7F0
0FFFFF87F0
03FFFF07F0
01FFFE07F0
007FF807F0
000FC00000
ENDCHAR
STARTCHAR 0172
ENCODING 370
SWIDTH 681 0
DWIDTH 53 0
BBX 43 67 5 -13
BITMAP
FE0000000FE0
FE0000000FE0
FE0000000FE0
FE0000000FE0
FE0000000FE0
FE0000000FE0
FE0000000FE0
FE0000000FE0
FE0000000FE0
FE0000000FE0
FE0000000FE0
FE0000000FE0
FE0000000FE0
FE0000000FE0
FE0000000FE0
FE0000000FE0
FE0000000FE0
FE0000000FE0
FE0000000FE0
FE0000000FE0
FE0000000FE0
FE0000000FE0
FE0000000FE0
FE0000000FE0
FE0000000FE0
FE0000000FE0
FE0000000FE0
FE0000000FE0
FE0000000FE0
FE0000000FE0
FE0000000FE0
FE0000000FE0
FE0000000FE0
FE0000000FE0
FE0000000FE0
FE0000000FE0
7E0000000FE0
7F0000001FC0
7F0000001FC0
7F0000001FC0
7F8000003FC0
3F8000003F80
3FC000007F80
1FC000007F80
1FE00000FF00
0FF00001FF00
0FFC0003FE00
07FF001FFC00
03FFFFFFF800
01FFFFFFF000
00FFFFFFE000
007FFFFFC000
001FFFFF0000
0003FFFC0000
00003F800000
00003F000000
00007C000000
0000F8000000
0000F8000000
0000F8000000
0000F8000000
0000F8000000
0000FC000000
00007FF00000
00007FF00000
00003FF00000
00000FF00000
ENDCHAR
STARTCHAR 0173
ENCODING 371
SWIDTH 591 0
DWIDTH 46 0
BBX 37 54 6 -13
BITMAP
FE000007F0
FE000007F0
FE000007F0
FE000007F0
FE000007F0
FE000007F0
FE000007F0
FE000007F0
FE000007F0
FE000007F0
FE000007F0
FE000007F0
FE000007F0
FE000007F0
FE000007F0
FE000007F0
FE000007F0
FE000007F0
FE000007F0
FE000007F0
FE000007F0
FE000007F0
FE000007F0
FE000007F0
FE000007F0
FE000007F0
FE00000FF0
FE00000FF0
FE00000FF0
FF00001FF0
7F00001FF0
7F80003FF0
7FC0007FF0
3FE000F7F0
3FF001F7F0
1FFE0FE7F0
0FFFFFC7F0
0FFFFF87F0
03FFFF07F0
01FFFE07F0
007FF807F0
000FC01FC0
0000001F00
0000003E00
0000003C00
0000007C00
0000007C00
0000007C00
0000007E00
0000003F98
0000003FF8
0000001FF8
0000000FF8
0000000040
ENDCHAR
STARTCHAR 0174
ENCODING 372
SWIDTH 990 0
DWIDTH 77 0
BBX 75 71 1 0
BITMAP
000000003F8000000000
000000007FC000000000
000000007FE000000000
00000000FFF000000000
00000001FBF800000000
00000003F1F800000000
00000007F0FC00000000
0000000FE0FE00000000
0000001FC07F00000000
0000003F803F80000000
0000007F001FC0000000
00000000000000000000
00000000000000000000
00000000000000000000
00000000000000000000
00000000000000000000
00000000000000000000
FE0000003F8000000FE0
7E0000003F8000000FE0
7F0000003FC000000FC0
7F0000007FC000001FC0
7F0000007FC000001FC0
3F0000007FE000001F80
3F800000FFE000001F80
3F800000FFE000003F80
1F800000FFF000003F80
1F800001FFF000003F00
1FC00001FFF000007F00
1FC00001FBF800007F00
0FC00003FBF800007F00
0FE00003F9F800007E00
0FE00003F1FC0000FE00
0FE00007F1FC0000FE00
07E00007F1FC0000FE00
07F00007E0FC0000FC00
07F0000FE0FE0001FC00
07F0000FE0FE0001FC00
03F0000FC07E0001F800
03F8001FC07F0001F800
03F8001FC07F0003F800
01F8001F803F0003F800
01F8003F803F8003F000
01FC003F803F8003F000
01FC003F001F8007F000
00FC007F001FC007F000
00FC007F001FC007E000
00FE007E000FC00FE000
00FE00FE000FE00FE000
007E00FE000FE00FE000
007E00FE0007E00FC000
007F01FC0007F01FC000
003F01FC0007F01FC000
003F01FC0003F01F8000
003F81F80003F81F8000
003F83F80003F83F8000
001F83F80001F83F8000
001F83F00001FC3F0000
001FC7F00001FC3F0000
001FC7F00000FC7F0000
000FC7E00000FE7F0000
000FCFE00000FE7E0000
000FEFE000007E7E0000
000FEFC000007FFE0000
0007FFC000007FFC0000
0007FFC000007FFC0000
0007FF8000003FFC0000
0003FF8000003FFC0000
0003FF8000003FF80000
0003FF0000001FF80000
0003FF0000001FF80000
0001FF0000001FF80000
ENDCHAR
STARTCHAR 0175
ENCODING 373
SWIDTH 810 0
DWIDTH 63 0
BBX 58 57 3 0
BITMAP
0000007F80000000
000000FFC0000000
000001FFC0000000
000003FFE0000000
000007F3F0000000
000007E3F8000000
00000FC1FC000000
00001F80FE000000
00003F807F000000
00007F003F800000
0000FE001FC00000
0000000000000000
0000000000000000
0000000000000000
0000000000000000
0000000000000000
FC00003F00000FC0
FC00007F00001FC0
FE00007F80001F80
7E00007F80001F80
7E0000FF80003F80
7E0000FFC0003F80
7F0000FFC0003F00
3F0001FFC0003F00
3F0001FFC0007F00
3F0001FFE0007E00
3F8001FFE0007E00
1F8003F7E0007E00
1F8003F3F000FE00
1FC003F3F000FC00
0FC007F3F000FC00
0FC007E3F800FC00
0FC007E1F801FC00
0FE00FE1F801F800
07E00FC1FC01F800
07E00FC0FC03F800
07E01FC0FC03F000
03F01F80FE03F000
03F01F807E03F000
03F01F807E07F000
03F83F807E07E000
01F83F003F07E000
01F83F003F07E000
01F87F003F0FE000
01FC7E003F8FC000
00FC7E001F8FC000
00FCFE001F8FC000
00FCFC001FDF8000
007EFC000FDF8000
007FFC000FDF8000
007FF8000FFF8000
007FF80007FF0000
003FF80007FF0000
003FF80007FF0000
003FF00007FE0000
001FF00003FE0000
001FF00003FE0000
ENDCHAR
STARTCHAR 0176
ENCODING 374
SWIDTH 604 0
DWIDTH 47 0
BBX 41 71 3 0
BITMAP
00007F000000
00007F800000
0000FFC00000
0001FFE00000
0003FFF00000
0007F3F80000
000FE1F80000
001FC0FC0000
003F807E0000
007F007F0000
00FE003F8000
000000000000
000000000000
000000000000
000000000000
000000000000
000000000000
FE0000003F80
7F0000003F80
7F0000007F00
3F8000007F00
3F800000FE00
1FC00000FE00
1FC00001FC00
0FE00001FC00
0FE00003F800
07F00003F800
07F00007F000
03F80007F000
03F8000FE000
01FC000FE000
01FC001FC000
00FE001FC000
00FE003F8000
007F003F8000
007F007F0000
003F807F0000
003F80FE0000
001FC0FE0000
001FC1FC0000
000FE1FC0000
000FE3F80000
0007F3F80000
0007F7F00000
0003FFF00000
0003FFE00000
0001FFE00000
0001FFC00000
0000FFC00000
0000FF800000
00007F800000
00007F000000
00007F000000
00007F000000
00007F000000
00007F000000
00007F000000
00007F000000
00007F000000
00007F000000
00007F000000
00007F000000
00007F000000
00007F000000
00007F000000
00007F000000
00007F000000
00007F000000
00007F000000
00007F000000
00007F000000
ENDCHAR
STARTCHAR 0177
ENCODING 375
SWIDTH 527 0
DWIDTH 41 0
BBX 38 73 2 -16
BITMAP
0001FE0000
0003FF0000
0007FF8000
000FFF8000
000FCFC000
001F87E000
003F07F000
007F03F800
00FE01FC00
01FC00FE00
03F8007F00
0000000000
0000000000
0000000000
0000000000
0000000000
FE000001FC
7F000001FC
7F000003F8
3F800003F8
3F800007F0
3F800007F0
1FC00007E0
1FC0000FE0
0FC0000FE0
0FE0000FC0
0FE0001FC0
07E0001F80
07F0003F80
07F0003F80
03F8003F00
03F8007F00
01F8007E00
01FC00FE00
01FC00FE00
00FC00FC00
00FE01FC00
007E01F800
007E01F800
007F03F800
003F03F000
003F07F000
001F87E000
001F87E000
001FCFC000
000FCFC000
000FCFC000
0007FF8000
0007FF8000
0007FF0000
0003FF0000
0003FF0000
0003FE0000
0001FE0000
0001FC0000
0001FC0000
0001FC0000
0003F80000
0003F80000
0003F00000
0007F00000
0007E00000
000FE00000
000FE00000
001FC00000
003FC00000
007F800000
33FF800000
3FFF000000
3FFE000000
3FFC000000
3FF0000000
1F80000000
ENDCHAR
STARTCHAR 0178
ENCODING 376
SWIDTH 604 0
DWIDTH 47 0
BBX 41 71 3 0
BITMAP
000E001C0000
003F007F0000
007F807F0000
007F80FF8000
007FC0FF8000
007F80FF8000
007F80FF0000
003F007F0000
001E003C0000
000000000000
000000000000
000000000000
000000000000
000000000000
000000000000
000000000000
000000000000
FE0000003F80
7F0000003F80
7F0000007F00
3F8000007F00
3F800000FE00
1FC00000FE00
1FC00001FC00
0FE00001FC00
0FE00003F800
07F00003F800
07F00007F000
03F80007F000
03F8000FE000
01FC000FE000
01FC001FC000
00FE001FC000
00FE003F8000
007F003F8000
007F007F0000
003F807F0000
003F80FE0000
001FC0FE0000
001FC1FC0000
000FE1FC0000
000FE3F80000
0007F3F80000
0007F7F00000
0003FFF00000
0003FFE00000
0001FFE00000
0001FFC00000
0000FFC00000
0000FF800000
00007F800000
00007F000000
00007F000000
00007F000000
00007F000000
00007F000000
00007F000000
00007F000000
00007F000000
00007F000000
00007F000000
00007F000000
00007F000000
00007F000000
00007F000000
00007F000000
00007F000000
00007F000000
00007F000000
00007F000000
00007F000000
ENDCHAR
STARTCHAR 0179
ENCODING 377
SWIDTH 604 0
DWIDTH 47 0
BBX 39 74 4 0
BITMAP
0000007F00
000000FE00
000000FE00
000001FC00
000001F800
000003F800
000003F000
000007E000
00000FE000
00000FC000
00001F8000
00001F0000
00003F0000
00003E0000
0000000000
0000000000
0000000000
0000000000
0000000000
0000000000
FFFFFFFFFE
FFFFFFFFFE
FFFFFFFFFE
FFFFFFFFFE
FFFFFFFFFE
FFFFFFFFFE
00000003FC
00000007F8
00000007F8
0000000FF0
0000001FE0
0000003FC0
0000003FC0
0000007F80
000000FF00
000001FF00
000001FE00
000003FC00
000007F800
000007F800
00000FF000
00001FE000
00003FC000
00003FC000
00007F8000
0000FF0000
0001FF0000
0001FE0000
0003FC0000
0007F80000
0007F80000
000FF00000
001FE00000
003FC00000
003FC00000
007F800000
00FF000000
01FF000000
01FE000000
03FC000000
07F8000000
07F8000000
0FF0000000
1FE0000000
3FE0000000
3FC0000000
7F80000000
FF00000000
FFFFFFFFFE
FFFFFFFFFE
FFFFFFFFFE
FFFFFFFFFE
FFFFFFFFFE
FFFFFFFFFE
ENDCHAR
STARTCHAR 017A
ENCODING 378
SWIDTH 488 0
DWIDTH 38 0
BBX 31 60 4 0
BITMAP
000007F0
00000FE0
00001FC0
00001FC0
00003F80
00003F00
00007F00
00007E00
0000FC00
0000F800
0001F800
0001F000
0003E000
00000000
00000000
00000000
00000000
00000000
00000000
7FFFFFFE
7FFFFFFE
7FFFFFFE
7FFFFFFE
7FFFFFFE
7FFFFFFE
000001FE
000003FC
000003F8
000007F0
00000FE0
00001FE0
00003FC0
00003F80
00007F00
0000FE00
0001FE00
0003FC00
0003F800
0007F000
000FE000
001FE000
003FC000
003F8000
007F0000
00FE0000
01FE0000
03FC0000
03F80000
07F00000
0FE00000
1FE00000
3FC00000
3F800000
7F000000
FFFFFFFE
FFFFFFFE
FFFFFFFE
FFFFFFFE
FFFFFFFE
FFFFFFFE
ENDCHAR
STARTCHAR 017B
ENCODING 379
SWIDTH 604 0
DWIDTH 47 0
BBX 39 71 4 0
BITMAP
0000380000
00007E0000
0000FF0000
0001FF0000
0001FF0000
0001FF0000
0000FF0000
0000FE0000
00003C0000
0000000000
0000000000
0000000000
0000000000
0000000000
0000000000
0000000000
0000000000
FFFFFFFFFE
FFFFFFFFFE
FFFFFFFFFE
FFFFFFFFFE
FFFFFFFFFE
FFFFFFFFFE
00000003FC
00000007F8
00000007F8
0000000FF0
0000001FE0
0000003FC0
0000003FC0
0000007F80
000000FF00
000001FF00
000001FE00
000003FC00
000007F800
000007F800
00000FF000
00001FE000
00003FC000
00003FC000
00007F8000
0000FF0000
0001FF0000
0001FE0000
0003FC0000
0007F80000
0007F80000
000FF00000
001FE00000
003FC00000
003FC00000
007F800000
00FF000000
01FF000000
01FE000000
03FC000000
07F8000000
07F8000000
0FF0000000
1FE0000000
3FE0000000
3FC0000000
7F80000000
FF00000000
FFFFFFFFFE
FFFFFFFFFE
FFFFFFFFFE
FFFFFFFFFE
FFFFFFFFFE
FFFFFFFFFE
ENDCHAR
STARTCHAR 017C
ENCODING 380
SWIDTH 488 0
DWIDTH 38 0
BBX 31 57 4 0
BITMAP
0007C000
000FE000
000FF000
001FF000
001FF000
000FF000
000FE000
0007C000
00000000
00000000
00000000
00000000
00000000
00000000
00000000
00000000
7FFFFFFE
7FFFFFFE
7FFFFFFE
7FFFFFFE
7FFFFFFE
7FFFFFFE
000001FE
000003FC
000003F8
000007F0
00000FE0
00001FE0
00003FC0
00003F80
00007F00
0000FE00
0001FE00
0003FC00
0003F800
0007F000
000FE000
001FE000
003FC000
003F8000
007F0000
00FE0000
01FE0000
03FC0000
03F80000
07F00000
0FE00000
1FE00000
3FC00000
3F800000
7F000000
FFFFFFFE
FFFFFFFE
FFFFFFFE
FFFFFFFE
FFFFFFFE
FFFFFFFE
ENDCHAR
STARTCHAR 017D
ENCODING 381
SWIDTH 604 0
DWIDTH 47 0
BBX 39 71 4 0
BITMAP
01FC003F80
00FE007F00
007F00FE00
003F01FC00
001F83F800
000FC7F000
000FEFE000
0007FFC000
0003FF8000
0001FF0000
0000FF0000
0000000000
0000000000
0000000000
0000000000
0000000000
0000000000
FFFFFFFFFE
FFFFFFFFFE
FFFFFFFFFE
FFFFFFFFFE
FFFFFFFFFE
FFFFFFFFFE
00000003FC
00000007F8
00000007F8
0000000FF0
0000001FE0
0000003FC0
0000003FC0
0000007F80
000000FF00
000001FF00
000001FE00
000003FC00
000007F800
000007F800
00000FF000
00001FE000
00003FC000
00003FC000
00007F8000
0000FF0000
0001FF0000
0001FE0000
0003FC0000
0007F80000
0007F80000
000FF00000
001FE00000
003FC00000
003FC00000
007F800000
00FF000000
01FF000000
01FE000000
03FC000000
07F8000000
07F8000000
0FF0000000
1FE0000000
3FE0000000
3FC0000000
7F80000000
FF00000000
FFFFFFFFFE
FFFFFFFFFE
FFFFFFFFFE
FFFFFFFFFE
FFFFFFFFFE
FFFFFFFFFE
ENDCHAR
STARTCHAR 017E
ENCODING 382
SWIDTH 488 0
DWIDTH 38 0
BBX 31 57 4 0
BITMAP
1FC007F8
07E007E0
07F00FC0
03F81F80
01FC3F80
00FE7F00
007FFE00
003FFC00
001FF800
000FF000
0007E000
00000000
00000000
00000000
00000000
00000000
7FFFFFFE
7FFFFFFE
7FFFFFFE
7FFFFFFE
7FFFFFFE
7FFFFFFE
000001FE
000003FC
000003F8
000007F0
00000FE0
00001FE0
00003FC0
00003F80
00007F00
0000FE00
0001FE00
0003FC00
0003F800
0007F000
000FE000
001FE000
003FC000
003F8000
007F0000
00FE0000
01FE0000
03FC0000
03F80000
07F00000
0FE00000
1FE00000
3FC00000
3F800000
7F000000
FFFFFFFE
FFFFFFFE
FFFFFFFE
FFFFFFFE
FFFFFFFE
FFFFFFFE
ENDCHAR
STARTCHAR 01A0
ENCODING 416
SWIDTH 732 0
DWIDTH 57 0
BBX 49 63 4 -1
BITMAP
0000000000F800
0000000000F800
0000000000F800
0000000000F800
0000000000F800
0000000001F800
000001C001F800
00007FFFFFF000
0003FFFFFFF000
000FFFFFFFC000
001FFFFFFF8000
007FFFFFFF0000
00FFFFFFFF8000
01FFE003FFC000
03FF80007FE000
03FE00003FF000
07FC00001FF000
0FF800000FF800
0FF0000007F800
1FE0000003FC00
1FC0000001FC00
3FC0000001FE00
3F80000000FE00
3F80000000FE00
7F80000000FF00
7F000000007F00
7F000000007F00
7F000000007F00
FF000000003F80
FE000000003F80
FE000000003F80
FE000000003F80
FE000000003F80
FE000000003F80
FE000000003F80
FE000000003F80
FE000000003F80
FE000000003F80
FE000000003F80
FE000000003F80
FF000000003F80
7F000000007F00
7F000000007F00
7F000000007F00
7F80000000FF00
3F80000000FF00
3F80000000FE00
3FC0000001FE00
1FE0000001FC00
1FE0000003FC00
0FF0000007F800
0FF800000FF800
07FC00001FF000
07FE00003FF000
03FF8000FFE000
01FFE003FFC000
00FFFFFFFF8000
007FFFFFFF0000
001FFFFFFE0000
000FFFFFF80000
0003FFFFE00000
00007FFF000000
000002A0000000
ENDCHAR
STARTCHAR 01A1
ENCODING 417
SWIDTH 604 0
DWIDTH 47 0
BBX 39 49 4 -1
BITMAP
000000007E
000000007E
000000007E
000000007E
000000007C
000000007C
0003FF00FC
001FFFFFF8
007FFFFFF8
00FFFFFFE0
01FFFFFF00
03FFFFFF80
07FE00FFC0
0FF8003FC0
1FE0001FE0
1FC0000FF0
3FC00007F0
3F800007F0
7F800003F8
7F000003F8
7F000001F8
7E000001FC
FE000001FC
FE000001FC
FE000001FC
FE000000FC
FE000000FC
FE000000FC
FE000000FC
FE000001FC
FE000001FC
FE000001FC
FE000001FC
7F000001FC
7F000003F8
7F000003F8
3F800007F8
3F800007F0
1FC0000FF0
1FE0001FE0
0FF0003FE0
0FFC007FC0
07FF03FF80
03FFFFFF00
01FFFFFE00
007FFFFC00
003FFFF000
000FFFC000
0000300000
ENDCHAR
STARTCHAR 01AF
ENCODING 431
SWIDTH 681 0
DWIDTH 53 0
BBX 52 63 5 -1
BITMAP
000000000003F0
000000000003F0
000000000003F0
000000000003F0
000000000003E0
000000000003E0
000000000007E0
0000000003FFE0
FE0000000FFFC0
FE0000000FFF80
FE0000000FFE00
FE0000000FE000
FE0000000FE000
FE0000000FE000
FE0000000FE000
FE0000000FE000
FE0000000FE000
FE0000000FE000
FE0000000FE000
FE0000000FE000
FE0000000FE000
FE0000000FE000
FE0000000FE000
FE0000000FE000
FE0000000FE000
FE0000000FE000
FE0000000FE000
FE0000000FE000
FE0000000FE000
FE0000000FE000
FE0000000FE000
FE0000000FE000
FE0000000FE000
FE0000000FE000
FE0000000FE000
FE0000000FE000
FE0000000FE000
FE0000000FE000
FE0000000FE000
FE0000000FE000
FE0000000FE000
FE0000000FE000
FE0000000FE000
FE0000000FE000
7E0000000FE000
7F0000001FC000
7F0000001FC000
7F0000001FC000
7F8000003FC000
3F8000003F8000
3FC000007F8000
1FC000007F8000
1FE00000FF0000
0FF00001FE0000
0FFC0003FE0000
07FF001FFC0000
03FFFFFFF80000
01FFFFFFF00000
00FFFFFFE00000
007FFFFFC00000
001FFFFF000000
0007FFFC000000
00001F00000000
ENDCHAR
STARTCHAR 01B0
ENCODING 432
SWIDTH 604 0
DWIDTH 47 0
BBX 44 49 6 -1
BITMAP
0000000001F0
0000000001F0
0000000001F0
0000000001F0
0000000003F0
0000000003F0
0000000007E0
FE000007FFE0
FE000007FFC0
FE000007FF80
FE000007F800
FE000007F000
FE000007F000
FE000007F000
FE000007F000
FE000007F000
FE000007F000
FE000007F000
FE000007F000
FE000007F000
FE000007F000
FE000007F000
FE000007F000
FE000007F000
FE000007F000
FE000007F000
FE000007F000
FE000007F000
FE000007F000
FE000007F000
FE000007F000
FE000007F000
FE000007F000
FE00000FF000
FE00000FF000
FE00000FF000
FF00001FF000
7F00001FF000
7F80003FF000
7FC0007FF000
3FE000F7F000
3FF001F7F000
1FFE0FE7F000
0FFFFFC7F000
0FFFFF87F000
03FFFF07F000
01FFFE07F000
007FF807F000
000FC0000000
ENDCHAR
STARTCHAR 02C6
ENCODING 710
SWIDTH 411 0
DWIDTH 32 0
BBX 26 11 3 46
BITMAP
007F8000
00FFC000
01FFE000
03FFE000
03F3F000
07E1F800
0FC1FC00
1FC0FE00
3F807F00
7F003F80
FE001FC0
ENDCHAR
STARTCHAR 02C7
ENCODING 711
SWIDTH 385 0
DWIDTH 30 0
BBX 25 11 3 46
BITMAP
FE003F80
7F007F00
3F80FE00
1FC1FC00
0FE3F800
07E7F000
03FFE000
01FFC000
01FFC000
00FF8000
007F0000
ENDCHAR
STARTCHAR 02D8
ENCODING 728
SWIDTH 385 0
DWIDTH 30 0
BBX 25 8 3 47
BITMAP
FC001F80
FE003F00
7F007F00
3FF7FE00
1FFFFC00
0FFFF000
03FFE000
001E0000
ENDCHAR
STARTCHAR 02D9
ENCODING 729
SWIDTH 167 0
DWIDTH 13 0
BBX 9 8 2 49
BITMAP
3E00
7F00
7F80
FF80
FF80
7F80
7F00
3E00
ENDCHAR
STARTCHAR 02DA
ENCODING 730
SWIDTH 231 0
DWIDTH 18 0
BBX 14 13 2 48
BITMAP
0FC0
1FF0
3FF8
7878
703C
F01C
E01C
F01C
703C
7878
3FF8
3FF0
0FE0
ENDCHAR
STARTCHAR 02DB
ENCODING 731
SWIDTH 205 0
DWIDTH 16 0
BBX 12 15 2 -15
BITMAP
0600
0F80
1F80
3E00
7C00
7C00
F800
F800
F800
FC00
7FB0
7FF0
3FF0
0FF0
0080
ENDCHAR
STARTCHAR 02DC
ENCODING 732
SWIDTH 372 0
DWIDTH 29 0
BBX 22 9 4 48
BITMAP
0F003C
3FC03C
7FF03C
7FF87C
FFFFF8
F87FF8
F03FF0
F00FF0
F00380
ENDCHAR
STARTCHAR 0300
ENCODING 768
SWIDTH 0 0
DWIDTH 0 0
BBX 14 14 -17 48
BITMAP
FE00
FE00
7F00
3F00
3F80
1F80
0FC0
0FC0
07E0
03F0
03F0
01F8
00F8
00FC
ENDCHAR
STARTCHAR 0301
ENCODING 769
SWIDTH 0 0
DWIDTH 0 0
BBX 14 14 -15 48
BITMAP
01FC
01F8
03F8
07F0
07E0
0FE0
0FC0
1F80
1F80
3F00
3E00
7E00
7C00
F800
ENDCHAR
STARTCHAR 0302
ENCODING 770
SWIDTH 0 0
DWIDTH 0 0
BBX 25 11 -27 46
BITMAP
007F0000
00FF8000
01FFC000
03FFE000
07F7F000
0FE3F800
1FC1FC00
3F80FE00
3F007E00
7E003F00
FC001F80
ENDCHAR
STARTCHAR 0303
ENCODING 771
SWIDTH 0 0
DWIDTH 0 0
BBX 22 9 -24 48
BITMAP
0F003C
3FC03C
7FF07C
7FF878
FFFFF8
F0FFF8
F03FF0
F01FE0
F00380
ENDCHAR
STARTCHAR 0304
ENCODING 772
SWIDTH 0 0
DWIDTH 0 0
BBX 23 3 -28 50
BITMAP
FFFFFE
FFFFFE
FFFFFE
ENDCHAR
STARTCHAR 0306
ENCODING 774
SWIDTH 0 0
DWIDTH 0 0
BBX 26 8 -28 47
BITMAP
FC000FC0
7E001F80
3F007F00
1FF3FE00
0FFFFC00
07FFF800
01FFE000
001E0000
ENDCHAR
STARTCHAR 0307
ENCODING 775
SWIDTH 0 0
DWIDTH 0 0
BBX 9 8 -14 49
BITMAP
3E00
7F00
FF00
FF80
FF80
FF00
7F00
3E00
ENDCHAR
STARTCHAR 0308
ENCODING 776
SWIDTH 0 0
DWIDTH 0 0
BBX 24 8 -29 49
BITMAP
3E007C
7F00FE
FF01FF
FF81FF
FF81FF
FF01FF
7F00FE
7E007C
ENDCHAR
STARTCHAR 0309
ENCODING 777
SWIDTH 0 0
DWIDTH 0 0
BBX 17 15 -19 48
BITMAP
01C000
1FFC00
3FFE00
7FFF00
7E3F00
FC1F00
F80F80
000F80
000F00
001F00
003E00
007C00
01F800
03F000
03E000
ENDCHAR
STARTCHAR 030A
ENCODING 778
SWIDTH 0 0
DWIDTH 0 0
BBX 14 13 -18 48
BITMAP
0FC0
1FF0
3FF8
7878
703C
701C
F01C
701C
703C
7878
3FF8
1FF0
0FE0
ENDCHAR
STARTCHAR 030C
ENCODING 780
SWIDTH 0 0
DWIDTH 0 0
BBX 26 11 -29 46
BITMAP
FE001FC0
3F003F00
1F807E00
1FC0FE00
0FE1FC00
07F3F800
03FFF000
01FFE000
00FFC000
007F8000
003F0000
ENDCHAR
STARTCHAR 031B
ENCODING 795
SWIDTH 0 0
DWIDTH 0 0
BBX 13 11 -15 43
BITMAP
01F8
01F8
01F8
01F8
01F8
01F8
01F0
0FF0
FFE0
FFC0
FF80
ENDCHAR
STARTCHAR 0323
ENCODING 803
SWIDTH 0 0
DWIDTH 0 0
BBX 9 8 -10 -17
BITMAP
3E00
7F00
FF80
FF80
FF80
FF80
7F00
3E00
ENDCHAR
STARTCHAR 0327
ENCODING 807
SWIDTH 0 0
DWIDTH 0 0
BBX 15 19 -17 -19
BITMAP
3C00
3C00
3C00
7800
7F00
7FF0
7FF8
FFFC
007C
003C
001E
001E
001E
003C
007C
7FF8
7FF8
7FF0
7FC0
ENDCHAR
STARTCHAR 0328
ENCODING 808
SWIDTH 0 0
DWIDTH 0 0
BBX 12 15 -15 -15
BITMAP
0600
0F80
1F80
3E00
7C00
7C00
F800
F800
F800
7C00
7FB0
7FF0
3FF0
0FF0
0080
ENDCHAR
ENDFONT
